  0
SECTION
  2
HEADER
  9
$ACADVER
  1
AC1015
  9
$ACADMAINTVER
 70
     6
  9
$DWGCODEPAGE
  3
ANSI_1252
  9
$INSBASE
 10
0.0
 20
0.0
 30
0.0
  9
$EXTMIN
 10
0.0
 20
0.0
 30
0.0
  9
$EXTMAX
 10
297.0
 20
210.0
 30
0.0
  9
$LIMMIN
 10
0.0
 20
0.0
  9
$LIMMAX
 10
297.0
 20
210.0
  9
$ORTHOMODE
 70
     0
  9
$REGENMODE
 70
     1
  9
$FILLMODE
 70
     1
  9
$QTEXTMODE
 70
     0
  9
$MIRRTEXT
 70
     1
  9
$LTSCALE
 40
1.0
  9
$ATTMODE
 70
     1
  9
$TEXTSIZE
 40
3.5
  9
$TRACEWID
 40
1.0
  9
$TEXTSTYLE
  7
Standard
  9
$CLAYER
  8
0
  9
$CELTYPE
  6
ByLayer
  9
$CECOLOR
 62
   256
  9
$CELTSCALE
 40
1.0
  9
$DISPSILH
 70
     0
  9
$DIMSCALE
 40
1.0
  9
$DIMASZ
 40
3.556
  9
$DIMEXO
 40
1.0
  9
$DIMDLI
 40
3.75
  9
$DIMRND
 40
0.0
  9
$DIMDLE
 40
0.0
  9
$DIMEXE
 40
1.0
  9
$DIMTP
 40
0.0
  9
$DIMTM
 40
0.0
  9
$DIMTXT
 40
3.5
  9
$DIMCEN
 40
2.5
  9
$DIMTSZ
 40
0.0
  9
$DIMTOL
 70
     0
  9
$DIMLIM
 70
     0
  9
$DIMTIH
 70
     1
  9
$DIMTOH
 70
     1
  9
$DIMSE1
 70
     0
  9
$DIMSE2
 70
     0
  9
$DIMTAD
 70
     1
  9
$DIMZIN
 70
     1
  9
$DIMBLK
  1

  9
$DIMASO
 70
     1
  9
$DIMSHO
 70
     1
  9
$DIMPOST
  1

  9
$DIMAPOST
  1

  9
$DIMALT
 70
     0
  9
$DIMALTD
 70
     3
  9
$DIMALTF
 40
0.0393700787
  9
$DIMLFAC
 40
1.0
  9
$DIMTOFL
 70
     1
  9
$DIMTVP
 40
0.0
  9
$DIMTIX
 70
     0
  9
$DIMSOXD
 70
     0
  9
$DIMSAH
 70
     0
  9
$DIMBLK1
  1

  9
$DIMBLK2
  1

  9
$DIMSTYLE
  2
ISO-25
  9
$DIMCLRD
 70
     0
  9
$DIMCLRE
 70
     0
  9
$DIMCLRT
 70
     0
  9
$DIMTFAC
 40
1.0
  9
$DIMGAP
 40
1.524
  9
$DIMJUST
 70
     0
  9
$DIMSD1
 70
     0
  9
$DIMSD2
 70
     0
  9
$DIMTOLJ
 70
     0
  9
$DIMTZIN
 70
     1
  9
$DIMALTZ
 70
     0
  9
$DIMALTTZ
 70
     0
  9
$DIMUPT
 70
     0
  9
$DIMDEC
 70
     2
  9
$DIMTDEC
 70
     2
  9
$DIMALTU
 70
     2
  9
$DIMALTTD
 70
     3
  9
$DIMTXSTY
  7
Standard
  9
$DIMAUNIT
 70
     0
  9
$DIMADEC
 70
     0
  9
$DIMALTRND
 40
0.0
  9
$DIMAZIN
 70
     0
  9
$DIMDSEP
 70
    44
  9
$DIMATFIT
 70
     3
  9
$DIMFRAC
 70
     0
  9
$DIMLDRBLK
  1

  9
$DIMLUNIT
 70
     2
  9
$DIMLWD
 70
    -2
  9
$DIMLWE
 70
    -2
  9
$DIMTMOVE
 70
     0
  9
$LUNITS
 70
     2
  9
$LUPREC
 70
     4
  9
$SKETCHINC
 40
1.0
  9
$FILLETRAD
 40
0.0
  9
$AUNITS
 70
     0
  9
$AUPREC
 70
     2
  9
$MENU
  1
.
  9
$ELEVATION
 40
0.0
  9
$PELEVATION
 40
0.0
  9
$THICKNESS
 40
0.0
  9
$LIMCHECK
 70
     0
  9
$CHAMFERA
 40
0.0
  9
$CHAMFERB
 40
0.0
  9
$CHAMFERC
 40
0.0
  9
$CHAMFERD
 40
0.0
  9
$SKPOLY
 70
     0
  9
$TDCREATE
 40
2460095.576902709
  9
$TDUCREATE
 40
2460095.493569375
  9
$TDUPDATE
 40
2460095.576903148
  9
$TDUUPDATE
 40
2460095.493569815
  9
$TDINDWG
 40
0.0000000116
  9
$TDUSRTIMER
 40
0.0000000116
  9
$USRTIMER
 70
     1
  9
$ANGBASE
 50
0.0
  9
$ANGDIR
 70
     0
  9
$PDMODE
 70
     0
  9
$PDSIZE
 40
-1.0
  9
$PLINEWID
 40
0.0
  9
$SPLFRAME
 70
     0
  9
$SPLINETYPE
 70
     6
  9
$SPLINESEGS
 70
     8
  9
$HANDSEED
  5
20B
  9
$SURFTAB1
 70
     6
  9
$SURFTAB2
 70
     6
  9
$SURFTYPE
 70
     6
  9
$SURFU
 70
     6
  9
$SURFV
 70
     6
  9
$UCSBASE
  2

  9
$UCSNAME
  2

  9
$UCSORG
 10
0.0
 20
0.0
 30
0.0
  9
$UCSXDIR
 10
1.0
 20
0.0
 30
0.0
  9
$UCSYDIR
 10
0.0
 20
1.0
 30
0.0
  9
$UCSORTHOREF
  2

  9
$UCSORTHOVIEW
 70
     0
  9
$UCSORGTOP
 10
0.0
 20
0.0
 30
0.0
  9
$UCSORGBOTTOM
 10
0.0
 20
0.0
 30
0.0
  9
$UCSORGLEFT
 10
0.0
 20
0.0
 30
0.0
  9
$UCSORGRIGHT
 10
0.0
 20
0.0
 30
0.0
  9
$UCSORGFRONT
 10
0.0
 20
0.0
 30
0.0
  9
$UCSORGBACK
 10
0.0
 20
0.0
 30
0.0
  9
$PUCSBASE
  2

  9
$PUCSNAME
  2

  9
$PUCSORG
 10
0.0
 20
0.0
 30
0.0
  9
$PUCSXDIR
 10
1.0
 20
0.0
 30
0.0
  9
$PUCSYDIR
 10
0.0
 20
1.0
 30
0.0
  9
$PUCSORTHOREF
  2

  9
$PUCSORTHOVIEW
 70
     0
  9
$PUCSORGTOP
 10
0.0
 20
0.0
 30
0.0
  9
$PUCSORGBOTTOM
 10
0.0
 20
0.0
 30
0.0
  9
$PUCSORGLEFT
 10
0.0
 20
0.0
 30
0.0
  9
$PUCSORGRIGHT
 10
0.0
 20
0.0
 30
0.0
  9
$PUCSORGFRONT
 10
0.0
 20
0.0
 30
0.0
  9
$PUCSORGBACK
 10
0.0
 20
0.0
 30
0.0
  9
$USERI1
 70
     0
  9
$USERI2
 70
     0
  9
$USERI3
 70
     0
  9
$USERI4
 70
     0
  9
$USERI5
 70
     0
  9
$USERR1
 40
0.0
  9
$USERR2
 40
0.0
  9
$USERR3
 40
0.0
  9
$USERR4
 40
0.0
  9
$USERR5
 40
0.0
  9
$WORLDVIEW
 70
     1
  9
$SHADEDGE
 70
     3
  9
$SHADEDIF
 70
    70
  9
$TILEMODE
 70
     1
  9
$MAXACTVP
 70
    64
  9
$PINSBASE
 10
0.0
 20
0.0
 30
0.0
  9
$PLIMCHECK
 70
     0
  9
$PEXTMIN
 10
1.0000000000E+20
 20
1.0000000000E+20
 30
1.0000000000E+20
  9
$PEXTMAX
 10
-1.0000000000E+20
 20
-1.0000000000E+20
 30
-1.0000000000E+20
  9
$PLIMMIN
 10
0.0
 20
0.0
  9
$PLIMMAX
 10
420.0
 20
297.0
  9
$UNITMODE
 70
     0
  9
$VISRETAIN
 70
     1
  9
$PLINEGEN
 70
     0
  9
$PSLTSCALE
 70
     1
  9
$TREEDEPTH
 70
  3020
  9
$CMLSTYLE
  2
Standard
  9
$CMLJUST
 70
     0
  9
$CMLSCALE
 40
20.0
  9
$PROXYGRAPHICS
 70
     1
  9
$MEASUREMENT
 70
     1
  9
$CELWEIGHT
370
    -1
  9
$ENDCAPS
280
     0
  9
$JOINSTYLE
280
     0
  9
$LWDISPLAY
290
     1
  9
$INSUNITS
 70
     4
  9
$HYPERLINKBASE
  1

  9
$STYLESHEET
  1

  9
$XEDIT
290
     1
  9
$CEPSNTYPE
380
     0
  9
$PSTYLEMODE
290
     1
  9
$FINGERPRINTGUID
  2
{34666f48-e29f-4000-8f2c-e79542ff7936}
  9
$VERSIONGUID
  2
{FAEB1C32-E019-11D5-929B-00C0DF256EC4}
  9
$EXTNAMES
290
     1
  9
$PSVPSCALE
 40
0.0
  9
$OLESTARTUP
290
     0
  0
ENDSEC
  0
SECTION
  2
CLASSES
  0
CLASS
  1
ACDBDICTIONARYWDFLT
  2
AcDbDictionaryWithDefault
  3
ObjectDBX Classes
 90
        0
280
     0
281
     0
  0
CLASS
  1
VISUALSTYLE
  2
AcDbVisualStyle
  3
ObjectDBX Classes
 90
     4095
280
     0
281
     0
  0
CLASS
  1
MATERIAL
  2
AcDbMaterial
  3
ObjectDBX Classes
 90
     1153
280
     0
281
     0
  0
CLASS
  1
SCALE
  2
AcDbScale
  3
ObjectDBX Classes
 90
     1153
280
     0
281
     0
  0
CLASS
  1
TABLESTYLE
  2
AcDbTableStyle
  3
ObjectDBX Classes
 90
     4095
280
     0
281
     0
  0
CLASS
  1
MLEADERSTYLE
  2
AcDbMLeaderStyle
  3
ACDB_MLEADERSTYLE_CLASS
 90
     4095
280
     0
281
     0
  0
CLASS
  1
SUN
  2
AcDbSun
  3
SCENEOE
 90
     1153
280
     0
281
     0
  0
CLASS
  1
ACDBPLACEHOLDER
  2
AcDbPlaceHolder
  3
ObjectDBX Classes
 90
        0
280
     0
281
     0
  0
CLASS
  1
LAYOUT
  2
AcDbLayout
  3
ObjectDBX Classes
 90
        0
280
     0
281
     0
  0
ENDSEC
  0
SECTION
  2
TABLES
  0
TABLE
  2
VPORT
  5
8
330
0
100
AcDbSymbolTable
 70
     1
  0
VPORT
  5
29
330
8
100
AcDbSymbolTableRecord
100
AcDbViewportTableRecord
  2
*Active
 70
     0
 10
0.0
 20
0.0
 11
1.0
 21
1.0
 12
148.5
 22
105.0
 13
0.0
 23
0.0
 14
10.0
 24
10.0
 15
10.0
 25
10.0
 16
0.0
 26
0.0
 36
1.0
 17
0.0
 27
0.0
 37
0.0
 40
210.0
 41
1.4142857143
 42
50.0
 43
0.0
 44
0.0
 50
0.0
 51
0.0
 71
     0
 72
  2000
 73
     1
 74
     3
 75
     0
 76
     0
 77
     0
 78
     0
281
     0
 65
     1
110
0.0
120
0.0
130
0.0
111
1.0
121
0.0
131
0.0
112
0.0
122
1.0
132
0.0
 79
     0
146
0.0
  0
ENDTAB
  0
TABLE
  2
LTYPE
  5
5
330
0
100
AcDbSymbolTable
 70
     6
  0
LTYPE
  5
14
330
5
100
AcDbSymbolTableRecord
100
AcDbLinetypeTableRecord
  2
ByBlock
 70
     0
  3

 72
    65
 73
     0
 40
0.0
  0
LTYPE
  5
15
330
5
100
AcDbSymbolTableRecord
100
AcDbLinetypeTableRecord
  2
ByLayer
 70
     0
  3

 72
    65
 73
     0
 40
0.0
  0
LTYPE
  5
16
330
5
100
AcDbSymbolTableRecord
100
AcDbLinetypeTableRecord
  2
Continuous
 70
     0
  3
Solid line
 72
    65
 73
     0
 40
0.0
  0
LTYPE
  5
5E
330
5
100
AcDbSymbolTableRecord
100
AcDbLinetypeTableRecord
  2
HIDDEN
 70
     0
  3
Hidden __ __ __ __ __ __ __ __ __ __ __ __ __ __
 72
    65
 73
     2
 40
1.905
 49
1.27
 74
     0
 49
-0.635
 74
     0
  0
LTYPE
  5
5F
330
5
100
AcDbSymbolTableRecord
100
AcDbLinetypeTableRecord
  2
PHANTOM
 70
     0
  3
Phantom ______  __  __  ______  __  __  ______
 72
    65
 73
     6
 40
12.7
 49
6.35
 74
     0
 49
-1.27
 74
     0
 49
1.27
 74
     0
 49
-1.27
 74
     0
 49
1.27
 74
     0
 49
-1.27
 74
     0
  0
LTYPE
  5
60
330
5
100
AcDbSymbolTableRecord
100
AcDbLinetypeTableRecord
  2
CENTER
 70
     0
  3
Center ____ _ ____ _ ____ _ ____ _ ____ _ ____
 72
    65
 73
     4
 40
10.16
 49
6.35
 74
     0
 49
-1.27
 74
     0
 49
1.27
 74
     0
 49
-1.27
 74
     0
  0
LTYPE
  5
61
330
5
100
AcDbSymbolTableRecord
100
AcDbLinetypeTableRecord
  2
CENTERX2
 70
     0
  3
Center (2x) ________  __  ________  __  _____
 72
    65
 73
     4
 40
20.32
 49
12.7
 74
     0
 49
-2.54
 74
     0
 49
2.54
 74
     0
 49
-2.54
 74
     0
  0
LTYPE
  5
62
330
5
100
AcDbSymbolTableRecord
100
AcDbLinetypeTableRecord
  2
DOT2
 70
     0
  3
Dot (.5x) ........................................
 72
    65
 73
     2
 40
0.635
 49
0.0
 74
     0
 49
-0.635
 74
     0
  0
ENDTAB
  0
TABLE
  2
LAYER
  5
2
330
0
100
AcDbSymbolTable
 70
     2
  0
LAYER
  5
10
330
2
100
AcDbSymbolTableRecord
100
AcDbLayerTableRecord
  2
0
 70
     0
 62
     7
  6
Continuous
370
    -3
390
F
  0
LAYER
  5
63
330
2
100
AcDbSymbolTableRecord
100
AcDbLayerTableRecord
  2
SLD-0
 70
     0
 62
   179
  6
Continuous
370
    -3
390
F
  0
ENDTAB
  0
TABLE
  2
STYLE
  5
3
330
0
100
AcDbSymbolTable
 70
     2
  0
STYLE
  5
11
330
3
100
AcDbSymbolTableRecord
100
AcDbTextStyleTableRecord
  2
Standard
 70
     0
 40
0.0
 41
1.0
 50
0.0
 71
     0
 42
3.5
  3
txt
  4

  0
STYLE
  5
208
330
3
100
AcDbSymbolTableRecord
100
AcDbTextStyleTableRecord
  2
SLDTEXTSTYLE0
 70
     0
 40
0.0
 41
0.7
 50
0.0
 71
     0
 42
3.5
  3
TXT
  4
bigfont
  0
ENDTAB
  0
TABLE
  2
VIEW
  5
6
330
0
100
AcDbSymbolTable
 70
     0
  0
ENDTAB
  0
TABLE
  2
UCS
  5
7
330
0
100
AcDbSymbolTable
 70
     0
  0
ENDTAB
  0
TABLE
  2
APPID
  5
9
330
0
100
AcDbSymbolTable
 70
     1
  0
APPID
  5
12
330
9
100
AcDbSymbolTableRecord
100
AcDbRegAppTableRecord
  2
ACAD
 70
     0
  0
ENDTAB
  0
TABLE
  2
DIMSTYLE
  5
A
330
0
100
AcDbSymbolTable
 70
     1
100
AcDbDimStyleTable
  0
DIMSTYLE
105
27
330
A
100
AcDbSymbolTableRecord
100
AcDbDimStyleTableRecord
  2
ISO-25
 70
     0
 41
2.5
 42
0.625
 43
3.75
 44
1.25
 73
     0
 74
     0
 77
     1
 78
     8
140
2.5
141
2.5
143
0.0393700787
147
0.625
171
     3
172
     1
178
     0
271
     2
272
     2
274
     3
278
    44
283
     0
284
     8
340
11
  0
ENDTAB
  0
TABLE
  2
BLOCK_RECORD
  5
1
330
0
100
AcDbSymbolTable
 70
     1
  0
BLOCK_RECORD
  5
1F
330
1
100
AcDbSymbolTableRecord
100
AcDbBlockTableRecord
  2
*Model_Space
340
22
  0
BLOCK_RECORD
  5
1B
330
1
100
AcDbSymbolTableRecord
100
AcDbBlockTableRecord
  2
*Paper_Space
340
1E
  0
BLOCK_RECORD
  5
23
330
1
100
AcDbSymbolTableRecord
100
AcDbBlockTableRecord
  2
*Paper_Space0
340
26
  0
ENDTAB
  0
ENDSEC
  0
SECTION
  2
BLOCKS
  0
BLOCK
  5
20
330
1F
100
AcDbEntity
  8
0
100
AcDbBlockBegin
  2
*Model_Space
 70
     0
 10
0.0
 20
0.0
 30
0.0
  3
*Model_Space
  1

  0
ENDBLK
  5
21
330
1F
100
AcDbEntity
  8
0
100
AcDbBlockEnd
  0
BLOCK
  5
1C
330
1B
100
AcDbEntity
 67
     1
  8
0
100
AcDbBlockBegin
  2
*Paper_Space
 70
     0
 10
0.0
 20
0.0
 30
0.0
  3
*Paper_Space
  1

  0
ENDBLK
  5
1D
330
1B
100
AcDbEntity
 67
     1
  8
0
100
AcDbBlockEnd
  0
BLOCK
  5
24
330
23
100
AcDbEntity
  8
0
100
AcDbBlockBegin
  2
*Paper_Space0
 70
     0
 10
0.0
 20
0.0
 30
0.0
  3
*Paper_Space0
  1

  0
ENDBLK
  5
25
330
23
100
AcDbEntity
  8
0
100
AcDbBlockEnd
  0
ENDSEC
  0
SECTION
  2
ENTITIES
  0
LINE
  5
64
330
1F
100
AcDbEntity
  8
SLD-0
 62
     1
100
AcDbLine
 10
117.849
 20
53.3495
 30
0.0
 11
118.374
 21
52.7692
 31
0.0
  0
LINE
  5
65
330
1F
100
AcDbEntity
  8
SLD-0
 62
     1
100
AcDbLine
 10
118.374
 20
52.7692
 30
0.0
 11
119.908
 21
51.0769
 31
0.0
  0
LINE
  5
66
330
1F
100
AcDbEntity
  8
SLD-0
 62
     1
100
AcDbLine
 10
119.908
 20
51.0769
 30
0.0
 11
121.734
 21
48.6145
 31
0.0
  0
LINE
  5
67
330
1F
100
AcDbEntity
  8
SLD-0
 62
     1
100
AcDbLine
 10
121.734
 20
48.6145
 30
0.0
 11
121.922
 21
48.3016
 31
0.0
  0
LINE
  5
68
330
1F
100
AcDbEntity
  8
SLD-0
 62
     1
100
AcDbLine
 10
121.922
 20
48.3016
 30
0.0
 11
123.312
 21
45.9825
 31
0.0
  0
LINE
  5
69
330
1F
100
AcDbEntity
  8
SLD-0
 62
     1
100
AcDbLine
 10
123.312
 20
45.9825
 30
0.0
 11
124.623
 21
43.211
 31
0.0
  0
LINE
  5
6A
330
1F
100
AcDbEntity
  8
SLD-0
 62
     1
100
AcDbLine
 10
124.623
 20
43.211
 30
0.0
 11
125.656
 21
40.3229
 31
0.0
  0
LINE
  5
6B
330
1F
100
AcDbEntity
  8
SLD-0
 62
     1
100
AcDbLine
 10
125.656
 20
40.3229
 30
0.0
 11
126.402
 21
37.3489
 31
0.0
  0
LINE
  5
6C
330
1F
100
AcDbEntity
  8
SLD-0
 62
     1
100
AcDbLine
 10
126.402
 20
37.3489
 30
0.0
 11
126.545
 21
36.3859
 31
0.0
  0
LINE
  5
6D
330
1F
100
AcDbEntity
  8
SLD-0
 62
     1
100
AcDbLine
 10
126.545
 20
36.3859
 30
0.0
 11
126.853
 21
34.3145
 31
0.0
  0
LINE
  5
6E
330
1F
100
AcDbEntity
  8
SLD-0
 62
     1
100
AcDbLine
 10
126.853
 20
34.3145
 30
0.0
 11
127.001
 21
31.2511
 31
0.0
  0
LINE
  5
6F
330
1F
100
AcDbEntity
  8
SLD-0
 62
     1
100
AcDbLine
 10
127.001
 20
31.2511
 30
0.0
 11
126.853
 21
28.1892
 31
0.0
  0
LINE
  5
70
330
1F
100
AcDbEntity
  8
SLD-0
 62
     1
100
AcDbLine
 10
126.853
 20
28.1892
 30
0.0
 11
126.402
 21
25.1547
 31
0.0
  0
LINE
  5
71
330
1F
100
AcDbEntity
  8
SLD-0
 62
     1
100
AcDbLine
 10
126.402
 20
25.1547
 30
0.0
 11
125.656
 21
22.1809
 31
0.0
  0
LINE
  5
72
330
1F
100
AcDbEntity
  8
SLD-0
 62
     1
100
AcDbLine
 10
125.656
 20
22.1809
 30
0.0
 11
124.876
 21
20.0022
 31
0.0
  0
LINE
  5
73
330
1F
100
AcDbEntity
  8
SLD-0
 62
     1
100
AcDbLine
 10
124.876
 20
20.0022
 30
0.0
 11
124.623
 21
19.2925
 31
0.0
  0
LINE
  5
74
330
1F
100
AcDbEntity
  8
SLD-0
 62
     1
100
AcDbLine
 10
124.623
 20
19.2925
 30
0.0
 11
123.312
 21
16.5213
 31
0.0
  0
LINE
  5
75
330
1F
100
AcDbEntity
  8
SLD-0
 62
     1
100
AcDbLine
 10
123.312
 20
16.5213
 30
0.0
 11
121.922
 21
14.2021
 31
0.0
  0
LINE
  5
76
330
1F
100
AcDbEntity
  8
SLD-0
 62
     1
100
AcDbLine
 10
121.922
 20
14.2021
 30
0.0
 11
121.734
 21
13.8892
 31
0.0
  0
LINE
  5
77
330
1F
100
AcDbEntity
  8
SLD-0
 62
     1
100
AcDbLine
 10
121.734
 20
13.8892
 30
0.0
 11
119.908
 21
11.4267
 31
0.0
  0
LINE
  5
78
330
1F
100
AcDbEntity
  8
SLD-0
 62
     1
100
AcDbLine
 10
119.908
 20
11.4267
 30
0.0
 11
117.849
 21
9.1543
 31
0.0
  0
LINE
  5
79
330
1F
100
AcDbEntity
  8
SLD-0
 62
     1
100
AcDbLine
 10
117.849
 20
9.1543
 30
0.0
 11
115.577
 21
7.09415
 31
0.0
  0
LINE
  5
7A
330
1F
100
AcDbEntity
  8
SLD-0
 62
     1
100
AcDbLine
 10
115.577
 20
7.09415
 30
0.0
 11
113.114
 21
5.26824
 31
0.0
  0
LINE
  5
7B
330
1F
100
AcDbEntity
  8
SLD-0
 62
     1
100
AcDbLine
 10
113.114
 20
5.26824
 30
0.0
 11
110.483
 21
3.69175
 31
0.0
  0
LINE
  5
7C
330
1F
100
AcDbEntity
  8
SLD-0
 62
     1
100
AcDbLine
 10
110.483
 20
3.69175
 30
0.0
 11
107.71
 21
2.38125
 31
0.0
  0
LINE
  5
7D
330
1F
100
AcDbEntity
  8
SLD-0
 62
     1
100
AcDbLine
 10
107.71
 20
2.38125
 30
0.0
 11
105.538
 21
1.60404
 31
0.0
  0
LINE
  5
7E
330
1F
100
AcDbEntity
  8
SLD-0
 62
     1
100
AcDbLine
 10
105.538
 20
1.60404
 30
0.0
 11
104.823
 21
1.34772
 31
0.0
  0
LINE
  5
7F
330
1F
100
AcDbEntity
  8
SLD-0
 62
     1
100
AcDbLine
 10
104.823
 20
1.34772
 30
0.0
 11
103.431
 21
0.999077
 31
0.0
  0
LINE
  5
80
330
1F
100
AcDbEntity
  8
SLD-0
 62
     1
100
AcDbLine
 10
103.431
 20
0.999077
 30
0.0
 11
101.849
 21
0.602202
 31
0.0
  0
LINE
  5
81
330
1F
100
AcDbEntity
  8
SLD-0
 62
     1
100
AcDbLine
 10
101.849
 20
0.602202
 30
0.0
 11
98.8148
 21
0.151584
 31
0.0
  0
LINE
  5
82
330
1F
100
AcDbEntity
  8
SLD-0
 62
     1
100
AcDbLine
 10
98.8148
 20
0.151584
 30
0.0
 11
95.7516
 21
0.00137804
 31
0.0
  0
LINE
  5
83
330
1F
100
AcDbEntity
  8
SLD-0
 62
     1
100
AcDbLine
 10
95.7516
 20
0.00137804
 30
0.0
 11
94.5003
 21
0.0633899
 31
0.0
  0
LINE
  5
84
330
1F
100
AcDbEntity
  8
SLD-0
 62
     1
100
AcDbLine
 10
94.5003
 20
0.0633899
 30
0.0
 11
92.6881
 21
0.151584
 31
0.0
  0
LINE
  5
85
330
1F
100
AcDbEntity
  8
SLD-0
 62
     1
100
AcDbLine
 10
92.6881
 20
0.151584
 30
0.0
 11
89.6553
 21
0.602202
 31
0.0
  0
LINE
  5
86
330
1F
100
AcDbEntity
  8
SLD-0
 62
     1
100
AcDbLine
 10
89.6553
 20
0.602202
 30
0.0
 11
89.1536
 21
0.727604
 31
0.0
  0
LINE
  5
87
330
1F
100
AcDbEntity
  8
SLD-0
 62
     1
100
AcDbLine
 10
89.1536
 20
0.727604
 30
0.0
 11
88.7857
 21
0.819933
 31
0.0
  0
LINE
  5
88
330
1F
100
AcDbEntity
  8
SLD-0
 62
     1
100
AcDbLine
 10
88.7857
 20
0.819933
 30
0.0
 11
86.6814
 21
1.34772
 31
0.0
  0
LINE
  5
89
330
1F
100
AcDbEntity
  8
SLD-0
 62
     1
100
AcDbLine
 10
86.6814
 20
1.34772
 30
0.0
 11
85.8478
 21
1.64538
 31
0.0
  0
LINE
  5
8A
330
1F
100
AcDbEntity
  8
SLD-0
 62
     1
100
AcDbLine
 10
85.8478
 20
1.64538
 30
0.0
 11
83.7928
 21
2.38125
 31
0.0
  0
LINE
  5
8B
330
1F
100
AcDbEntity
  8
SLD-0
 62
     1
100
AcDbLine
 10
83.7928
 20
2.38125
 30
0.0
 11
81.0204
 21
3.69175
 31
0.0
  0
LINE
  5
8C
330
1F
100
AcDbEntity
  8
SLD-0
 62
     1
100
AcDbLine
 10
81.0204
 20
3.69175
 30
0.0
 11
78.3897
 21
5.26824
 31
0.0
  0
LINE
  5
8D
330
1F
100
AcDbEntity
  8
SLD-0
 62
     1
100
AcDbLine
 10
78.3897
 20
5.26824
 30
0.0
 11
75.9273
 21
7.09415
 31
0.0
  0
LINE
  5
8E
330
1F
100
AcDbEntity
  8
SLD-0
 62
     1
100
AcDbLine
 10
75.9273
 20
7.09415
 30
0.0
 11
73.6547
 21
9.1543
 31
0.0
  0
LINE
  5
8F
330
1F
100
AcDbEntity
  8
SLD-0
 62
     1
100
AcDbLine
 10
73.6547
 20
9.1543
 30
0.0
 11
72.7699
 21
10.1314
 31
0.0
  0
LINE
  5
90
330
1F
100
AcDbEntity
  8
SLD-0
 62
     1
100
AcDbLine
 10
72.7699
 20
10.1314
 30
0.0
 11
71.5945
 21
11.4267
 31
0.0
  0
LINE
  5
91
330
1F
100
AcDbEntity
  8
SLD-0
 62
     1
100
AcDbLine
 10
71.5945
 20
11.4267
 30
0.0
 11
69.7689
 21
13.8892
 31
0.0
  0
LINE
  5
92
330
1F
100
AcDbEntity
  8
SLD-0
 62
     1
100
AcDbLine
 10
69.7689
 20
13.8892
 30
0.0
 11
68.1923
 21
16.5213
 31
0.0
  0
LINE
  5
93
330
1F
100
AcDbEntity
  8
SLD-0
 62
     1
100
AcDbLine
 10
68.1923
 20
16.5213
 30
0.0
 11
66.8803
 21
19.2925
 31
0.0
  0
LINE
  5
94
330
1F
100
AcDbEntity
  8
SLD-0
 62
     1
100
AcDbLine
 10
66.8803
 20
19.2925
 30
0.0
 11
66.6267
 21
20.0022
 31
0.0
  0
LINE
  5
95
330
1F
100
AcDbEntity
  8
SLD-0
 62
     1
100
AcDbLine
 10
66.6267
 20
20.0022
 30
0.0
 11
65.8481
 21
22.1809
 31
0.0
  0
LINE
  5
96
330
1F
100
AcDbEntity
  8
SLD-0
 62
     1
100
AcDbLine
 10
65.8481
 20
22.1809
 30
0.0
 11
65.1013
 21
25.1547
 31
0.0
  0
LINE
  5
97
330
1F
100
AcDbEntity
  8
SLD-0
 62
     1
100
AcDbLine
 10
65.1013
 20
25.1547
 30
0.0
 11
64.6522
 21
28.1892
 31
0.0
  0
LINE
  5
98
330
1F
100
AcDbEntity
  8
SLD-0
 62
     1
100
AcDbLine
 10
64.6522
 20
28.1892
 30
0.0
 11
64.5019
 21
31.2511
 31
0.0
  0
LINE
  5
99
330
1F
100
AcDbEntity
  8
SLD-0
 62
     1
100
AcDbLine
 10
64.5019
 20
31.2511
 30
0.0
 11
64.6522
 21
34.3145
 31
0.0
  0
LINE
  5
9A
330
1F
100
AcDbEntity
  8
SLD-0
 62
     1
100
AcDbLine
 10
64.6522
 20
34.3145
 30
0.0
 11
64.9594
 21
36.3859
 31
0.0
  0
LINE
  5
9B
330
1F
100
AcDbEntity
  8
SLD-0
 62
     1
100
AcDbLine
 10
64.9594
 20
36.3859
 30
0.0
 11
65.1013
 21
37.3489
 31
0.0
  0
LINE
  5
9C
330
1F
100
AcDbEntity
  8
SLD-0
 62
     1
100
AcDbLine
 10
65.1013
 20
37.3489
 30
0.0
 11
65.8481
 21
40.3229
 31
0.0
  0
LINE
  5
9D
330
1F
100
AcDbEntity
  8
SLD-0
 62
     1
100
AcDbLine
 10
65.8481
 20
40.3229
 30
0.0
 11
66.8803
 21
43.211
 31
0.0
  0
LINE
  5
9E
330
1F
100
AcDbEntity
  8
SLD-0
 62
     1
100
AcDbLine
 10
66.8803
 20
43.211
 30
0.0
 11
68.1923
 21
45.9825
 31
0.0
  0
LINE
  5
9F
330
1F
100
AcDbEntity
  8
SLD-0
 62
     1
100
AcDbLine
 10
68.1923
 20
45.9825
 30
0.0
 11
69.7689
 21
48.6145
 31
0.0
  0
LINE
  5
A0
330
1F
100
AcDbEntity
  8
SLD-0
 62
     1
100
AcDbLine
 10
69.7689
 20
48.6145
 30
0.0
 11
71.5945
 21
51.0769
 31
0.0
  0
LINE
  5
A1
330
1F
100
AcDbEntity
  8
SLD-0
 62
     1
100
AcDbLine
 10
71.5945
 20
51.0769
 30
0.0
 11
72.7699
 21
52.3723
 31
0.0
  0
LINE
  5
A2
330
1F
100
AcDbEntity
  8
SLD-0
 62
     1
100
AcDbLine
 10
72.7699
 20
52.3723
 30
0.0
 11
73.1298
 21
52.7692
 31
0.0
  0
LINE
  5
A3
330
1F
100
AcDbEntity
  8
SLD-0
 62
     1
100
AcDbLine
 10
73.1298
 20
52.7692
 30
0.0
 11
73.6547
 21
53.3495
 31
0.0
  0
LINE
  5
A4
330
1F
100
AcDbEntity
  8
SLD-0
 62
     1
100
AcDbLine
 10
73.6547
 20
53.3495
 30
0.0
 11
75.9273
 21
55.4083
 31
0.0
  0
LINE
  5
A5
330
1F
100
AcDbEntity
  8
SLD-0
 62
     1
100
AcDbLine
 10
75.9273
 20
55.4083
 30
0.0
 11
78.3897
 21
57.2354
 31
0.0
  0
LINE
  5
A6
330
1F
100
AcDbEntity
  8
SLD-0
 62
     1
100
AcDbLine
 10
78.3897
 20
57.2354
 30
0.0
 11
81.0204
 21
58.8119
 31
0.0
  0
LINE
  5
A7
330
1F
100
AcDbEntity
  8
SLD-0
 62
     1
100
AcDbLine
 10
81.0204
 20
58.8119
 30
0.0
 11
83.7928
 21
60.1225
 31
0.0
  0
LINE
  5
A8
330
1F
100
AcDbEntity
  8
SLD-0
 62
     1
100
AcDbLine
 10
83.7928
 20
60.1225
 30
0.0
 11
86.6814
 21
61.1558
 31
0.0
  0
LINE
  5
A9
330
1F
100
AcDbEntity
  8
SLD-0
 62
     1
100
AcDbLine
 10
86.6814
 20
61.1558
 30
0.0
 11
89.1536
 21
61.776
 31
0.0
  0
LINE
  5
AA
330
1F
100
AcDbEntity
  8
SLD-0
 62
     1
100
AcDbLine
 10
89.1536
 20
61.776
 30
0.0
 11
89.6553
 21
61.9016
 31
0.0
  0
LINE
  5
AB
330
1F
100
AcDbEntity
  8
SLD-0
 62
     1
100
AcDbLine
 10
89.6553
 20
61.9016
 30
0.0
 11
92.6881
 21
62.3521
 31
0.0
  0
LINE
  5
AC
330
1F
100
AcDbEntity
  8
SLD-0
 62
     1
100
AcDbLine
 10
92.6881
 20
62.3521
 30
0.0
 11
94.5003
 21
62.4403
 31
0.0
  0
LINE
  5
AD
330
1F
100
AcDbEntity
  8
SLD-0
 62
     1
100
AcDbLine
 10
94.5003
 20
62.4403
 30
0.0
 11
95.7516
 21
62.5023
 31
0.0
  0
LINE
  5
AE
330
1F
100
AcDbEntity
  8
SLD-0
 62
     1
100
AcDbLine
 10
95.7516
 20
62.5023
 30
0.0
 11
98.0048
 21
62.3919
 31
0.0
  0
LINE
  5
AF
330
1F
100
AcDbEntity
  8
SLD-0
 62
     1
100
AcDbLine
 10
98.0048
 20
62.3919
 30
0.0
 11
98.8148
 21
62.3521
 31
0.0
  0
LINE
  5
B0
330
1F
100
AcDbEntity
  8
SLD-0
 62
     1
100
AcDbLine
 10
98.8148
 20
62.3521
 30
0.0
 11
101.849
 21
61.9016
 31
0.0
  0
LINE
  5
B1
330
1F
100
AcDbEntity
  8
SLD-0
 62
     1
100
AcDbLine
 10
101.849
 20
61.9016
 30
0.0
 11
104.823
 21
61.1558
 31
0.0
  0
LINE
  5
B2
330
1F
100
AcDbEntity
  8
SLD-0
 62
     1
100
AcDbLine
 10
104.823
 20
61.1558
 30
0.0
 11
105.538
 21
60.8997
 31
0.0
  0
LINE
  5
B3
330
1F
100
AcDbEntity
  8
SLD-0
 62
     1
100
AcDbLine
 10
105.538
 20
60.8997
 30
0.0
 11
107.71
 21
60.1225
 31
0.0
  0
LINE
  5
B4
330
1F
100
AcDbEntity
  8
SLD-0
 62
     1
100
AcDbLine
 10
107.71
 20
60.1225
 30
0.0
 11
110.483
 21
58.8119
 31
0.0
  0
LINE
  5
B5
330
1F
100
AcDbEntity
  8
SLD-0
 62
     1
100
AcDbLine
 10
110.483
 20
58.8119
 30
0.0
 11
113.114
 21
57.2354
 31
0.0
  0
LINE
  5
B6
330
1F
100
AcDbEntity
  8
SLD-0
 62
     1
100
AcDbLine
 10
113.114
 20
57.2354
 30
0.0
 11
115.577
 21
55.4083
 31
0.0
  0
LINE
  5
B7
330
1F
100
AcDbEntity
  8
SLD-0
 62
     1
100
AcDbLine
 10
115.577
 20
55.4083
 30
0.0
 11
117.849
 21
53.3495
 31
0.0
  0
LINE
  5
B8
330
1F
100
AcDbEntity
  8
SLD-0
 62
     1
100
AcDbLine
 10
53.3495
 20
53.3495
 30
0.0
 11
53.8745
 21
52.7692
 31
0.0
  0
LINE
  5
B9
330
1F
100
AcDbEntity
  8
SLD-0
 62
     1
100
AcDbLine
 10
53.8745
 20
52.7692
 30
0.0
 11
55.4094
 21
51.0769
 31
0.0
  0
LINE
  5
BA
330
1F
100
AcDbEntity
  8
SLD-0
 62
     1
100
AcDbLine
 10
55.4094
 20
51.0769
 30
0.0
 11
57.2354
 21
48.6145
 31
0.0
  0
LINE
  5
BB
330
1F
100
AcDbEntity
  8
SLD-0
 62
     1
100
AcDbLine
 10
57.2354
 20
48.6145
 30
0.0
 11
58.8119
 21
45.9825
 31
0.0
  0
LINE
  5
BC
330
1F
100
AcDbEntity
  8
SLD-0
 62
     1
100
AcDbLine
 10
58.8119
 20
45.9825
 30
0.0
 11
60.1225
 21
43.211
 31
0.0
  0
LINE
  5
BD
330
1F
100
AcDbEntity
  8
SLD-0
 62
     1
100
AcDbLine
 10
60.1225
 20
43.211
 30
0.0
 11
61.1558
 21
40.3229
 31
0.0
  0
LINE
  5
BE
330
1F
100
AcDbEntity
  8
SLD-0
 62
     1
100
AcDbLine
 10
61.1558
 20
40.3229
 30
0.0
 11
61.9016
 21
37.3489
 31
0.0
  0
LINE
  5
BF
330
1F
100
AcDbEntity
  8
SLD-0
 62
     1
100
AcDbLine
 10
61.9016
 20
37.3489
 30
0.0
 11
62.0448
 21
36.3859
 31
0.0
  0
LINE
  5
C0
330
1F
100
AcDbEntity
  8
SLD-0
 62
     1
100
AcDbLine
 10
62.0448
 20
36.3859
 30
0.0
 11
62.1979
 21
35.3536
 31
0.0
  0
LINE
  5
C1
330
1F
100
AcDbEntity
  8
SLD-0
 62
     1
100
AcDbLine
 10
62.1979
 20
35.3536
 30
0.0
 11
62.3521
 21
34.3145
 31
0.0
  0
LINE
  5
C2
330
1F
100
AcDbEntity
  8
SLD-0
 62
     1
100
AcDbLine
 10
62.3521
 20
34.3145
 30
0.0
 11
62.5023
 21
31.2511
 31
0.0
  0
LINE
  5
C3
330
1F
100
AcDbEntity
  8
SLD-0
 62
     1
100
AcDbLine
 10
62.5023
 20
31.2511
 30
0.0
 11
62.3521
 21
28.1892
 31
0.0
  0
LINE
  5
C4
330
1F
100
AcDbEntity
  8
SLD-0
 62
     1
100
AcDbLine
 10
62.3521
 20
28.1892
 30
0.0
 11
61.9016
 21
25.1547
 31
0.0
  0
LINE
  5
C5
330
1F
100
AcDbEntity
  8
SLD-0
 62
     1
100
AcDbLine
 10
61.9016
 20
25.1547
 30
0.0
 11
61.1558
 21
22.1809
 31
0.0
  0
LINE
  5
C6
330
1F
100
AcDbEntity
  8
SLD-0
 62
     1
100
AcDbLine
 10
61.1558
 20
22.1809
 30
0.0
 11
60.3762
 21
20.0022
 31
0.0
  0
LINE
  5
C7
330
1F
100
AcDbEntity
  8
SLD-0
 62
     1
100
AcDbLine
 10
60.3762
 20
20.0022
 30
0.0
 11
60.1225
 21
19.2925
 31
0.0
  0
LINE
  5
C8
330
1F
100
AcDbEntity
  8
SLD-0
 62
     1
100
AcDbLine
 10
60.1225
 20
19.2925
 30
0.0
 11
58.8119
 21
16.5213
 31
0.0
  0
LINE
  5
C9
330
1F
100
AcDbEntity
  8
SLD-0
 62
     1
100
AcDbLine
 10
58.8119
 20
16.5213
 30
0.0
 11
57.2354
 21
13.8892
 31
0.0
  0
LINE
  5
CA
330
1F
100
AcDbEntity
  8
SLD-0
 62
     1
100
AcDbLine
 10
57.2354
 20
13.8892
 30
0.0
 11
56.3866
 21
12.7441
 31
0.0
  0
LINE
  5
CB
330
1F
100
AcDbEntity
  8
SLD-0
 62
     1
100
AcDbLine
 10
56.3866
 20
12.7441
 30
0.0
 11
56.0395
 21
12.2769
 31
0.0
  0
LINE
  5
CC
330
1F
100
AcDbEntity
  8
SLD-0
 62
     1
100
AcDbLine
 10
56.0395
 20
12.2769
 30
0.0
 11
55.4094
 21
11.4267
 31
0.0
  0
LINE
  5
CD
330
1F
100
AcDbEntity
  8
SLD-0
 62
     1
100
AcDbLine
 10
55.4094
 20
11.4267
 30
0.0
 11
53.3495
 21
9.1543
 31
0.0
  0
LINE
  5
CE
330
1F
100
AcDbEntity
  8
SLD-0
 62
     1
100
AcDbLine
 10
53.3495
 20
9.1543
 30
0.0
 11
51.0769
 21
7.09415
 31
0.0
  0
LINE
  5
CF
330
1F
100
AcDbEntity
  8
SLD-0
 62
     1
100
AcDbLine
 10
51.0769
 20
7.09415
 30
0.0
 11
48.6145
 21
5.26824
 31
0.0
  0
LINE
  5
D0
330
1F
100
AcDbEntity
  8
SLD-0
 62
     1
100
AcDbLine
 10
48.6145
 20
5.26824
 30
0.0
 11
45.9825
 21
3.69175
 31
0.0
  0
LINE
  5
D1
330
1F
100
AcDbEntity
  8
SLD-0
 62
     1
100
AcDbLine
 10
45.9825
 20
3.69175
 30
0.0
 11
45.8265
 21
3.61735
 31
0.0
  0
LINE
  5
D2
330
1F
100
AcDbEntity
  8
SLD-0
 62
     1
100
AcDbLine
 10
45.8265
 20
3.61735
 30
0.0
 11
43.211
 21
2.38125
 31
0.0
  0
LINE
  5
D3
330
1F
100
AcDbEntity
  8
SLD-0
 62
     1
100
AcDbLine
 10
43.211
 20
2.38125
 30
0.0
 11
40.3229
 21
1.34772
 31
0.0
  0
LINE
  5
D4
330
1F
100
AcDbEntity
  8
SLD-0
 62
     1
100
AcDbLine
 10
40.3229
 20
1.34772
 30
0.0
 11
40.0018
 21
1.2678
 31
0.0
  0
LINE
  5
D5
330
1F
100
AcDbEntity
  8
SLD-0
 62
     1
100
AcDbLine
 10
40.0018
 20
1.2678
 30
0.0
 11
39.9288
 21
1.2485
 31
0.0
  0
LINE
  5
D6
330
1F
100
AcDbEntity
  8
SLD-0
 62
     1
100
AcDbLine
 10
39.9288
 20
1.2485
 30
0.0
 11
37.3489
 21
0.602202
 31
0.0
  0
LINE
  5
D7
330
1F
100
AcDbEntity
  8
SLD-0
 62
     1
100
AcDbLine
 10
37.3489
 20
0.602202
 30
0.0
 11
34.3145
 21
0.151584
 31
0.0
  0
LINE
  5
D8
330
1F
100
AcDbEntity
  8
SLD-0
 62
     1
100
AcDbLine
 10
34.3145
 20
0.151584
 30
0.0
 11
31.2525
 21
0.00137804
 31
0.0
  0
LINE
  5
D9
330
1F
100
AcDbEntity
  8
SLD-0
 62
     1
100
AcDbLine
 10
31.2525
 20
0.00137804
 30
0.0
 11
29.9985
 21
0.0633899
 31
0.0
  0
LINE
  5
DA
330
1F
100
AcDbEntity
  8
SLD-0
 62
     1
100
AcDbLine
 10
29.9985
 20
0.0633899
 30
0.0
 11
28.1892
 21
0.151584
 31
0.0
  0
LINE
  5
DB
330
1F
100
AcDbEntity
  8
SLD-0
 62
     1
100
AcDbLine
 10
28.1892
 20
0.151584
 30
0.0
 11
25.1547
 21
0.602202
 31
0.0
  0
LINE
  5
DC
330
1F
100
AcDbEntity
  8
SLD-0
 62
     1
100
AcDbLine
 10
25.1547
 20
0.602202
 30
0.0
 11
23.6182
 21
0.986677
 31
0.0
  0
LINE
  5
DD
330
1F
100
AcDbEntity
  8
SLD-0
 62
     1
100
AcDbLine
 10
23.6182
 20
0.986677
 30
0.0
 11
23.2006
 21
1.09279
 31
0.0
  0
LINE
  5
DE
330
1F
100
AcDbEntity
  8
SLD-0
 62
     1
100
AcDbLine
 10
23.2006
 20
1.09279
 30
0.0
 11
22.1809
 21
1.34772
 31
0.0
  0
LINE
  5
DF
330
1F
100
AcDbEntity
  8
SLD-0
 62
     1
100
AcDbLine
 10
22.1809
 20
1.34772
 30
0.0
 11
20.2806
 21
2.02709
 31
0.0
  0
LINE
  5
E0
330
1F
100
AcDbEntity
  8
SLD-0
 62
     1
100
AcDbLine
 10
20.2806
 20
2.02709
 30
0.0
 11
19.2925
 21
2.38125
 31
0.0
  0
LINE
  5
E1
330
1F
100
AcDbEntity
  8
SLD-0
 62
     1
100
AcDbLine
 10
19.2925
 20
2.38125
 30
0.0
 11
17.468
 21
3.2439
 31
0.0
  0
LINE
  5
E2
330
1F
100
AcDbEntity
  8
SLD-0
 62
     1
100
AcDbLine
 10
17.468
 20
3.2439
 30
0.0
 11
16.5213
 21
3.69175
 31
0.0
  0
LINE
  5
E3
330
1F
100
AcDbEntity
  8
SLD-0
 62
     1
100
AcDbLine
 10
16.5213
 20
3.69175
 30
0.0
 11
14.7987
 21
4.72391
 31
0.0
  0
LINE
  5
E4
330
1F
100
AcDbEntity
  8
SLD-0
 62
     1
100
AcDbLine
 10
14.7987
 20
4.72391
 30
0.0
 11
13.8892
 21
5.26824
 31
0.0
  0
LINE
  5
E5
330
1F
100
AcDbEntity
  8
SLD-0
 62
     1
100
AcDbLine
 10
13.8892
 20
5.26824
 30
0.0
 11
11.4267
 21
7.09415
 31
0.0
  0
LINE
  5
E6
330
1F
100
AcDbEntity
  8
SLD-0
 62
     1
100
AcDbLine
 10
11.4267
 20
7.09415
 30
0.0
 11
9.1543
 21
9.1543
 31
0.0
  0
LINE
  5
E7
330
1F
100
AcDbEntity
  8
SLD-0
 62
     1
100
AcDbLine
 10
9.1543
 20
9.1543
 30
0.0
 11
7.23332
 21
11.2737
 31
0.0
  0
LINE
  5
E8
330
1F
100
AcDbEntity
  8
SLD-0
 62
     1
100
AcDbLine
 10
7.23332
 20
11.2737
 30
0.0
 11
7.09553
 21
11.4267
 31
0.0
  0
LINE
  5
E9
330
1F
100
AcDbEntity
  8
SLD-0
 62
     1
100
AcDbLine
 10
7.09553
 20
11.4267
 30
0.0
 11
5.26824
 21
13.8892
 31
0.0
  0
LINE
  5
EA
330
1F
100
AcDbEntity
  8
SLD-0
 62
     1
100
AcDbLine
 10
5.26824
 20
13.8892
 30
0.0
 11
3.69175
 21
16.5213
 31
0.0
  0
LINE
  5
EB
330
1F
100
AcDbEntity
  8
SLD-0
 62
     1
100
AcDbLine
 10
3.69175
 20
16.5213
 30
0.0
 11
2.38125
 21
19.2925
 31
0.0
  0
LINE
  5
EC
330
1F
100
AcDbEntity
  8
SLD-0
 62
     1
100
AcDbLine
 10
2.38125
 20
19.2925
 30
0.0
 11
2.12769
 21
20.0022
 31
0.0
  0
LINE
  5
ED
330
1F
100
AcDbEntity
  8
SLD-0
 62
     1
100
AcDbLine
 10
2.12769
 20
20.0022
 30
0.0
 11
1.70188
 21
21.1901
 31
0.0
  0
LINE
  5
EE
330
1F
100
AcDbEntity
  8
SLD-0
 62
     1
100
AcDbLine
 10
1.70188
 20
21.1901
 30
0.0
 11
1.34772
 21
22.1809
 31
0.0
  0
LINE
  5
EF
330
1F
100
AcDbEntity
  8
SLD-0
 62
     1
100
AcDbLine
 10
1.34772
 20
22.1809
 30
0.0
 11
0.602202
 21
25.1547
 31
0.0
  0
LINE
  5
F0
330
1F
100
AcDbEntity
  8
SLD-0
 62
     1
100
AcDbLine
 10
0.602202
 20
25.1547
 30
0.0
 11
0.151584
 21
28.1892
 31
0.0
  0
LINE
  5
F1
330
1F
100
AcDbEntity
  8
SLD-0
 62
     1
100
AcDbLine
 10
0.151584
 20
28.1892
 30
0.0
 11
0.00137804
 21
31.2511
 31
0.0
  0
LINE
  5
F2
330
1F
100
AcDbEntity
  8
SLD-0
 62
     1
100
AcDbLine
 10
0.00137804
 20
31.2511
 30
0.0
 11
0.151584
 21
34.3145
 31
0.0
  0
LINE
  5
F3
330
1F
100
AcDbEntity
  8
SLD-0
 62
     1
100
AcDbLine
 10
0.151584
 20
34.3145
 30
0.0
 11
0.458886
 21
36.3859
 31
0.0
  0
LINE
  5
F4
330
1F
100
AcDbEntity
  8
SLD-0
 62
     1
100
AcDbLine
 10
0.458886
 20
36.3859
 30
0.0
 11
0.602202
 21
37.3489
 31
0.0
  0
LINE
  5
F5
330
1F
100
AcDbEntity
  8
SLD-0
 62
     1
100
AcDbLine
 10
0.602202
 20
37.3489
 30
0.0
 11
1.34772
 21
40.3229
 31
0.0
  0
LINE
  5
F6
330
1F
100
AcDbEntity
  8
SLD-0
 62
     1
100
AcDbLine
 10
1.34772
 20
40.3229
 30
0.0
 11
2.38125
 21
43.211
 31
0.0
  0
LINE
  5
F7
330
1F
100
AcDbEntity
  8
SLD-0
 62
     1
100
AcDbLine
 10
2.38125
 20
43.211
 30
0.0
 11
3.69175
 21
45.9825
 31
0.0
  0
LINE
  5
F8
330
1F
100
AcDbEntity
  8
SLD-0
 62
     1
100
AcDbLine
 10
3.69175
 20
45.9825
 30
0.0
 11
5.26824
 21
48.6145
 31
0.0
  0
LINE
  5
F9
330
1F
100
AcDbEntity
  8
SLD-0
 62
     1
100
AcDbLine
 10
5.26824
 20
48.6145
 30
0.0
 11
7.09553
 21
51.0769
 31
0.0
  0
LINE
  5
FA
330
1F
100
AcDbEntity
  8
SLD-0
 62
     1
100
AcDbLine
 10
7.09553
 20
51.0769
 30
0.0
 11
7.23332
 21
51.23
 31
0.0
  0
LINE
  5
FB
330
1F
100
AcDbEntity
  8
SLD-0
 62
     1
100
AcDbLine
 10
7.23332
 20
51.23
 30
0.0
 11
8.62926
 21
52.7692
 31
0.0
  0
LINE
  5
FC
330
1F
100
AcDbEntity
  8
SLD-0
 62
     1
100
AcDbLine
 10
8.62926
 20
52.7692
 30
0.0
 11
9.1543
 21
53.3495
 31
0.0
  0
LINE
  5
FD
330
1F
100
AcDbEntity
  8
SLD-0
 62
     1
100
AcDbLine
 10
9.1543
 20
53.3495
 30
0.0
 11
11.4267
 21
55.4083
 31
0.0
  0
LINE
  5
FE
330
1F
100
AcDbEntity
  8
SLD-0
 62
     1
100
AcDbLine
 10
11.4267
 20
55.4083
 30
0.0
 11
13.8892
 21
57.2354
 31
0.0
  0
LINE
  5
FF
330
1F
100
AcDbEntity
  8
SLD-0
 62
     1
100
AcDbLine
 10
13.8892
 20
57.2354
 30
0.0
 11
16.5213
 21
58.8119
 31
0.0
  0
LINE
  5
100
330
1F
100
AcDbEntity
  8
SLD-0
 62
     1
100
AcDbLine
 10
16.5213
 20
58.8119
 30
0.0
 11
19.2925
 21
60.1225
 31
0.0
  0
LINE
  5
101
330
1F
100
AcDbEntity
  8
SLD-0
 62
     1
100
AcDbLine
 10
19.2925
 20
60.1225
 30
0.0
 11
22.1809
 21
61.1558
 31
0.0
  0
LINE
  5
102
330
1F
100
AcDbEntity
  8
SLD-0
 62
     1
100
AcDbLine
 10
22.1809
 20
61.1558
 30
0.0
 11
23.6182
 21
61.5156
 31
0.0
  0
LINE
  5
103
330
1F
100
AcDbEntity
  8
SLD-0
 62
     1
100
AcDbLine
 10
23.6182
 20
61.5156
 30
0.0
 11
24.1363
 21
61.6465
 31
0.0
  0
LINE
  5
104
330
1F
100
AcDbEntity
  8
SLD-0
 62
     1
100
AcDbLine
 10
24.1363
 20
61.6465
 30
0.0
 11
25.1547
 21
61.9016
 31
0.0
  0
LINE
  5
105
330
1F
100
AcDbEntity
  8
SLD-0
 62
     1
100
AcDbLine
 10
25.1547
 20
61.9016
 30
0.0
 11
28.1892
 21
62.3521
 31
0.0
  0
LINE
  5
106
330
1F
100
AcDbEntity
  8
SLD-0
 62
     1
100
AcDbLine
 10
28.1892
 20
62.3521
 30
0.0
 11
29.9985
 21
62.4403
 31
0.0
  0
LINE
  5
107
330
1F
100
AcDbEntity
  8
SLD-0
 62
     1
100
AcDbLine
 10
29.9985
 20
62.4403
 30
0.0
 11
31.2525
 21
62.5023
 31
0.0
  0
LINE
  5
108
330
1F
100
AcDbEntity
  8
SLD-0
 62
     1
100
AcDbLine
 10
31.2525
 20
62.5023
 30
0.0
 11
32.5038
 21
62.4403
 31
0.0
  0
LINE
  5
109
330
1F
100
AcDbEntity
  8
SLD-0
 62
     1
100
AcDbLine
 10
32.5038
 20
62.4403
 30
0.0
 11
34.3145
 21
62.3521
 31
0.0
  0
LINE
  5
10A
330
1F
100
AcDbEntity
  8
SLD-0
 62
     1
100
AcDbLine
 10
34.3145
 20
62.3521
 30
0.0
 11
37.3489
 21
61.9016
 31
0.0
  0
LINE
  5
10B
330
1F
100
AcDbEntity
  8
SLD-0
 62
     1
100
AcDbLine
 10
37.3489
 20
61.9016
 30
0.0
 11
40.0018
 21
61.2359
 31
0.0
  0
LINE
  5
10C
330
1F
100
AcDbEntity
  8
SLD-0
 62
     1
100
AcDbLine
 10
40.0018
 20
61.2359
 30
0.0
 11
40.3229
 21
61.1558
 31
0.0
  0
LINE
  5
10D
330
1F
100
AcDbEntity
  8
SLD-0
 62
     1
100
AcDbLine
 10
40.3229
 20
61.1558
 30
0.0
 11
43.211
 21
60.1225
 31
0.0
  0
LINE
  5
10E
330
1F
100
AcDbEntity
  8
SLD-0
 62
     1
100
AcDbLine
 10
43.211
 20
60.1225
 30
0.0
 11
45.9825
 21
58.8119
 31
0.0
  0
LINE
  5
10F
330
1F
100
AcDbEntity
  8
SLD-0
 62
     1
100
AcDbLine
 10
45.9825
 20
58.8119
 30
0.0
 11
48.6145
 21
57.2354
 31
0.0
  0
LINE
  5
110
330
1F
100
AcDbEntity
  8
SLD-0
 62
     1
100
AcDbLine
 10
48.6145
 20
57.2354
 30
0.0
 11
51.0769
 21
55.4083
 31
0.0
  0
LINE
  5
111
330
1F
100
AcDbEntity
  8
SLD-0
 62
     1
100
AcDbLine
 10
51.0769
 20
55.4083
 30
0.0
 11
53.3495
 21
53.3495
 31
0.0
  0
LINE
  5
112
330
1F
100
AcDbEntity
  8
SLD-0
 62
     1
100
AcDbLine
 10
106.948
 20
52.1974
 30
0.0
 11
105.738
 21
52.7692
 31
0.0
  0
LINE
  5
113
330
1F
100
AcDbEntity
  8
SLD-0
 62
     1
100
AcDbLine
 10
105.738
 20
52.7692
 30
0.0
 11
105.538
 21
52.8645
 31
0.0
  0
LINE
  5
114
330
1F
100
AcDbEntity
  8
SLD-0
 62
     1
100
AcDbLine
 10
105.538
 20
52.8645
 30
0.0
 11
104.841
 21
53.1936
 31
0.0
  0
LINE
  5
115
330
1F
100
AcDbEntity
  8
SLD-0
 62
     1
100
AcDbLine
 10
104.841
 20
53.1936
 30
0.0
 11
102.646
 21
53.9792
 31
0.0
  0
LINE
  5
116
330
1F
100
AcDbEntity
  8
SLD-0
 62
     1
100
AcDbLine
 10
102.646
 20
53.9792
 30
0.0
 11
100.385
 21
54.5454
 31
0.0
  0
LINE
  5
117
330
1F
100
AcDbEntity
  8
SLD-0
 62
     1
100
AcDbLine
 10
100.385
 20
54.5454
 30
0.0
 11
98.0803
 21
54.8873
 31
0.0
  0
LINE
  5
118
330
1F
100
AcDbEntity
  8
SLD-0
 62
     1
100
AcDbLine
 10
98.0803
 20
54.8873
 30
0.0
 11
95.7516
 21
55.0016
 31
0.0
  0
LINE
  5
119
330
1F
100
AcDbEntity
  8
SLD-0
 62
     1
100
AcDbLine
 10
95.7516
 20
55.0016
 30
0.0
 11
93.424
 21
54.8873
 31
0.0
  0
LINE
  5
11A
330
1F
100
AcDbEntity
  8
SLD-0
 62
     1
100
AcDbLine
 10
93.424
 20
54.8873
 30
0.0
 11
91.1186
 21
54.5454
 31
0.0
  0
LINE
  5
11B
330
1F
100
AcDbEntity
  8
SLD-0
 62
     1
100
AcDbLine
 10
91.1186
 20
54.5454
 30
0.0
 11
89.1536
 21
54.0537
 31
0.0
  0
LINE
  5
11C
330
1F
100
AcDbEntity
  8
SLD-0
 62
     1
100
AcDbLine
 10
89.1536
 20
54.0537
 30
0.0
 11
88.8573
 21
53.9792
 31
0.0
  0
LINE
  5
11D
330
1F
100
AcDbEntity
  8
SLD-0
 62
     1
100
AcDbLine
 10
88.8573
 20
53.9792
 30
0.0
 11
86.6634
 21
53.1936
 31
0.0
  0
LINE
  5
11E
330
1F
100
AcDbEntity
  8
SLD-0
 62
     1
100
AcDbLine
 10
86.6634
 20
53.1936
 30
0.0
 11
85.7663
 21
52.7692
 31
0.0
  0
LINE
  5
11F
330
1F
100
AcDbEntity
  8
SLD-0
 62
     1
100
AcDbLine
 10
85.7663
 20
52.7692
 30
0.0
 11
84.5566
 21
52.1974
 31
0.0
  0
LINE
  5
120
330
1F
100
AcDbEntity
  8
SLD-0
 62
     1
100
AcDbLine
 10
84.5566
 20
52.1974
 30
0.0
 11
82.5571
 21
50.9986
 31
0.0
  0
LINE
  5
121
330
1F
100
AcDbEntity
  8
SLD-0
 62
     1
100
AcDbLine
 10
82.5571
 20
50.9986
 30
0.0
 11
80.6856
 21
49.6108
 31
0.0
  0
LINE
  5
122
330
1F
100
AcDbEntity
  8
SLD-0
 62
     1
100
AcDbLine
 10
80.6856
 20
49.6108
 30
0.0
 11
78.9573
 21
48.0452
 31
0.0
  0
LINE
  5
123
330
1F
100
AcDbEntity
  8
SLD-0
 62
     1
100
AcDbLine
 10
78.9573
 20
48.0452
 30
0.0
 11
77.3934
 21
46.3187
 31
0.0
  0
LINE
  5
124
330
1F
100
AcDbEntity
  8
SLD-0
 62
     1
100
AcDbLine
 10
77.3934
 20
46.3187
 30
0.0
 11
76.0042
 21
44.4472
 31
0.0
  0
LINE
  5
125
330
1F
100
AcDbEntity
  8
SLD-0
 62
     1
100
AcDbLine
 10
76.0042
 20
44.4472
 30
0.0
 11
74.8055
 21
42.4476
 31
0.0
  0
LINE
  5
126
330
1F
100
AcDbEntity
  8
SLD-0
 62
     1
100
AcDbLine
 10
74.8055
 20
42.4476
 30
0.0
 11
73.8106
 21
40.3408
 31
0.0
  0
LINE
  5
127
330
1F
100
AcDbEntity
  8
SLD-0
 62
     1
100
AcDbLine
 10
73.8106
 20
40.3408
 30
0.0
 11
73.025
 21
38.1455
 31
0.0
  0
LINE
  5
128
330
1F
100
AcDbEntity
  8
SLD-0
 62
     1
100
AcDbLine
 10
73.025
 20
38.1455
 30
0.0
 11
72.7699
 21
37.1285
 31
0.0
  0
LINE
  5
129
330
1F
100
AcDbEntity
  8
SLD-0
 62
     1
100
AcDbLine
 10
72.7699
 20
37.1285
 30
0.0
 11
72.584
 21
36.3859
 31
0.0
  0
LINE
  5
12A
330
1F
100
AcDbEntity
  8
SLD-0
 62
     1
100
AcDbLine
 10
72.584
 20
36.3859
 30
0.0
 11
72.4574
 21
35.8842
 31
0.0
  0
LINE
  5
12B
330
1F
100
AcDbEntity
  8
SLD-0
 62
     1
100
AcDbLine
 10
72.4574
 20
35.8842
 30
0.0
 11
72.1155
 21
33.58
 31
0.0
  0
LINE
  5
12C
330
1F
100
AcDbEntity
  8
SLD-0
 62
     1
100
AcDbLine
 10
72.1155
 20
33.58
 30
0.0
 11
72.0027
 21
31.2511
 31
0.0
  0
LINE
  5
12D
330
1F
100
AcDbEntity
  8
SLD-0
 62
     1
100
AcDbLine
 10
72.0027
 20
31.2511
 30
0.0
 11
72.1155
 21
28.9236
 31
0.0
  0
LINE
  5
12E
330
1F
100
AcDbEntity
  8
SLD-0
 62
     1
100
AcDbLine
 10
72.1155
 20
28.9236
 30
0.0
 11
72.4574
 21
26.6182
 31
0.0
  0
LINE
  5
12F
330
1F
100
AcDbEntity
  8
SLD-0
 62
     1
100
AcDbLine
 10
72.4574
 20
26.6182
 30
0.0
 11
72.7699
 21
25.3752
 31
0.0
  0
LINE
  5
130
330
1F
100
AcDbEntity
  8
SLD-0
 62
     1
100
AcDbLine
 10
72.7699
 20
25.3752
 30
0.0
 11
73.025
 21
24.3582
 31
0.0
  0
LINE
  5
131
330
1F
100
AcDbEntity
  8
SLD-0
 62
     1
100
AcDbLine
 10
73.025
 20
24.3582
 30
0.0
 11
73.8106
 21
22.163
 31
0.0
  0
LINE
  5
132
330
1F
100
AcDbEntity
  8
SLD-0
 62
     1
100
AcDbLine
 10
73.8106
 20
22.163
 30
0.0
 11
74.8055
 21
20.056
 31
0.0
  0
LINE
  5
133
330
1F
100
AcDbEntity
  8
SLD-0
 62
     1
100
AcDbLine
 10
74.8055
 20
20.056
 30
0.0
 11
74.8386
 21
20.0022
 31
0.0
  0
LINE
  5
134
330
1F
100
AcDbEntity
  8
SLD-0
 62
     1
100
AcDbLine
 10
74.8386
 20
20.0022
 30
0.0
 11
76.0042
 21
18.0564
 31
0.0
  0
LINE
  5
135
330
1F
100
AcDbEntity
  8
SLD-0
 62
     1
100
AcDbLine
 10
76.0042
 20
18.0564
 30
0.0
 11
77.3934
 21
16.1851
 31
0.0
  0
LINE
  5
136
330
1F
100
AcDbEntity
  8
SLD-0
 62
     1
100
AcDbLine
 10
77.3934
 20
16.1851
 30
0.0
 11
78.9573
 21
14.4584
 31
0.0
  0
LINE
  5
137
330
1F
100
AcDbEntity
  8
SLD-0
 62
     1
100
AcDbLine
 10
78.9573
 20
14.4584
 30
0.0
 11
80.6856
 21
12.8929
 31
0.0
  0
LINE
  5
138
330
1F
100
AcDbEntity
  8
SLD-0
 62
     1
100
AcDbLine
 10
80.6856
 20
12.8929
 30
0.0
 11
82.5571
 21
11.5052
 31
0.0
  0
LINE
  5
139
330
1F
100
AcDbEntity
  8
SLD-0
 62
     1
100
AcDbLine
 10
82.5571
 20
11.5052
 30
0.0
 11
84.5566
 21
10.3063
 31
0.0
  0
LINE
  5
13A
330
1F
100
AcDbEntity
  8
SLD-0
 62
     1
100
AcDbLine
 10
84.5566
 20
10.3063
 30
0.0
 11
86.6634
 21
9.31002
 31
0.0
  0
LINE
  5
13B
330
1F
100
AcDbEntity
  8
SLD-0
 62
     1
100
AcDbLine
 10
86.6634
 20
9.31002
 30
0.0
 11
88.8573
 21
8.52456
 31
0.0
  0
LINE
  5
13C
330
1F
100
AcDbEntity
  8
SLD-0
 62
     1
100
AcDbLine
 10
88.8573
 20
8.52456
 30
0.0
 11
89.1536
 21
8.45012
 31
0.0
  0
LINE
  5
13D
330
1F
100
AcDbEntity
  8
SLD-0
 62
     1
100
AcDbLine
 10
89.1536
 20
8.45012
 30
0.0
 11
91.1186
 21
7.95817
 31
0.0
  0
LINE
  5
13E
330
1F
100
AcDbEntity
  8
SLD-0
 62
     1
100
AcDbLine
 10
91.1186
 20
7.95817
 30
0.0
 11
93.424
 21
7.6164
 31
0.0
  0
LINE
  5
13F
330
1F
100
AcDbEntity
  8
SLD-0
 62
     1
100
AcDbLine
 10
93.424
 20
7.6164
 30
0.0
 11
95.7516
 21
7.50203
 31
0.0
  0
LINE
  5
140
330
1F
100
AcDbEntity
  8
SLD-0
 62
     1
100
AcDbLine
 10
95.7516
 20
7.50203
 30
0.0
 11
98.0048
 21
7.61227
 31
0.0
  0
LINE
  5
141
330
1F
100
AcDbEntity
  8
SLD-0
 62
     1
100
AcDbLine
 10
98.0048
 20
7.61227
 30
0.0
 11
98.0803
 21
7.6164
 31
0.0
  0
LINE
  5
142
330
1F
100
AcDbEntity
  8
SLD-0
 62
     1
100
AcDbLine
 10
98.0803
 20
7.6164
 30
0.0
 11
100.385
 21
7.95817
 31
0.0
  0
LINE
  5
143
330
1F
100
AcDbEntity
  8
SLD-0
 62
     1
100
AcDbLine
 10
100.385
 20
7.95817
 30
0.0
 11
102.646
 21
8.52456
 31
0.0
  0
LINE
  5
144
330
1F
100
AcDbEntity
  8
SLD-0
 62
     1
100
AcDbLine
 10
102.646
 20
8.52456
 30
0.0
 11
104.841
 21
9.31002
 31
0.0
  0
LINE
  5
145
330
1F
100
AcDbEntity
  8
SLD-0
 62
     1
100
AcDbLine
 10
104.841
 20
9.31002
 30
0.0
 11
105.538
 21
9.63937
 31
0.0
  0
LINE
  5
146
330
1F
100
AcDbEntity
  8
SLD-0
 62
     1
100
AcDbLine
 10
105.538
 20
9.63937
 30
0.0
 11
106.948
 21
10.3063
 31
0.0
  0
LINE
  5
147
330
1F
100
AcDbEntity
  8
SLD-0
 62
     1
100
AcDbLine
 10
106.948
 20
10.3063
 30
0.0
 11
108.946
 21
11.5052
 31
0.0
  0
LINE
  5
148
330
1F
100
AcDbEntity
  8
SLD-0
 62
     1
100
AcDbLine
 10
108.946
 20
11.5052
 30
0.0
 11
110.819
 21
12.8929
 31
0.0
  0
LINE
  5
149
330
1F
100
AcDbEntity
  8
SLD-0
 62
     1
100
AcDbLine
 10
110.819
 20
12.8929
 30
0.0
 11
112.546
 21
14.4584
 31
0.0
  0
LINE
  5
14A
330
1F
100
AcDbEntity
  8
SLD-0
 62
     1
100
AcDbLine
 10
112.546
 20
14.4584
 30
0.0
 11
114.111
 21
16.1851
 31
0.0
  0
LINE
  5
14B
330
1F
100
AcDbEntity
  8
SLD-0
 62
     1
100
AcDbLine
 10
114.111
 20
16.1851
 30
0.0
 11
115.499
 21
18.0564
 31
0.0
  0
LINE
  5
14C
330
1F
100
AcDbEntity
  8
SLD-0
 62
     1
100
AcDbLine
 10
115.499
 20
18.0564
 30
0.0
 11
116.666
 21
20.0022
 31
0.0
  0
LINE
  5
14D
330
1F
100
AcDbEntity
  8
SLD-0
 62
     1
100
AcDbLine
 10
116.666
 20
20.0022
 30
0.0
 11
116.698
 21
20.056
 31
0.0
  0
LINE
  5
14E
330
1F
100
AcDbEntity
  8
SLD-0
 62
     1
100
AcDbLine
 10
116.698
 20
20.056
 30
0.0
 11
117.694
 21
22.163
 31
0.0
  0
LINE
  5
14F
330
1F
100
AcDbEntity
  8
SLD-0
 62
     1
100
AcDbLine
 10
117.694
 20
22.163
 30
0.0
 11
118.478
 21
24.3582
 31
0.0
  0
LINE
  5
150
330
1F
100
AcDbEntity
  8
SLD-0
 62
     1
100
AcDbLine
 10
118.478
 20
24.3582
 30
0.0
 11
119.046
 21
26.6182
 31
0.0
  0
LINE
  5
151
330
1F
100
AcDbEntity
  8
SLD-0
 62
     1
100
AcDbLine
 10
119.046
 20
26.6182
 30
0.0
 11
119.388
 21
28.9236
 31
0.0
  0
LINE
  5
152
330
1F
100
AcDbEntity
  8
SLD-0
 62
     1
100
AcDbLine
 10
119.388
 20
28.9236
 30
0.0
 11
119.502
 21
31.2511
 31
0.0
  0
LINE
  5
153
330
1F
100
AcDbEntity
  8
SLD-0
 62
     1
100
AcDbLine
 10
119.502
 20
31.2511
 30
0.0
 11
119.388
 21
33.58
 31
0.0
  0
LINE
  5
154
330
1F
100
AcDbEntity
  8
SLD-0
 62
     1
100
AcDbLine
 10
119.388
 20
33.58
 30
0.0
 11
119.046
 21
35.8842
 31
0.0
  0
LINE
  5
155
330
1F
100
AcDbEntity
  8
SLD-0
 62
     1
100
AcDbLine
 10
119.046
 20
35.8842
 30
0.0
 11
118.921
 21
36.3859
 31
0.0
  0
LINE
  5
156
330
1F
100
AcDbEntity
  8
SLD-0
 62
     1
100
AcDbLine
 10
118.921
 20
36.3859
 30
0.0
 11
118.478
 21
38.1455
 31
0.0
  0
LINE
  5
157
330
1F
100
AcDbEntity
  8
SLD-0
 62
     1
100
AcDbLine
 10
118.478
 20
38.1455
 30
0.0
 11
117.694
 21
40.3408
 31
0.0
  0
LINE
  5
158
330
1F
100
AcDbEntity
  8
SLD-0
 62
     1
100
AcDbLine
 10
117.694
 20
40.3408
 30
0.0
 11
116.698
 21
42.4476
 31
0.0
  0
LINE
  5
159
330
1F
100
AcDbEntity
  8
SLD-0
 62
     1
100
AcDbLine
 10
116.698
 20
42.4476
 30
0.0
 11
115.499
 21
44.4472
 31
0.0
  0
LINE
  5
15A
330
1F
100
AcDbEntity
  8
SLD-0
 62
     1
100
AcDbLine
 10
115.499
 20
44.4472
 30
0.0
 11
114.111
 21
46.3187
 31
0.0
  0
LINE
  5
15B
330
1F
100
AcDbEntity
  8
SLD-0
 62
     1
100
AcDbLine
 10
114.111
 20
46.3187
 30
0.0
 11
112.546
 21
48.0452
 31
0.0
  0
LINE
  5
15C
330
1F
100
AcDbEntity
  8
SLD-0
 62
     1
100
AcDbLine
 10
112.546
 20
48.0452
 30
0.0
 11
110.819
 21
49.6108
 31
0.0
  0
LINE
  5
15D
330
1F
100
AcDbEntity
  8
SLD-0
 62
     1
100
AcDbLine
 10
110.819
 20
49.6108
 30
0.0
 11
108.946
 21
50.9986
 31
0.0
  0
LINE
  5
15E
330
1F
100
AcDbEntity
  8
SLD-0
 62
     1
100
AcDbLine
 10
108.946
 20
50.9986
 30
0.0
 11
106.948
 21
52.1974
 31
0.0
  0
LINE
  5
15F
330
1F
100
AcDbEntity
  8
SLD-0
 62
     1
100
AcDbLine
 10
95.7104
 20
58.0842
 30
0.0
 11
96.2519
 21
58.0002
 31
0.0
  0
LINE
  5
160
330
1F
100
AcDbEntity
  8
SLD-0
 62
     1
100
AcDbLine
 10
96.2519
 20
58.0002
 30
0.0
 11
96.7934
 21
58.0842
 31
0.0
  0
LINE
  5
161
330
1F
100
AcDbEntity
  8
SLD-0
 62
     1
100
AcDbLine
 10
96.7934
 20
58.0842
 30
0.0
 11
97.2813
 21
58.3336
 31
0.0
  0
LINE
  5
162
330
1F
100
AcDbEntity
  8
SLD-0
 62
     1
100
AcDbLine
 10
97.2813
 20
58.3336
 30
0.0
 11
97.3459
 21
58.3971
 31
0.0
  0
LINE
  5
163
330
1F
100
AcDbEntity
  8
SLD-0
 62
     1
100
AcDbLine
 10
97.3459
 20
58.3971
 30
0.0
 11
97.6697
 21
58.7223
 31
0.0
  0
LINE
  5
164
330
1F
100
AcDbEntity
  8
SLD-0
 62
     1
100
AcDbLine
 10
97.6697
 20
58.7223
 30
0.0
 11
97.9191
 21
59.2102
 31
0.0
  0
LINE
  5
165
330
1F
100
AcDbEntity
  8
SLD-0
 62
     1
100
AcDbLine
 10
97.9191
 20
59.2102
 30
0.0
 11
98.0048
 21
59.7517
 31
0.0
  0
LINE
  5
166
330
1F
100
AcDbEntity
  8
SLD-0
 62
     1
100
AcDbLine
 10
98.0048
 20
59.7517
 30
0.0
 11
97.9191
 21
60.2933
 31
0.0
  0
LINE
  5
167
330
1F
100
AcDbEntity
  8
SLD-0
 62
     1
100
AcDbLine
 10
97.9191
 20
60.2933
 30
0.0
 11
97.6697
 21
60.7811
 31
0.0
  0
LINE
  5
168
330
1F
100
AcDbEntity
  8
SLD-0
 62
     1
100
AcDbLine
 10
97.6697
 20
60.7811
 30
0.0
 11
97.2813
 21
61.1699
 31
0.0
  0
LINE
  5
169
330
1F
100
AcDbEntity
  8
SLD-0
 62
     1
100
AcDbLine
 10
97.2813
 20
61.1699
 30
0.0
 11
96.7934
 21
61.4193
 31
0.0
  0
LINE
  5
16A
330
1F
100
AcDbEntity
  8
SLD-0
 62
     1
100
AcDbLine
 10
96.7934
 20
61.4193
 30
0.0
 11
96.2519
 21
61.5047
 31
0.0
  0
LINE
  5
16B
330
1F
100
AcDbEntity
  8
SLD-0
 62
     1
100
AcDbLine
 10
96.2519
 20
61.5047
 30
0.0
 11
95.7104
 21
61.4193
 31
0.0
  0
LINE
  5
16C
330
1F
100
AcDbEntity
  8
SLD-0
 62
     1
100
AcDbLine
 10
95.7104
 20
61.4193
 30
0.0
 11
95.2225
 21
61.1699
 31
0.0
  0
LINE
  5
16D
330
1F
100
AcDbEntity
  8
SLD-0
 62
     1
100
AcDbLine
 10
95.2225
 20
61.1699
 30
0.0
 11
94.8337
 21
60.7811
 31
0.0
  0
LINE
  5
16E
330
1F
100
AcDbEntity
  8
SLD-0
 62
     1
100
AcDbLine
 10
94.8337
 20
60.7811
 30
0.0
 11
94.5843
 21
60.2933
 31
0.0
  0
LINE
  5
16F
330
1F
100
AcDbEntity
  8
SLD-0
 62
     1
100
AcDbLine
 10
94.5843
 20
60.2933
 30
0.0
 11
94.5003
 21
59.7517
 31
0.0
  0
LINE
  5
170
330
1F
100
AcDbEntity
  8
SLD-0
 62
     1
100
AcDbLine
 10
94.5003
 20
59.7517
 30
0.0
 11
94.5843
 21
59.2102
 31
0.0
  0
LINE
  5
171
330
1F
100
AcDbEntity
  8
SLD-0
 62
     1
100
AcDbLine
 10
94.5843
 20
59.2102
 30
0.0
 11
94.8337
 21
58.7223
 31
0.0
  0
LINE
  5
172
330
1F
100
AcDbEntity
  8
SLD-0
 62
     1
100
AcDbLine
 10
94.8337
 20
58.7223
 30
0.0
 11
95.2225
 21
58.3336
 31
0.0
  0
LINE
  5
173
330
1F
100
AcDbEntity
  8
SLD-0
 62
     1
100
AcDbLine
 10
95.2225
 20
58.3336
 30
0.0
 11
95.7104
 21
58.0842
 31
0.0
  0
LINE
  5
174
330
1F
100
AcDbEntity
  8
SLD-0
 62
     1
100
AcDbLine
 10
95.7104
 20
1.08452
 30
0.0
 11
96.2519
 21
0.999077
 31
0.0
  0
LINE
  5
175
330
1F
100
AcDbEntity
  8
SLD-0
 62
     1
100
AcDbLine
 10
96.2519
 20
0.999077
 30
0.0
 11
96.7934
 21
1.08452
 31
0.0
  0
LINE
  5
176
330
1F
100
AcDbEntity
  8
SLD-0
 62
     1
100
AcDbLine
 10
96.7934
 20
1.08452
 30
0.0
 11
97.2813
 21
1.33394
 31
0.0
  0
LINE
  5
177
330
1F
100
AcDbEntity
  8
SLD-0
 62
     1
100
AcDbLine
 10
97.2813
 20
1.33394
 30
0.0
 11
97.6697
 21
1.72117
 31
0.0
  0
LINE
  5
178
330
1F
100
AcDbEntity
  8
SLD-0
 62
     1
100
AcDbLine
 10
97.6697
 20
1.72117
 30
0.0
 11
97.9191
 21
2.21037
 31
0.0
  0
LINE
  5
179
330
1F
100
AcDbEntity
  8
SLD-0
 62
     1
100
AcDbLine
 10
97.9191
 20
2.21037
 30
0.0
 11
98.0048
 21
2.75194
 31
0.0
  0
LINE
  5
17A
330
1F
100
AcDbEntity
  8
SLD-0
 62
     1
100
AcDbLine
 10
98.0048
 20
2.75194
 30
0.0
 11
97.9191
 21
3.29351
 31
0.0
  0
LINE
  5
17B
330
1F
100
AcDbEntity
  8
SLD-0
 62
     1
100
AcDbLine
 10
97.9191
 20
3.29351
 30
0.0
 11
97.754
 21
3.61735
 31
0.0
  0
LINE
  5
17C
330
1F
100
AcDbEntity
  8
SLD-0
 62
     1
100
AcDbLine
 10
97.754
 20
3.61735
 30
0.0
 11
97.6697
 21
3.78135
 31
0.0
  0
LINE
  5
17D
330
1F
100
AcDbEntity
  8
SLD-0
 62
     1
100
AcDbLine
 10
97.6697
 20
3.78135
 30
0.0
 11
97.2813
 21
4.16994
 31
0.0
  0
LINE
  5
17E
330
1F
100
AcDbEntity
  8
SLD-0
 62
     1
100
AcDbLine
 10
97.2813
 20
4.16994
 30
0.0
 11
96.7934
 21
4.41935
 31
0.0
  0
LINE
  5
17F
330
1F
100
AcDbEntity
  8
SLD-0
 62
     1
100
AcDbLine
 10
96.7934
 20
4.41935
 30
0.0
 11
96.2519
 21
4.50342
 31
0.0
  0
LINE
  5
180
330
1F
100
AcDbEntity
  8
SLD-0
 62
     1
100
AcDbLine
 10
96.2519
 20
4.50342
 30
0.0
 11
95.7104
 21
4.41935
 31
0.0
  0
LINE
  5
181
330
1F
100
AcDbEntity
  8
SLD-0
 62
     1
100
AcDbLine
 10
95.7104
 20
4.41935
 30
0.0
 11
95.2225
 21
4.16994
 31
0.0
  0
LINE
  5
182
330
1F
100
AcDbEntity
  8
SLD-0
 62
     1
100
AcDbLine
 10
95.2225
 20
4.16994
 30
0.0
 11
94.8337
 21
3.78135
 31
0.0
  0
LINE
  5
183
330
1F
100
AcDbEntity
  8
SLD-0
 62
     1
100
AcDbLine
 10
94.8337
 20
3.78135
 30
0.0
 11
94.7498
 21
3.61735
 31
0.0
  0
LINE
  5
184
330
1F
100
AcDbEntity
  8
SLD-0
 62
     1
100
AcDbLine
 10
94.7498
 20
3.61735
 30
0.0
 11
94.5843
 21
3.29351
 31
0.0
  0
LINE
  5
185
330
1F
100
AcDbEntity
  8
SLD-0
 62
     1
100
AcDbLine
 10
94.5843
 20
3.29351
 30
0.0
 11
94.5003
 21
2.75194
 31
0.0
  0
LINE
  5
186
330
1F
100
AcDbEntity
  8
SLD-0
 62
     1
100
AcDbLine
 10
94.5003
 20
2.75194
 30
0.0
 11
94.5843
 21
2.21037
 31
0.0
  0
LINE
  5
187
330
1F
100
AcDbEntity
  8
SLD-0
 62
     1
100
AcDbLine
 10
94.5843
 20
2.21037
 30
0.0
 11
94.8337
 21
1.72117
 31
0.0
  0
LINE
  5
188
330
1F
100
AcDbEntity
  8
SLD-0
 62
     1
100
AcDbLine
 10
94.8337
 20
1.72117
 30
0.0
 11
95.2225
 21
1.33394
 31
0.0
  0
LINE
  5
189
330
1F
100
AcDbEntity
  8
SLD-0
 62
     1
100
AcDbLine
 10
95.2225
 20
1.33394
 30
0.0
 11
95.7104
 21
1.08452
 31
0.0
  0
LINE
  5
18A
330
1F
100
AcDbEntity
  8
SLD-0
 62
     1
100
AcDbLine
 10
41.2972
 20
55.5032
 30
0.0
 11
40.0018
 21
55.9675
 31
0.0
  0
LINE
  5
18B
330
1F
100
AcDbEntity
  8
SLD-0
 62
     1
100
AcDbLine
 10
40.0018
 20
55.9675
 30
0.0
 11
38.8719
 21
56.3714
 31
0.0
  0
LINE
  5
18C
330
1F
100
AcDbEntity
  8
SLD-0
 62
     1
100
AcDbLine
 10
38.8719
 20
56.3714
 30
0.0
 11
36.3732
 21
56.9983
 31
0.0
  0
LINE
  5
18D
330
1F
100
AcDbEntity
  8
SLD-0
 62
     1
100
AcDbLine
 10
36.3732
 20
56.9983
 30
0.0
 11
33.8253
 21
57.3761
 31
0.0
  0
LINE
  5
18E
330
1F
100
AcDbEntity
  8
SLD-0
 62
     1
100
AcDbLine
 10
33.8253
 20
57.3761
 30
0.0
 11
31.2525
 21
57.5014
 31
0.0
  0
LINE
  5
18F
330
1F
100
AcDbEntity
  8
SLD-0
 62
     1
100
AcDbLine
 10
31.2525
 20
57.5014
 30
0.0
 11
28.6784
 21
57.3761
 31
0.0
  0
LINE
  5
190
330
1F
100
AcDbEntity
  8
SLD-0
 62
     1
100
AcDbLine
 10
28.6784
 20
57.3761
 30
0.0
 11
26.1304
 21
56.9983
 31
0.0
  0
LINE
  5
191
330
1F
100
AcDbEntity
  8
SLD-0
 62
     1
100
AcDbLine
 10
26.1304
 20
56.9983
 30
0.0
 11
23.632
 21
56.3714
 31
0.0
  0
LINE
  5
192
330
1F
100
AcDbEntity
  8
SLD-0
 62
     1
100
AcDbLine
 10
23.632
 20
56.3714
 30
0.0
 11
23.6182
 21
56.3672
 31
0.0
  0
LINE
  5
193
330
1F
100
AcDbEntity
  8
SLD-0
 62
     1
100
AcDbLine
 10
23.6182
 20
56.3672
 30
0.0
 11
21.2066
 21
55.5032
 31
0.0
  0
LINE
  5
194
330
1F
100
AcDbEntity
  8
SLD-0
 62
     1
100
AcDbLine
 10
21.2066
 20
55.5032
 30
0.0
 11
18.8777
 21
54.4022
 31
0.0
  0
LINE
  5
195
330
1F
100
AcDbEntity
  8
SLD-0
 62
     1
100
AcDbLine
 10
18.8777
 20
54.4022
 30
0.0
 11
16.6674
 21
53.0779
 31
0.0
  0
LINE
  5
196
330
1F
100
AcDbEntity
  8
SLD-0
 62
     1
100
AcDbLine
 10
16.6674
 20
53.0779
 30
0.0
 11
16.2526
 21
52.7692
 31
0.0
  0
LINE
  5
197
330
1F
100
AcDbEntity
  8
SLD-0
 62
     1
100
AcDbLine
 10
16.2526
 20
52.7692
 30
0.0
 11
14.5989
 21
51.544
 31
0.0
  0
LINE
  5
198
330
1F
100
AcDbEntity
  8
SLD-0
 62
     1
100
AcDbLine
 10
14.5989
 20
51.544
 30
0.0
 11
12.6904
 21
49.8133
 31
0.0
  0
LINE
  5
199
330
1F
100
AcDbEntity
  8
SLD-0
 62
     1
100
AcDbLine
 10
12.6904
 20
49.8133
 30
0.0
 11
10.9595
 21
47.9048
 31
0.0
  0
LINE
  5
19A
330
1F
100
AcDbEntity
  8
SLD-0
 62
     1
100
AcDbLine
 10
10.9595
 20
47.9048
 30
0.0
 11
9.4258
 21
45.8364
 31
0.0
  0
LINE
  5
19B
330
1F
100
AcDbEntity
  8
SLD-0
 62
     1
100
AcDbLine
 10
9.4258
 20
45.8364
 30
0.0
 11
8.10147
 21
43.6259
 31
0.0
  0
LINE
  5
19C
330
1F
100
AcDbEntity
  8
SLD-0
 62
     1
100
AcDbLine
 10
8.10147
 20
43.6259
 30
0.0
 11
7.23332
 21
41.7918
 31
0.0
  0
LINE
  5
19D
330
1F
100
AcDbEntity
  8
SLD-0
 62
     1
100
AcDbLine
 10
7.23332
 20
41.7918
 30
0.0
 11
7.00045
 21
41.2972
 31
0.0
  0
LINE
  5
19E
330
1F
100
AcDbEntity
  8
SLD-0
 62
     1
100
AcDbLine
 10
7.00045
 20
41.2972
 30
0.0
 11
6.13227
 21
38.8719
 31
0.0
  0
LINE
  5
19F
330
1F
100
AcDbEntity
  8
SLD-0
 62
     1
100
AcDbLine
 10
6.13227
 20
38.8719
 30
0.0
 11
5.5094
 21
36.3859
 31
0.0
  0
LINE
  5
1A0
330
1F
100
AcDbEntity
  8
SLD-0
 62
     1
100
AcDbLine
 10
5.5094
 20
36.3859
 30
0.0
 11
5.50527
 21
36.3732
 31
0.0
  0
LINE
  5
1A1
330
1F
100
AcDbEntity
  8
SLD-0
 62
     1
100
AcDbLine
 10
5.50527
 20
36.3732
 30
0.0
 11
5.1277
 21
33.8253
 31
0.0
  0
LINE
  5
1A2
330
1F
100
AcDbEntity
  8
SLD-0
 62
     1
100
AcDbLine
 10
5.1277
 20
33.8253
 30
0.0
 11
5.00228
 21
31.2511
 31
0.0
  0
LINE
  5
1A3
330
1F
100
AcDbEntity
  8
SLD-0
 62
     1
100
AcDbLine
 10
5.00228
 20
31.2511
 30
0.0
 11
5.1277
 21
28.6784
 31
0.0
  0
LINE
  5
1A4
330
1F
100
AcDbEntity
  8
SLD-0
 62
     1
100
AcDbLine
 10
5.1277
 20
28.6784
 30
0.0
 11
5.50527
 21
26.1304
 31
0.0
  0
LINE
  5
1A5
330
1F
100
AcDbEntity
  8
SLD-0
 62
     1
100
AcDbLine
 10
5.50527
 20
26.1304
 30
0.0
 11
6.13227
 21
23.632
 31
0.0
  0
LINE
  5
1A6
330
1F
100
AcDbEntity
  8
SLD-0
 62
     1
100
AcDbLine
 10
6.13227
 20
23.632
 30
0.0
 11
7.00045
 21
21.2066
 31
0.0
  0
LINE
  5
1A7
330
1F
100
AcDbEntity
  8
SLD-0
 62
     1
100
AcDbLine
 10
7.00045
 20
21.2066
 30
0.0
 11
7.23332
 21
20.7119
 31
0.0
  0
LINE
  5
1A8
330
1F
100
AcDbEntity
  8
SLD-0
 62
     1
100
AcDbLine
 10
7.23332
 20
20.7119
 30
0.0
 11
7.56955
 21
20.0022
 31
0.0
  0
LINE
  5
1A9
330
1F
100
AcDbEntity
  8
SLD-0
 62
     1
100
AcDbLine
 10
7.56955
 20
20.0022
 30
0.0
 11
8.10147
 21
18.8777
 31
0.0
  0
LINE
  5
1AA
330
1F
100
AcDbEntity
  8
SLD-0
 62
     1
100
AcDbLine
 10
8.10147
 20
18.8777
 30
0.0
 11
9.4258
 21
16.6674
 31
0.0
  0
LINE
  5
1AB
330
1F
100
AcDbEntity
  8
SLD-0
 62
     1
100
AcDbLine
 10
9.4258
 20
16.6674
 30
0.0
 11
10.9595
 21
14.5989
 31
0.0
  0
LINE
  5
1AC
330
1F
100
AcDbEntity
  8
SLD-0
 62
     1
100
AcDbLine
 10
10.9595
 20
14.5989
 30
0.0
 11
12.6904
 21
12.6904
 31
0.0
  0
LINE
  5
1AD
330
1F
100
AcDbEntity
  8
SLD-0
 62
     1
100
AcDbLine
 10
12.6904
 20
12.6904
 30
0.0
 11
14.5989
 21
10.9595
 31
0.0
  0
LINE
  5
1AE
330
1F
100
AcDbEntity
  8
SLD-0
 62
     1
100
AcDbLine
 10
14.5989
 20
10.9595
 30
0.0
 11
16.6674
 21
9.4258
 31
0.0
  0
LINE
  5
1AF
330
1F
100
AcDbEntity
  8
SLD-0
 62
     1
100
AcDbLine
 10
16.6674
 20
9.4258
 30
0.0
 11
18.8777
 21
8.10147
 31
0.0
  0
LINE
  5
1B0
330
1F
100
AcDbEntity
  8
SLD-0
 62
     1
100
AcDbLine
 10
18.8777
 20
8.10147
 30
0.0
 11
21.2066
 21
7.00045
 31
0.0
  0
LINE
  5
1B1
330
1F
100
AcDbEntity
  8
SLD-0
 62
     1
100
AcDbLine
 10
21.2066
 20
7.00045
 30
0.0
 11
23.6182
 21
6.13639
 31
0.0
  0
LINE
  5
1B2
330
1F
100
AcDbEntity
  8
SLD-0
 62
     1
100
AcDbLine
 10
23.6182
 20
6.13639
 30
0.0
 11
23.632
 21
6.13227
 31
0.0
  0
LINE
  5
1B3
330
1F
100
AcDbEntity
  8
SLD-0
 62
     1
100
AcDbLine
 10
23.632
 20
6.13227
 30
0.0
 11
26.1304
 21
5.50527
 31
0.0
  0
LINE
  5
1B4
330
1F
100
AcDbEntity
  8
SLD-0
 62
     1
100
AcDbLine
 10
26.1304
 20
5.50527
 30
0.0
 11
28.6784
 21
5.1277
 31
0.0
  0
LINE
  5
1B5
330
1F
100
AcDbEntity
  8
SLD-0
 62
     1
100
AcDbLine
 10
28.6784
 20
5.1277
 30
0.0
 11
31.2525
 21
5.00228
 31
0.0
  0
LINE
  5
1B6
330
1F
100
AcDbEntity
  8
SLD-0
 62
     1
100
AcDbLine
 10
31.2525
 20
5.00228
 30
0.0
 11
32.5038
 21
5.06293
 31
0.0
  0
LINE
  5
1B7
330
1F
100
AcDbEntity
  8
SLD-0
 62
     1
100
AcDbLine
 10
32.5038
 20
5.06293
 30
0.0
 11
33.8253
 21
5.1277
 31
0.0
  0
LINE
  5
1B8
330
1F
100
AcDbEntity
  8
SLD-0
 62
     1
100
AcDbLine
 10
33.8253
 20
5.1277
 30
0.0
 11
36.3732
 21
5.50527
 31
0.0
  0
LINE
  5
1B9
330
1F
100
AcDbEntity
  8
SLD-0
 62
     1
100
AcDbLine
 10
36.3732
 20
5.50527
 30
0.0
 11
38.8719
 21
6.13227
 31
0.0
  0
LINE
  5
1BA
330
1F
100
AcDbEntity
  8
SLD-0
 62
     1
100
AcDbLine
 10
38.8719
 20
6.13227
 30
0.0
 11
40.0018
 21
6.53602
 31
0.0
  0
LINE
  5
1BB
330
1F
100
AcDbEntity
  8
SLD-0
 62
     1
100
AcDbLine
 10
40.0018
 20
6.53602
 30
0.0
 11
41.2972
 21
7.00045
 31
0.0
  0
LINE
  5
1BC
330
1F
100
AcDbEntity
  8
SLD-0
 62
     1
100
AcDbLine
 10
41.2972
 20
7.00045
 30
0.0
 11
43.6259
 21
8.10147
 31
0.0
  0
LINE
  5
1BD
330
1F
100
AcDbEntity
  8
SLD-0
 62
     1
100
AcDbLine
 10
43.6259
 20
8.10147
 30
0.0
 11
45.8364
 21
9.4258
 31
0.0
  0
LINE
  5
1BE
330
1F
100
AcDbEntity
  8
SLD-0
 62
     1
100
AcDbLine
 10
45.8364
 20
9.4258
 30
0.0
 11
47.9048
 21
10.9595
 31
0.0
  0
LINE
  5
1BF
330
1F
100
AcDbEntity
  8
SLD-0
 62
     1
100
AcDbLine
 10
47.9048
 20
10.9595
 30
0.0
 11
49.8133
 21
12.6904
 31
0.0
  0
LINE
  5
1C0
330
1F
100
AcDbEntity
  8
SLD-0
 62
     1
100
AcDbLine
 10
49.8133
 20
12.6904
 30
0.0
 11
51.544
 21
14.5989
 31
0.0
  0
LINE
  5
1C1
330
1F
100
AcDbEntity
  8
SLD-0
 62
     1
100
AcDbLine
 10
51.544
 20
14.5989
 30
0.0
 11
53.0779
 21
16.6674
 31
0.0
  0
LINE
  5
1C2
330
1F
100
AcDbEntity
  8
SLD-0
 62
     1
100
AcDbLine
 10
53.0779
 20
16.6674
 30
0.0
 11
54.4022
 21
18.8777
 31
0.0
  0
LINE
  5
1C3
330
1F
100
AcDbEntity
  8
SLD-0
 62
     1
100
AcDbLine
 10
54.4022
 20
18.8777
 30
0.0
 11
54.9342
 21
20.0022
 31
0.0
  0
LINE
  5
1C4
330
1F
100
AcDbEntity
  8
SLD-0
 62
     1
100
AcDbLine
 10
54.9342
 20
20.0022
 30
0.0
 11
55.5032
 21
21.2066
 31
0.0
  0
LINE
  5
1C5
330
1F
100
AcDbEntity
  8
SLD-0
 62
     1
100
AcDbLine
 10
55.5032
 20
21.2066
 30
0.0
 11
56.3714
 21
23.632
 31
0.0
  0
LINE
  5
1C6
330
1F
100
AcDbEntity
  8
SLD-0
 62
     1
100
AcDbLine
 10
56.3714
 20
23.632
 30
0.0
 11
56.9983
 21
26.1304
 31
0.0
  0
LINE
  5
1C7
330
1F
100
AcDbEntity
  8
SLD-0
 62
     1
100
AcDbLine
 10
56.9983
 20
26.1304
 30
0.0
 11
57.3761
 21
28.6784
 31
0.0
  0
LINE
  5
1C8
330
1F
100
AcDbEntity
  8
SLD-0
 62
     1
100
AcDbLine
 10
57.3761
 20
28.6784
 30
0.0
 11
57.5014
 21
31.2511
 31
0.0
  0
LINE
  5
1C9
330
1F
100
AcDbEntity
  8
SLD-0
 62
     1
100
AcDbLine
 10
57.5014
 20
31.2511
 30
0.0
 11
57.3761
 21
33.8253
 31
0.0
  0
LINE
  5
1CA
330
1F
100
AcDbEntity
  8
SLD-0
 62
     1
100
AcDbLine
 10
57.3761
 20
33.8253
 30
0.0
 11
56.9983
 21
36.3732
 31
0.0
  0
LINE
  5
1CB
330
1F
100
AcDbEntity
  8
SLD-0
 62
     1
100
AcDbLine
 10
56.9983
 20
36.3732
 30
0.0
 11
56.9944
 21
36.3859
 31
0.0
  0
LINE
  5
1CC
330
1F
100
AcDbEntity
  8
SLD-0
 62
     1
100
AcDbLine
 10
56.9944
 20
36.3859
 30
0.0
 11
56.3714
 21
38.8719
 31
0.0
  0
LINE
  5
1CD
330
1F
100
AcDbEntity
  8
SLD-0
 62
     1
100
AcDbLine
 10
56.3714
 20
38.8719
 30
0.0
 11
55.5032
 21
41.2972
 31
0.0
  0
LINE
  5
1CE
330
1F
100
AcDbEntity
  8
SLD-0
 62
     1
100
AcDbLine
 10
55.5032
 20
41.2972
 30
0.0
 11
54.4022
 21
43.6259
 31
0.0
  0
LINE
  5
1CF
330
1F
100
AcDbEntity
  8
SLD-0
 62
     1
100
AcDbLine
 10
54.4022
 20
43.6259
 30
0.0
 11
53.0779
 21
45.8364
 31
0.0
  0
LINE
  5
1D0
330
1F
100
AcDbEntity
  8
SLD-0
 62
     1
100
AcDbLine
 10
53.0779
 20
45.8364
 30
0.0
 11
51.544
 21
47.9048
 31
0.0
  0
LINE
  5
1D1
330
1F
100
AcDbEntity
  8
SLD-0
 62
     1
100
AcDbLine
 10
51.544
 20
47.9048
 30
0.0
 11
49.8133
 21
49.8133
 31
0.0
  0
LINE
  5
1D2
330
1F
100
AcDbEntity
  8
SLD-0
 62
     1
100
AcDbLine
 10
49.8133
 20
49.8133
 30
0.0
 11
47.9048
 21
51.544
 31
0.0
  0
LINE
  5
1D3
330
1F
100
AcDbEntity
  8
SLD-0
 62
     1
100
AcDbLine
 10
47.9048
 20
51.544
 30
0.0
 11
46.2509
 21
52.7692
 31
0.0
  0
LINE
  5
1D4
330
1F
100
AcDbEntity
  8
SLD-0
 62
     1
100
AcDbLine
 10
46.2509
 20
52.7692
 30
0.0
 11
45.8364
 21
53.0779
 31
0.0
  0
LINE
  5
1D5
330
1F
100
AcDbEntity
  8
SLD-0
 62
     1
100
AcDbLine
 10
45.8364
 20
53.0779
 30
0.0
 11
43.6259
 21
54.4022
 31
0.0
  0
LINE
  5
1D6
330
1F
100
AcDbEntity
  8
SLD-0
 62
     1
100
AcDbLine
 10
43.6259
 20
54.4022
 30
0.0
 11
41.2972
 21
55.5032
 31
0.0
  0
LINE
  5
1D7
330
1F
100
AcDbEntity
  8
SLD-0
 62
     1
100
AcDbLine
 10
30.8653
 20
58.8105
 30
0.0
 11
31.2525
 21
58.7498
 31
0.0
  0
LINE
  5
1D8
330
1F
100
AcDbEntity
  8
SLD-0
 62
     1
100
AcDbLine
 10
31.2525
 20
58.7498
 30
0.0
 11
31.6384
 21
58.8105
 31
0.0
  0
LINE
  5
1D9
330
1F
100
AcDbEntity
  8
SLD-0
 62
     1
100
AcDbLine
 10
31.6384
 20
58.8105
 30
0.0
 11
31.8093
 21
58.8973
 31
0.0
  0
LINE
  5
1DA
330
1F
100
AcDbEntity
  8
SLD-0
 62
     1
100
AcDbLine
 10
31.8093
 20
58.8973
 30
0.0
 11
31.812
 21
58.8987
 31
0.0
  0
LINE
  5
1DB
330
1F
100
AcDbEntity
  8
SLD-0
 62
     1
100
AcDbLine
 10
31.812
 20
58.8987
 30
0.0
 11
31.9884
 21
58.9883
 31
0.0
  0
LINE
  5
1DC
330
1F
100
AcDbEntity
  8
SLD-0
 62
     1
100
AcDbLine
 10
31.9884
 20
58.9883
 30
0.0
 11
32.2654
 21
59.2653
 31
0.0
  0
LINE
  5
1DD
330
1F
100
AcDbEntity
  8
SLD-0
 62
     1
100
AcDbLine
 10
32.2654
 20
59.2653
 30
0.0
 11
32.4431
 21
59.6152
 31
0.0
  0
LINE
  5
1DE
330
1F
100
AcDbEntity
  8
SLD-0
 62
     1
100
AcDbLine
 10
32.4431
 20
59.6152
 30
0.0
 11
32.5038
 21
60.0012
 31
0.0
  0
LINE
  5
1DF
330
1F
100
AcDbEntity
  8
SLD-0
 62
     1
100
AcDbLine
 10
32.5038
 20
60.0012
 30
0.0
 11
32.4431
 21
60.3885
 31
0.0
  0
LINE
  5
1E0
330
1F
100
AcDbEntity
  8
SLD-0
 62
     1
100
AcDbLine
 10
32.4431
 20
60.3885
 30
0.0
 11
32.2654
 21
60.7385
 31
0.0
  0
LINE
  5
1E1
330
1F
100
AcDbEntity
  8
SLD-0
 62
     1
100
AcDbLine
 10
32.2654
 20
60.7385
 30
0.0
 11
32.0408
 21
60.9618
 31
0.0
  0
LINE
  5
1E2
330
1F
100
AcDbEntity
  8
SLD-0
 62
     1
100
AcDbLine
 10
32.0408
 20
60.9618
 30
0.0
 11
31.9884
 21
61.0154
 31
0.0
  0
LINE
  5
1E3
330
1F
100
AcDbEntity
  8
SLD-0
 62
     1
100
AcDbLine
 10
31.9884
 20
61.0154
 30
0.0
 11
31.6384
 21
61.1932
 31
0.0
  0
LINE
  5
1E4
330
1F
100
AcDbEntity
  8
SLD-0
 62
     1
100
AcDbLine
 10
31.6384
 20
61.1932
 30
0.0
 11
31.2525
 21
61.2553
 31
0.0
  0
LINE
  5
1E5
330
1F
100
AcDbEntity
  8
SLD-0
 62
     1
100
AcDbLine
 10
31.2525
 20
61.2553
 30
0.0
 11
30.8653
 21
61.1932
 31
0.0
  0
LINE
  5
1E6
330
1F
100
AcDbEntity
  8
SLD-0
 62
     1
100
AcDbLine
 10
30.8653
 20
61.1932
 30
0.0
 11
30.5153
 21
61.0154
 31
0.0
  0
LINE
  5
1E7
330
1F
100
AcDbEntity
  8
SLD-0
 62
     1
100
AcDbLine
 10
30.5153
 20
61.0154
 30
0.0
 11
30.4629
 21
60.9618
 31
0.0
  0
LINE
  5
1E8
330
1F
100
AcDbEntity
  8
SLD-0
 62
     1
100
AcDbLine
 10
30.4629
 20
60.9618
 30
0.0
 11
30.2383
 21
60.7385
 31
0.0
  0
LINE
  5
1E9
330
1F
100
AcDbEntity
  8
SLD-0
 62
     1
100
AcDbLine
 10
30.2383
 20
60.7385
 30
0.0
 11
30.0605
 21
60.3885
 31
0.0
  0
LINE
  5
1EA
330
1F
100
AcDbEntity
  8
SLD-0
 62
     1
100
AcDbLine
 10
30.0605
 20
60.3885
 30
0.0
 11
29.9985
 21
60.0012
 31
0.0
  0
LINE
  5
1EB
330
1F
100
AcDbEntity
  8
SLD-0
 62
     1
100
AcDbLine
 10
29.9985
 20
60.0012
 30
0.0
 11
30.0605
 21
59.6152
 31
0.0
  0
LINE
  5
1EC
330
1F
100
AcDbEntity
  8
SLD-0
 62
     1
100
AcDbLine
 10
30.0605
 20
59.6152
 30
0.0
 11
30.117
 21
59.5051
 31
0.0
  0
LINE
  5
1ED
330
1F
100
AcDbEntity
  8
SLD-0
 62
     1
100
AcDbLine
 10
30.117
 20
59.5051
 30
0.0
 11
30.2383
 21
59.2653
 31
0.0
  0
LINE
  5
1EE
330
1F
100
AcDbEntity
  8
SLD-0
 62
     1
100
AcDbLine
 10
30.2383
 20
59.2653
 30
0.0
 11
30.5153
 21
58.9883
 31
0.0
  0
LINE
  5
1EF
330
1F
100
AcDbEntity
  8
SLD-0
 62
     1
100
AcDbLine
 10
30.5153
 20
58.9883
 30
0.0
 11
30.8653
 21
58.8105
 31
0.0
  0
LINE
  5
1F0
330
1F
100
AcDbEntity
  8
SLD-0
 62
     1
100
AcDbLine
 10
30.8653
 20
1.31051
 30
0.0
 11
31.2525
 21
1.2485
 31
0.0
  0
LINE
  5
1F1
330
1F
100
AcDbEntity
  8
SLD-0
 62
     1
100
AcDbLine
 10
31.2525
 20
1.2485
 30
0.0
 11
31.6384
 21
1.31051
 31
0.0
  0
LINE
  5
1F2
330
1F
100
AcDbEntity
  8
SLD-0
 62
     1
100
AcDbLine
 10
31.6384
 20
1.31051
 30
0.0
 11
31.8093
 21
1.39733
 31
0.0
  0
LINE
  5
1F3
330
1F
100
AcDbEntity
  8
SLD-0
 62
     1
100
AcDbLine
 10
31.8093
 20
1.39733
 30
0.0
 11
31.9884
 21
1.48828
 31
0.0
  0
LINE
  5
1F4
330
1F
100
AcDbEntity
  8
SLD-0
 62
     1
100
AcDbLine
 10
31.9884
 20
1.48828
 30
0.0
 11
32.2654
 21
1.76527
 31
0.0
  0
LINE
  5
1F5
330
1F
100
AcDbEntity
  8
SLD-0
 62
     1
100
AcDbLine
 10
32.2654
 20
1.76527
 30
0.0
 11
32.4431
 21
2.11529
 31
0.0
  0
LINE
  5
1F6
330
1F
100
AcDbEntity
  8
SLD-0
 62
     1
100
AcDbLine
 10
32.4431
 20
2.11529
 30
0.0
 11
32.5038
 21
2.50114
 31
0.0
  0
LINE
  5
1F7
330
1F
100
AcDbEntity
  8
SLD-0
 62
     1
100
AcDbLine
 10
32.5038
 20
2.50114
 30
0.0
 11
32.4431
 21
2.88837
 31
0.0
  0
LINE
  5
1F8
330
1F
100
AcDbEntity
  8
SLD-0
 62
     1
100
AcDbLine
 10
32.4431
 20
2.88837
 30
0.0
 11
32.2654
 21
3.23839
 31
0.0
  0
LINE
  5
1F9
330
1F
100
AcDbEntity
  8
SLD-0
 62
     1
100
AcDbLine
 10
32.2654
 20
3.23839
 30
0.0
 11
31.9884
 21
3.51537
 31
0.0
  0
LINE
  5
1FA
330
1F
100
AcDbEntity
  8
SLD-0
 62
     1
100
AcDbLine
 10
31.9884
 20
3.51537
 30
0.0
 11
31.8093
 21
3.60497
 31
0.0
  0
LINE
  5
1FB
330
1F
100
AcDbEntity
  8
SLD-0
 62
     1
100
AcDbLine
 10
31.8093
 20
3.60497
 30
0.0
 11
31.7858
 21
3.61735
 31
0.0
  0
LINE
  5
1FC
330
1F
100
AcDbEntity
  8
SLD-0
 62
     1
100
AcDbLine
 10
31.7858
 20
3.61735
 30
0.0
 11
31.6384
 21
3.69316
 31
0.0
  0
LINE
  5
1FD
330
1F
100
AcDbEntity
  8
SLD-0
 62
     1
100
AcDbLine
 10
31.6384
 20
3.69316
 30
0.0
 11
31.2525
 21
3.75514
 31
0.0
  0
LINE
  5
1FE
330
1F
100
AcDbEntity
  8
SLD-0
 62
     1
100
AcDbLine
 10
31.2525
 20
3.75514
 30
0.0
 11
30.8653
 21
3.69316
 31
0.0
  0
LINE
  5
1FF
330
1F
100
AcDbEntity
  8
SLD-0
 62
     1
100
AcDbLine
 10
30.8653
 20
3.69316
 30
0.0
 11
30.7178
 21
3.61735
 31
0.0
  0
LINE
  5
200
330
1F
100
AcDbEntity
  8
SLD-0
 62
     1
100
AcDbLine
 10
30.7178
 20
3.61735
 30
0.0
 11
30.5153
 21
3.51537
 31
0.0
  0
LINE
  5
201
330
1F
100
AcDbEntity
  8
SLD-0
 62
     1
100
AcDbLine
 10
30.5153
 20
3.51537
 30
0.0
 11
30.2383
 21
3.23839
 31
0.0
  0
LINE
  5
202
330
1F
100
AcDbEntity
  8
SLD-0
 62
     1
100
AcDbLine
 10
30.2383
 20
3.23839
 30
0.0
 11
30.0605
 21
2.88837
 31
0.0
  0
LINE
  5
203
330
1F
100
AcDbEntity
  8
SLD-0
 62
     1
100
AcDbLine
 10
30.0605
 20
2.88837
 30
0.0
 11
29.9985
 21
2.50114
 31
0.0
  0
LINE
  5
204
330
1F
100
AcDbEntity
  8
SLD-0
 62
     1
100
AcDbLine
 10
29.9985
 20
2.50114
 30
0.0
 11
30.0605
 21
2.11529
 31
0.0
  0
LINE
  5
205
330
1F
100
AcDbEntity
  8
SLD-0
 62
     1
100
AcDbLine
 10
30.0605
 20
2.11529
 30
0.0
 11
30.2383
 21
1.76527
 31
0.0
  0
LINE
  5
206
330
1F
100
AcDbEntity
  8
SLD-0
 62
     1
100
AcDbLine
 10
30.2383
 20
1.76527
 30
0.0
 11
30.5153
 21
1.48828
 31
0.0
  0
LINE
  5
207
330
1F
100
AcDbEntity
  8
SLD-0
 62
     1
100
AcDbLine
 10
30.5153
 20
1.48828
 30
0.0
 11
30.8653
 21
1.31051
 31
0.0
  0
MTEXT
  5
209
330
1F
100
AcDbEntity
  8
0
  6
Continuous
 62
     7
100
AcDbMText
 10
0.0
 20
10.1326830986
 30
0.0
 40
3.633
 41
0.0
 71
     1
 72
     1
  1
Produit d'ducation SOLIDWORKS  A titre ducatif uniquement.
  7
SLDTEXTSTYLE0
 73
     1
 44
1.0
  0
ENDSEC
  0
SECTION
  2
OBJECTS
  0
DICTIONARY
  5
C
330
0
100
AcDbDictionary
281
     1
  3
ACAD_GROUP
350
D
  3
ACAD_LAYOUT
350
1A
  3
ACAD_MLINESTYLE
350
17
  3
ACAD_PLOTSETTINGS
350
19
  3
ACAD_PLOTSTYLENAME
350
E
  3
ACAD_SCALELIST
350
47
  3
DWGPROPS
350
20A
  0
DICTIONARY
  5
D
102
{ACAD_REACTORS
330
C
102
}
330
C
100
AcDbDictionary
281
     1
  0
DICTIONARY
  5
1A
102
{ACAD_REACTORS
330
C
102
}
330
C
100
AcDbDictionary
281
     1
  3
Layout1
350
1E
  3
Layout2
350
26
  3
Model
350
22
  0
DICTIONARY
  5
17
102
{ACAD_REACTORS
330
C
102
}
330
C
100
AcDbDictionary
281
     1
  3
Standard
350
18
  0
DICTIONARY
  5
19
102
{ACAD_REACTORS
330
C
102
}
330
C
100
AcDbDictionary
281
     1
  0
ACDBDICTIONARYWDFLT
  5
E
102
{ACAD_REACTORS
330
C
102
}
330
C
100
AcDbDictionary
281
     1
  3
Normal
350
F
100
AcDbDictionaryWithDefault
340
F
  0
DICTIONARY
  5
47
102
{ACAD_REACTORS
330
C
102
}
330
C
100
AcDbDictionary
281
     1
  3
A0
350
48
  3
A1
350
49
  3
A2
350
4A
  3
A3
350
4B
  3
A4
350
4C
  3
A5
350
4D
  3
A6
350
4E
  3
A7
350
4F
  3
A8
350
50
  3
A9
350
51
  3
B0
350
52
  3
B1
350
53
  3
B2
350
54
  3
B3
350
55
  3
B4
350
56
  3
B5
350
57
  3
B6
350
58
  0
XRECORD
  5
20A
102
{ACAD_REACTORS
330
C
102
}
330
C
100
AcDbXrecord
280
     1
  1
DWGPROPS COOKIE
  2

  3

  4

  6

  7

  8
crsat
  9

300
=
301
=
302
=
303
=
304
=
305
=
306
=
307
=
308
=
309
=
 40
0.0
 41
2460095.493569375
 42
2460095.493569815
  1

 90
        0
  0
LAYOUT
  5
1E
102
{ACAD_REACTORS
330
1A
102
}
330
1A
100
AcDbPlotSettings
  1

  2
none_device
  4

  6

 40
0.0
 41
0.0
 42
0.0
 43
0.0
 44
0.0
 45
0.0
 46
0.0
 47
0.0
 48
0.0
 49
0.0
140
0.0
141
0.0
142
1.0
143
1.0
 70
   688
 72
     1
 73
     0
 74
     5
  7

 75
    16
147
1.0
148
0.0
149
0.0
100
AcDbLayout
  1
Layout1
 70
     1
 71
     1
 10
0.0
 20
0.0
 11
420.0
 21
297.0
 12
0.0
 22
0.0
 32
0.0
 14
1.0000000000E+20
 24
1.0000000000E+20
 34
1.0000000000E+20
 15
-1.0000000000E+20
 25
-1.0000000000E+20
 35
-1.0000000000E+20
146
0.0
 13
0.0
 23
0.0
 33
0.0
 16
1.0
 26
0.0
 36
0.0
 17
0.0
 27
1.0
 37
0.0
 76
     0
330
1B
  0
LAYOUT
  5
26
102
{ACAD_REACTORS
330
1A
102
}
330
1A
100
AcDbPlotSettings
  1

  2
none_device
  4

  6

 40
0.0
 41
0.0
 42
0.0
 43
0.0
 44
0.0
 45
0.0
 46
0.0
 47
0.0
 48
0.0
 49
0.0
140
0.0
141
0.0
142
1.0
143
1.0
 70
   688
 72
     1
 73
     0
 74
     5
  7

 75
    16
147
1.0
148
0.0
149
0.0
100
AcDbLayout
  1
Layout2
 70
     1
 71
     2
 10
0.0
 20
0.0
 11
0.0
 21
0.0
 12
0.0
 22
0.0
 32
0.0
 14
0.0
 24
0.0
 34
0.0
 15
0.0
 25
0.0
 35
0.0
146
0.0
 13
0.0
 23
0.0
 33
0.0
 16
1.0
 26
0.0
 36
0.0
 17
0.0
 27
1.0
 37
0.0
 76
     0
330
23
  0
LAYOUT
  5
22
102
{ACAD_REACTORS
330
1A
102
}
330
1A
100
AcDbPlotSettings
  1

  2
none_device
  4
Letter_(8.50_x_11.00_Inches)
  6

 40
6.35
 41
6.35
 42
6.35000508
 43
6.35000508
 44
215.9
 45
279.4
 46
0.0
 47
0.0
 48
0.0
 49
0.0
140
0.0
141
0.0
142
1.0
143
1.0
 70
  1712
 72
     1
 73
     0
 74
     0
  7

 75
     0
147
1.0
148
0.0
149
0.0
100
AcDbLayout
  1
Model
 70
     1
 71
     0
 10
0.0
 20
0.0
 11
297.0
 21
210.0
 12
0.0
 22
0.0
 32
0.0
 14
0.0
 24
0.0
 34
0.0
 15
297.0
 25
210.0
 35
0.0
146
0.0
 13
0.0
 23
0.0
 33
0.0
 16
1.0
 26
0.0
 36
0.0
 17
0.0
 27
1.0
 37
0.0
 76
     0
330
1F
331
29
  0
MLINESTYLE
  5
18
102
{ACAD_REACTORS
330
17
102
}
330
17
100
AcDbMlineStyle
  2
Standard
 70
     0
  3

 62
   256
 51
90.0
 52
90.0
 71
     2
 49
0.5
 62
   256
  6
BYLAYER
 49
-0.5
 62
   256
  6
BYLAYER
  0
ACDBPLACEHOLDER
  5
F
102
{ACAD_REACTORS
330
E
102
}
330
E
  0
SCALE
  5
48
102
{ACAD_REACTORS
330
47
102
}
330
47
100
AcDbScale
 70
     0
300
1:1
140
1.0
141
1.0
290
     1
  0
SCALE
  5
49
102
{ACAD_REACTORS
330
47
102
}
330
47
100
AcDbScale
 70
     0
300
1:2
140
1.0
141
2.0
290
     0
  0
SCALE
  5
4A
102
{ACAD_REACTORS
330
47
102
}
330
47
100
AcDbScale
 70
     0
300
1:4
140
1.0
141
4.0
290
     0
  0
SCALE
  5
4B
102
{ACAD_REACTORS
330
47
102
}
330
47
100
AcDbScale
 70
     0
300
1:5
140
1.0
141
5.0
290
     0
  0
SCALE
  5
4C
102
{ACAD_REACTORS
330
47
102
}
330
47
100
AcDbScale
 70
     0
300
1:8
140
1.0
141
8.0
290
     0
  0
SCALE
  5
4D
102
{ACAD_REACTORS
330
47
102
}
330
47
100
AcDbScale
 70
     0
300
1:10
140
1.0
141
10.0
290
     0
  0
SCALE
  5
4E
102
{ACAD_REACTORS
330
47
102
}
330
47
100
AcDbScale
 70
     0
300
1:16
140
1.0
141
16.0
290
     0
  0
SCALE
  5
4F
102
{ACAD_REACTORS
330
47
102
}
330
47
100
AcDbScale
 70
     0
300
1:20
140
1.0
141
20.0
290
     0
  0
SCALE
  5
50
102
{ACAD_REACTORS
330
47
102
}
330
47
100
AcDbScale
 70
     0
300
1:30
140
1.0
141
30.0
290
     0
  0
SCALE
  5
51
102
{ACAD_REACTORS
330
47
102
}
330
47
100
AcDbScale
 70
     0
300
1:40
140
1.0
141
40.0
290
     0
  0
SCALE
  5
52
102
{ACAD_REACTORS
330
47
102
}
330
47
100
AcDbScale
 70
     0
300
1:50
140
1.0
141
50.0
290
     0
  0
SCALE
  5
53
102
{ACAD_REACTORS
330
47
102
}
330
47
100
AcDbScale
 70
     0
300
1:100
140
1.0
141
100.0
290
     0
  0
SCALE
  5
54
102
{ACAD_REACTORS
330
47
102
}
330
47
100
AcDbScale
 70
     0
300
2:1
140
2.0
141
1.0
290
     0
  0
SCALE
  5
55
102
{ACAD_REACTORS
330
47
102
}
330
47
100
AcDbScale
 70
     0
300
4:1
140
4.0
141
1.0
290
     0
  0
SCALE
  5
56
102
{ACAD_REACTORS
330
47
102
}
330
47
100
AcDbScale
 70
     0
300
8:1
140
8.0
141
1.0
290
     0
  0
SCALE
  5
57
102
{ACAD_REACTORS
330
47
102
}
330
47
100
AcDbScale
 70
     0
300
10:1
140
10.0
141
1.0
290
     0
  0
SCALE
  5
58
102
{ACAD_REACTORS
330
47
102
}
330
47
100
AcDbScale
 70
     0
300
100:1
140
100.0
141
1.0
290
     0
  0
ENDSEC
  0
EOF
