<?xml version="1.0" standalone="no"?>
<!DOCTYPE svg PUBLIC "-//W3C//DTD SVG 1.1//EN"
  "http://www.w3.org/Graphics/SVG/1.1/DTD/svg11.dtd">
<svg width="302mm" height="261.99999999999994mm" viewBox="-101 -160.99999999999997 302 261.99999999999994" xmlns="http://www.w3.org/2000/svg" version="1.1">
	<title>svgOutput</title>
	<desc>made with tinkercad</desc>
<path d="M -60.00299835205078 60.004001617431626 L -67.502685546875 75.00299835205077 L -80.00150299072266 99.99999999999997 L -90.00299835205078 99.99999999999997 L -100 99.99999999999997 L -100 -159.99999999999997 L -90.00299835205078 -159.99999999999997 L -77.99800109863281 -159.99999999999997 L -60.00299835205078 -159.99999999999997 L 50.00175094604492 -159.99999999999997 L 160.0030059814453 -159.99999999999997 L 177.9980010986328 -159.99999999999997 L 190.0030059814453 -159.99999999999997 L 200 -159.99999999999997 L 200 75.00299835205077 L 200 99.99999999999997 L 180.00149536132812 99.99999999999997 L 167.502685546875 75.00299835205077 L 160.0030059814453 60.004001617431626 L 160.0030059814453 59.9980010986328 L 160 59.9980010986328 L -60 59.9980010986328 L -60.00299835205078 59.9980010986328 L -60.00299835205078 60.004001617431626 M -84.93900299072266 74.92900085449217 L -84 75.00299835205077 L -83.06099700927734 74.92900085449217 L -82.1449966430664 74.70899963378905 L -81.91999816894531 74.61563873291014 L -81.2750015258789 74.34799957275389 L -80.47200012207031 73.85600280761717 L -79.75599670410156 73.24400329589842 L -79.14399719238281 72.52799987792967 L -78.6520004272461 71.72499847412108 L -78.29100036621094 70.85500335693358 L -78.07099914550781 69.93900299072264 L -77.99800109863281 68.99999999999999 L -78.07099914550781 68.06099700927733 L -78.29100036621094 67.14499664306639 L -78.6520004272461 66.27500152587889 L -79.10478973388672 65.53600311279295 L -79.14399719238281 65.4720001220703 L -79.75599670410156 64.75599670410155 L -80.47200012207031 64.1439971923828 L -81.2750015258789 63.65200042724608 L -82.1449966430664 63.29100036621092 L -83.06099700927734 63.0709991455078 L -84 62.9980010986328 L -84.93900299072266 63.0709991455078 L -85.8550033569336 63.29100036621092 L -86.7249984741211 63.65200042724608 L -87.52799987792969 64.1439971923828 L -88.24400329589844 64.75599670410155 L -88.85600280761719 65.4720001220703 L -88.89521026611328 65.53600311279295 L -89.3479995727539 66.27500152587889 L -89.70899963378906 67.14499664306639 L -89.92900085449219 68.06099700927733 L -90.00299835205078 68.99999999999999 L -89.92900085449219 69.93900299072264 L -89.70899963378906 70.85500335693358 L -89.3479995727539 71.72499847412108 L -88.85600280761719 72.52799987792967 L -88.24400329589844 73.24400329589842 L -87.67774963378906 73.72799682617186 L -87.52799987792969 73.85600280761717 L -86.7249984741211 74.34799957275389 L -85.8550033569336 74.70899963378905 L -84.93900299072266 74.92900085449217 M 179.75599670410156 73.24400329589842 L 180.2239990234375 73.64402008056639 L 180.4720001220703 73.85600280761717 L 181.27499389648438 74.34799957275389 L 182.14500427246094 74.70899963378905 L 183.06100463867188 74.92900085449217 L 184 75.00299835205077 L 184.93899536132812 74.92900085449217 L 185.85499572753906 74.70899963378905 L 186.72500610351562 74.34799957275389 L 187.5279998779297 73.85600280761717 L 188.24400329589844 73.24400329589842 L 188.41600036621094 73.04277038574217 L 188.8560028076172 72.52799987792967 L 189.34800720214844 71.72499847412108 L 189.70899963378906 70.85500335693358 L 189.9290008544922 69.93900299072264 L 190.0030059814453 68.99999999999999 L 189.9290008544922 68.06099700927733 L 189.70899963378906 67.14499664306639 L 189.34800720214844 66.27500152587889 L 188.8952178955078 65.53600311279295 L 188.8560028076172 65.4720001220703 L 188.24400329589844 64.75599670410155 L 187.5279998779297 64.1439971923828 L 186.72500610351562 63.65200042724608 L 185.85499572753906 63.29100036621092 L 184.93899536132812 63.0709991455078 L 184 62.9980010986328 L 183.06100463867188 63.0709991455078 L 182.14500427246094 63.29100036621092 L 181.27499389648438 63.65200042724608 L 180.4720001220703 64.1439971923828 L 179.75599670410156 64.75599670410155 L 179.1439971923828 65.4720001220703 L 179.1047821044922 65.53600311279295 L 178.65199279785156 66.27500152587889 L 178.29100036621094 67.14499664306639 L 178.0709991455078 68.06099700927733 L 177.9980010986328 68.99999999999999 L 178.0709991455078 69.93900299072264 L 178.29100036621094 70.85500335693358 L 178.65199279785156 71.72499847412108 L 179.1439971923828 72.52799987792967 L 179.75599670410156 73.24400329589842 z" fill="none" stroke="rgb(255,0,0)" stroke-width="0.001mm" />
</svg>