  0
SECTION
  2
HEADER
  9
$ACADVER
  1
AC1009
  9
$FILLMODE
 70
 0
  9
$SPLFRAME
 70
 1
  9
$EXTMIN
 10
0
 20
0
 30
0.0
  9
$EXTMAX
 10
41.6667
 20
41.6667
 30
0.0
  0
ENDSEC
  0
SECTION
  2
TABLES
  0
TABLE
  2
LAYER
 70
1
  0
LAYER
  2
0
 70
     0
 62
     7
  6
CONTINUOUS
  0
ENDTAB
  0
ENDSEC
  0
SECTION
  2
ENTITIES
  0
POLYLINE
  8
0
 62
     1
 66
     1
 10
0
 20
0
 30
0.0
 70
     1
 40
0.0107136
 41
0.0107136
  0
VERTEX
  8
0
 10
1.61404
 20
1.61849
 30
0.0
 40
0.0001488
 41
0.0001488
  0
VERTEX
  8
0
 10
0.826714
 20
0.0438368
 30
0.0
 40
0.0001488
 41
0.0001488
  0
VERTEX
  8
0
 10
0.0393881
 20
0.0438368
 30
0.0
 40
0.0001488
 41
0.0001488
  0
VERTEX
  8
0
 10
0.0393881
 20
10.2801
 30
0.0
 40
0.0001488
 41
0.0001488
  0
VERTEX
  8
0
 10
11.8504
 20
10.2801
 30
0.0
 40
0.0001488
 41
0.0001488
  0
VERTEX
  8
0
 10
11.8504
 20
0.0438368
 30
0.0
 40
0.0001488
 41
0.0001488
  0
VERTEX
  8
0
 10
11.063
 20
0.0438368
 30
0.0
 40
0.0001488
 41
0.0001488
  0
VERTEX
  8
0
 10
10.2757
 20
1.61849
 30
0.0
 40
0.0001488
 41
0.0001488
  0
VERTEX
  8
0
 10
10.2757
 20
1.61876
 30
0.0
 40
0.0001488
 41
0.0001488
  0
VERTEX
  8
0
 10
1.61404
 20
1.61876
 30
0.0
 40
0.0001488
 41
0.0001488
  0
VERTEX
  8
0
 10
1.61404
 20
1.61849
 30
0.0
 40
0.0001488
 41
0.0001488
  0
SEQEND
 8
0
  0
POLYLINE
  8
0
 62
     1
 66
     1
 10
0
 20
0
 30
0.0
 70
     1
 40
0.0107136
 41
0.0107136
  0
VERTEX
  8
0
 10
0.632324
 20
1.03093
 30
0.0
 40
0.0001488
 41
0.0001488
  0
VERTEX
  8
0
 10
0.669271
 20
1.02799
 30
0.0
 40
0.0001488
 41
0.0001488
  0
VERTEX
  8
0
 10
0.706272
 20
1.03093
 30
0.0
 40
0.0001488
 41
0.0001488
  0
VERTEX
  8
0
 10
0.742296
 20
1.03955
 30
0.0
 40
0.0001488
 41
0.0001488
  0
VERTEX
  8
0
 10
0.751193
 20
1.04324
 30
0.0
 40
0.0001488
 41
0.0001488
  0
VERTEX
  8
0
 10
0.776585
 20
1.05377
 30
0.0
 40
0.0001488
 41
0.0001488
  0
VERTEX
  8
0
 10
0.808214
 20
1.07313
 30
0.0
 40
0.0001488
 41
0.0001488
  0
VERTEX
  8
0
 10
0.836372
 20
1.09722
 30
0.0
 40
0.0001488
 41
0.0001488
  0
VERTEX
  8
0
 10
0.86046
 20
1.12543
 30
0.0
 40
0.0001488
 41
0.0001488
  0
VERTEX
  8
0
 10
0.879829
 20
1.15706
 30
0.0
 40
0.0001488
 41
0.0001488
  0
VERTEX
  8
0
 10
0.894043
 20
1.1913
 30
0.0
 40
0.0001488
 41
0.0001488
  0
VERTEX
  8
0
 10
0.902724
 20
1.22738
 30
0.0
 40
0.0001488
 41
0.0001488
  0
VERTEX
  8
0
 10
0.905599
 20
1.26432
 30
0.0
 40
0.0001488
 41
0.0001488
  0
VERTEX
  8
0
 10
0.902724
 20
1.30127
 30
0.0
 40
0.0001488
 41
0.0001488
  0
VERTEX
  8
0
 10
0.894043
 20
1.33735
 30
0.0
 40
0.0001488
 41
0.0001488
  0
VERTEX
  8
0
 10
0.879829
 20
1.37164
 30
0.0
 40
0.0001488
 41
0.0001488
  0
VERTEX
  8
0
 10
0.862033
 20
1.40072
 30
0.0
 40
0.0001488
 41
0.0001488
  0
VERTEX
  8
0
 10
0.86046
 20
1.40321
 30
0.0
 40
0.0001488
 41
0.0001488
  0
VERTEX
  8
0
 10
0.836372
 20
1.43143
 30
0.0
 40
0.0001488
 41
0.0001488
  0
VERTEX
  8
0
 10
0.808214
 20
1.45551
 30
0.0
 40
0.0001488
 41
0.0001488
  0
VERTEX
  8
0
 10
0.776585
 20
1.47488
 30
0.0
 40
0.0001488
 41
0.0001488
  0
VERTEX
  8
0
 10
0.742296
 20
1.4891
 30
0.0
 40
0.0001488
 41
0.0001488
  0
VERTEX
  8
0
 10
0.706272
 20
1.49778
 30
0.0
 40
0.0001488
 41
0.0001488
  0
VERTEX
  8
0
 10
0.669271
 20
1.50065
 30
0.0
 40
0.0001488
 41
0.0001488
  0
VERTEX
  8
0
 10
0.632324
 20
1.49778
 30
0.0
 40
0.0001488
 41
0.0001488
  0
VERTEX
  8
0
 10
0.596246
 20
1.4891
 30
0.0
 40
0.0001488
 41
0.0001488
  0
VERTEX
  8
0
 10
0.562011
 20
1.47488
 30
0.0
 40
0.0001488
 41
0.0001488
  0
VERTEX
  8
0
 10
0.530382
 20
1.45551
 30
0.0
 40
0.0001488
 41
0.0001488
  0
VERTEX
  8
0
 10
0.502225
 20
1.43143
 30
0.0
 40
0.0001488
 41
0.0001488
  0
VERTEX
  8
0
 10
0.478136
 20
1.40321
 30
0.0
 40
0.0001488
 41
0.0001488
  0
VERTEX
  8
0
 10
0.476563
 20
1.40072
 30
0.0
 40
0.0001488
 41
0.0001488
  0
VERTEX
  8
0
 10
0.458713
 20
1.37164
 30
0.0
 40
0.0001488
 41
0.0001488
  0
VERTEX
  8
0
 10
0.444553
 20
1.33735
 30
0.0
 40
0.0001488
 41
0.0001488
  0
VERTEX
  8
0
 10
0.435872
 20
1.30127
 30
0.0
 40
0.0001488
 41
0.0001488
  0
VERTEX
  8
0
 10
0.432943
 20
1.26432
 30
0.0
 40
0.0001488
 41
0.0001488
  0
VERTEX
  8
0
 10
0.435872
 20
1.22738
 30
0.0
 40
0.0001488
 41
0.0001488
  0
VERTEX
  8
0
 10
0.444553
 20
1.1913
 30
0.0
 40
0.0001488
 41
0.0001488
  0
VERTEX
  8
0
 10
0.458713
 20
1.15706
 30
0.0
 40
0.0001488
 41
0.0001488
  0
VERTEX
  8
0
 10
0.478136
 20
1.12543
 30
0.0
 40
0.0001488
 41
0.0001488
  0
VERTEX
  8
0
 10
0.502225
 20
1.09722
 30
0.0
 40
0.0001488
 41
0.0001488
  0
VERTEX
  8
0
 10
0.524522
 20
1.07818
 30
0.0
 40
0.0001488
 41
0.0001488
  0
VERTEX
  8
0
 10
0.530382
 20
1.07313
 30
0.0
 40
0.0001488
 41
0.0001488
  0
VERTEX
  8
0
 10
0.562011
 20
1.05377
 30
0.0
 40
0.0001488
 41
0.0001488
  0
VERTEX
  8
0
 10
0.596246
 20
1.03955
 30
0.0
 40
0.0001488
 41
0.0001488
  0
VERTEX
  8
0
 10
0.632324
 20
1.03093
 30
0.0
 40
0.0001488
 41
0.0001488
  0
SEQEND
 8
0
  0
POLYLINE
  8
0
 62
     1
 66
     1
 10
0
 20
0
 30
0.0
 70
     1
 40
0.0107136
 41
0.0107136
  0
VERTEX
  8
0
 10
11.0534
 20
1.09722
 30
0.0
 40
0.0001488
 41
0.0001488
  0
VERTEX
  8
0
 10
11.0718
 20
1.08149
 30
0.0
 40
0.0001488
 41
0.0001488
  0
VERTEX
  8
0
 10
11.0816
 20
1.07313
 30
0.0
 40
0.0001488
 41
0.0001488
  0
VERTEX
  8
0
 10
11.1132
 20
1.05377
 30
0.0
 40
0.0001488
 41
0.0001488
  0
VERTEX
  8
0
 10
11.1475
 20
1.03955
 30
0.0
 40
0.0001488
 41
0.0001488
  0
VERTEX
  8
0
 10
11.1835
 20
1.03093
 30
0.0
 40
0.0001488
 41
0.0001488
  0
VERTEX
  8
0
 10
11.2205
 20
1.02799
 30
0.0
 40
0.0001488
 41
0.0001488
  0
VERTEX
  8
0
 10
11.2574
 20
1.03093
 30
0.0
 40
0.0001488
 41
0.0001488
  0
VERTEX
  8
0
 10
11.2935
 20
1.03955
 30
0.0
 40
0.0001488
 41
0.0001488
  0
VERTEX
  8
0
 10
11.3278
 20
1.05377
 30
0.0
 40
0.0001488
 41
0.0001488
  0
VERTEX
  8
0
 10
11.3594
 20
1.07313
 30
0.0
 40
0.0001488
 41
0.0001488
  0
VERTEX
  8
0
 10
11.3875
 20
1.09722
 30
0.0
 40
0.0001488
 41
0.0001488
  0
VERTEX
  8
0
 10
11.3943
 20
1.10514
 30
0.0
 40
0.0001488
 41
0.0001488
  0
VERTEX
  8
0
 10
11.4117
 20
1.12543
 30
0.0
 40
0.0001488
 41
0.0001488
  0
VERTEX
  8
0
 10
11.431
 20
1.15706
 30
0.0
 40
0.0001488
 41
0.0001488
  0
VERTEX
  8
0
 10
11.4453
 20
1.1913
 30
0.0
 40
0.0001488
 41
0.0001488
  0
VERTEX
  8
0
 10
11.4539
 20
1.22738
 30
0.0
 40
0.0001488
 41
0.0001488
  0
VERTEX
  8
0
 10
11.4568
 20
1.26432
 30
0.0
 40
0.0001488
 41
0.0001488
  0
VERTEX
  8
0
 10
11.4539
 20
1.30127
 30
0.0
 40
0.0001488
 41
0.0001488
  0
VERTEX
  8
0
 10
11.4453
 20
1.33735
 30
0.0
 40
0.0001488
 41
0.0001488
  0
VERTEX
  8
0
 10
11.431
 20
1.37164
 30
0.0
 40
0.0001488
 41
0.0001488
  0
VERTEX
  8
0
 10
11.4132
 20
1.40072
 30
0.0
 40
0.0001488
 41
0.0001488
  0
VERTEX
  8
0
 10
11.4117
 20
1.40321
 30
0.0
 40
0.0001488
 41
0.0001488
  0
VERTEX
  8
0
 10
11.3875
 20
1.43143
 30
0.0
 40
0.0001488
 41
0.0001488
  0
VERTEX
  8
0
 10
11.3594
 20
1.45551
 30
0.0
 40
0.0001488
 41
0.0001488
  0
VERTEX
  8
0
 10
11.3278
 20
1.47488
 30
0.0
 40
0.0001488
 41
0.0001488
  0
VERTEX
  8
0
 10
11.2935
 20
1.4891
 30
0.0
 40
0.0001488
 41
0.0001488
  0
VERTEX
  8
0
 10
11.2574
 20
1.49778
 30
0.0
 40
0.0001488
 41
0.0001488
  0
VERTEX
  8
0
 10
11.2205
 20
1.50065
 30
0.0
 40
0.0001488
 41
0.0001488
  0
VERTEX
  8
0
 10
11.1835
 20
1.49778
 30
0.0
 40
0.0001488
 41
0.0001488
  0
VERTEX
  8
0
 10
11.1475
 20
1.4891
 30
0.0
 40
0.0001488
 41
0.0001488
  0
VERTEX
  8
0
 10
11.1132
 20
1.47488
 30
0.0
 40
0.0001488
 41
0.0001488
  0
VERTEX
  8
0
 10
11.0816
 20
1.45551
 30
0.0
 40
0.0001488
 41
0.0001488
  0
VERTEX
  8
0
 10
11.0534
 20
1.43143
 30
0.0
 40
0.0001488
 41
0.0001488
  0
VERTEX
  8
0
 10
11.0293
 20
1.40321
 30
0.0
 40
0.0001488
 41
0.0001488
  0
VERTEX
  8
0
 10
11.0277
 20
1.40072
 30
0.0
 40
0.0001488
 41
0.0001488
  0
VERTEX
  8
0
 10
11.0099
 20
1.37164
 30
0.0
 40
0.0001488
 41
0.0001488
  0
VERTEX
  8
0
 10
10.9957
 20
1.33735
 30
0.0
 40
0.0001488
 41
0.0001488
  0
VERTEX
  8
0
 10
10.987
 20
1.30127
 30
0.0
 40
0.0001488
 41
0.0001488
  0
VERTEX
  8
0
 10
10.9842
 20
1.26432
 30
0.0
 40
0.0001488
 41
0.0001488
  0
VERTEX
  8
0
 10
10.987
 20
1.22738
 30
0.0
 40
0.0001488
 41
0.0001488
  0
VERTEX
  8
0
 10
10.9957
 20
1.1913
 30
0.0
 40
0.0001488
 41
0.0001488
  0
VERTEX
  8
0
 10
11.0099
 20
1.15706
 30
0.0
 40
0.0001488
 41
0.0001488
  0
VERTEX
  8
0
 10
11.0293
 20
1.12543
 30
0.0
 40
0.0001488
 41
0.0001488
  0
VERTEX
  8
0
 10
11.0534
 20
1.09722
 30
0.0
 40
0.0001488
 41
0.0001488
  0
SEQEND
 8
0
  0
ENDSEC
  0
EOF
