<?xml version="1.0" standalone="no"?>
<!DOCTYPE svg PUBLIC "-//W3C//DTD SVG 1.1//EN"
  "http://www.w3.org/Graphics/SVG/1.1/DTD/svg11.dtd">
<svg width="42mm" height="36.86000061035155mm" viewBox="-41 18.999999999999996 42 36.86000061035155" xmlns="http://www.w3.org/2000/svg" version="1.1">
	<title>svgOutput</title>
	<desc>made with tinkercad</desc>
<path d="M 0 31.497999191284173 L -1.003000020980835 31.497999191284173 L -1.003000020980835 43.502998352050774 L 0 43.502998352050774 L 0 54.86000061035155 L -1.003000020980835 54.86000061035155 L -4.998000144958496 54.86000061035155 L -4.998000144958496 48.9980010986328 L -10.003000259399414 48.9980010986328 L -10.003000259399414 54.86000061035155 L -14.998000144958496 54.86000061035155 L -35.00299835205078 54.86000061035155 L -40 54.86000061035155 L -40 19.999999999999996 L -35.00299835205078 19.999999999999996 L -14.998000144958496 19.999999999999996 L -10.003000259399414 19.999999999999996 L -10.003000259399414 26.003000259399407 L -4.998000144958496 26.003000259399407 L -4.998000144958496 19.999999999999996 L -1.003000020980835 19.999999999999996 L 0 19.999999999999996 L 0 31.497999191284173 M -14.998000144958496 24.997999191284173 L -35.00299835205078 24.997999191284173 L -35.00299835205078 30.997999191284173 L -35.00299835205078 44.002998352050774 L -35.00299835205078 50.00299835205077 L -14.998000144958496 50.00299835205077 L -14.998000144958496 44.002998352050774 L -10.003000259399414 44.002998352050774 L -4.998000144958496 44.002998352050774 L -4.998000144958496 30.997999191284173 L -10.003000259399414 30.997999191284173 L -14.998000144958496 30.997999191284173 L -14.998000144958496 24.997999191284173 z" fill="none" stroke="rgb(255,0,0)" stroke-width="0.001mm" />
</svg>