<?xml version="1.0" standalone="no"?>
<!DOCTYPE svg PUBLIC "-//W3C//DTD SVG 1.1//EN"
  "http://www.w3.org/Graphics/SVG/1.1/DTD/svg11.dtd">
<svg width="104mm" height="117.49999999999997mm" viewBox="-35 -41.99999999999999 104 117.49999999999997" xmlns="http://www.w3.org/2000/svg" version="1.1">
	<title>svgOutput</title>
	<desc>made with tinkercad</desc>
<path d="M 62.63673782348633 62.50299835205077 L 62.597999572753906 62.749999999999986 L 62.68299865722656 63.29199981689452 L 62.93199920654297 63.77999877929686 L 63.31999969482422 64.16799926757811 L 63.80799865722656 64.41699981689452 L 64.3499984741211 64.50299835205077 L 64.89199829101562 64.41699981689452 L 65.37999725341797 64.16799926757811 L 65.76799774169922 63.77999877929686 L 66.01699829101562 63.29199981689452 L 66.10299682617188 62.749999999999986 L 66.06380462646484 62.50299835205077 L 66.10299682617188 62.50299835205077 L 66.10299682617188 61.43999862670897 L 66.10299682617188 60.9980010986328 L 66.10299682617188 60.4980010986328 L 66.0630111694336 60.4980010986328 L 66.01699829101562 60.208000183105455 L 65.76799774169922 59.72000122070311 L 65.37999725341797 59.33200073242186 L 64.89199829101562 59.083000183105455 L 64.3499984741211 58.9980010986328 L 63.80799865722656 59.083000183105455 L 63.31999969482422 59.33200073242186 L 62.93199920654297 59.72000122070311 L 62.68299865722656 60.208000183105455 L 62.63751983642578 60.4980010986328 L 62.597999572753906 60.4980010986328 L 62.597999572753906 60.9980010986328 L 62.597999572753906 61.43999862670897 L 62.597999572753906 62.05400085449217 L 62.597999572753906 62.3745880126953 L 62.597999572753906 62.50299835205077 L 62.63673782348633 62.50299835205077 M 62.59831237792969 42.248001098632805 L 62.597999572753906 42.248001098632805 L 62.597999572753906 44.252998352050774 L 62.59846878051758 44.252998352050774 L 62.68299865722656 44.791999816894524 L 62.81770324707031 45.05599975585937 L 62.93199920654297 45.27999877929687 L 63.31999969482422 45.66799926757812 L 63.80799865722656 45.916999816894524 L 64.3499984741211 46.002998352050774 L 64.89199829101562 45.916999816894524 L 65.37999725341797 45.66799926757812 L 65.76799774169922 45.27999877929687 L 65.88229370117188 45.05599975585937 L 66.01699829101562 44.791999816894524 L 66.10252380371094 44.252998352050774 L 66.10299682617188 44.252998352050774 L 66.10299682617188 42.248001098632805 L 66.1026840209961 42.248001098632805 L 66.01699829101562 41.70800018310546 L 65.76799774169922 41.22000122070312 L 65.50800323486328 40.95999908447265 L 65.37999725341797 40.83200073242187 L 64.89199829101562 40.58300018310546 L 64.3499984741211 40.498001098632805 L 63.80799865722656 40.58300018310546 L 63.31999969482422 40.83200073242187 L 63.19200134277344 40.95999908447265 L 62.93199920654297 41.22000122070312 L 62.68299865722656 41.70800018310546 L 62.59831237792969 42.248001098632805 M 68 74.49999999999999 L 62.597999572753906 74.49999999999999 L 60 74.49999999999999 L 60 59.00299835205077 L 60 49.15200042724608 L 60 49.01892471313475 L 60.00299835205078 48.999999999999986 L 60 48.98107528686522 L 59.51300048828125 45.90900039672851 L 58.09199905395508 43.12099838256835 L 55.87900161743164 40.908000946044915 L 53.090999603271484 39.48699951171874 L 50.01264190673828 38.99999999999999 L 50 38.998001098632805 L 49.98735809326172 38.99999999999999 L 39.99800109863281 38.99999999999999 L 34.99800109863281 38.99999999999999 L -7.002999782562256 38.99999999999999 L -7.580012321472168 38.99999999999999 L -10.00840950012207 38.99999999999999 L -12.029000282287598 38.99999999999999 L -13.864493370056152 38.99999999999999 L -15.987358093261719 38.99999999999999 L -16 38.998001098632805 L -16.003000259399414 38.99847412109374 L -16.01264190673828 38.99999999999999 L -19.090999603271484 39.48699951171874 L -21.878999710083008 40.908000946044915 L -24.091999053955078 43.12099838256835 L -25.51300048828125 45.90900039672851 L -26 48.98107528686522 L -26.003000259399414 48.999999999999986 L -26 49.01892471313475 L -26 49.15200042724608 L -26 59.00299835205077 L -26 64.50299835205077 L -26 74.49999999999999 L -30 74.49999999999999 L -32.303001403808594 74.49999999999999 L -34 74.49999999999999 L -34 36.99999999999999 L -34 35.002998352050774 L -32.76300048828125 34.80699920654296 L -31.64699935913086 34.23799896240234 L -30.761999130249023 33.35300064086913 L -30.463733673095703 32.76800155639648 L -30.19300079345703 32.23699951171874 L -30 31.01268768310546 L -29.99799919128418 30.999999999999993 L -30 30.987312316894524 L -30 26.997999191284173 L -30 -40.99999999999999 L -29.99799919128418 -40.99999999999999 L -27.003000259399414 -40.99999999999999 L -26.003000259399414 -40.99999999999999 L -26 -40.99999999999999 L -23.503000259399414 -40.99999999999999 L -22.99799919128418 -40.99999999999999 L -20.49799919128418 -40.99999999999999 L -18.99799919128418 -40.99999999999999 L -18.003000259399414 -40.99999999999999 L -16 -40.99999999999999 L 2.003000020980835 -40.99999999999999 L 34.99800109863281 -40.99999999999999 L 50 -40.99999999999999 L 53.99800109863281 -40.99999999999999 L 55.00299835205078 -40.99999999999999 L 57.00299835205078 -40.99999999999999 L 60 -40.99999999999999 L 60 -34.998001098632805 L 60 -15.998000144958493 L 60 15.998000144958493 L 60 17.26286125183105 L 60 19.205762863159176 L 60 20.822000503540036 L 60 22.290288925170895 L 60 23.987350463867184 L 59.99800109863281 23.999999999999993 L 60 24.012649536132805 L 60 24.499999999999993 L 60.00299835205078 24.499999999999993 L 60.07705307006836 24.499999999999993 L 60.388999938964844 26.4729995727539 L 61.5260009765625 28.704000473022454 L 62.597999572753906 29.77599906921386 L 63.29600143432617 30.474000930786126 L 65.5270004272461 31.61100006103515 L 65.53600311279297 31.612422943115227 L 66.10299682617188 31.702070236206048 L 68 32.00199890136718 L 68 64.50299835205077 L 68 74.49999999999999 M 46.00299835205078 -35.923530578613274 L 46.00299835205078 -36.002998352050774 L 45 -36.002998352050774 L 34.99800109863281 -36.002998352050774 L 2.003000020980835 -36.002998352050774 L 0 -36.002998352050774 L -8 -36.002998352050774 L -9.003000259399414 -36.002998352050774 L -9.003000259399414 -35.923530578613274 L -9.5649995803833 -35.87900161743163 L -11.090999603271484 -35.51300048828124 L -12.541000366210938 -34.91199874877929 L -13.878999710083008 -34.09199905395507 L -15.072999954223633 -33.07300186157226 L -15.333297729492188 -32.76800155639648 L -16 -31.986799240112298 L -16.091999053955078 -31.878999710083 L -16.384000778198242 -31.402542114257805 L -16.91200065612793 -30.54100036621093 L -17.51300048828125 -29.090999603271477 L -17.878999710083008 -27.56500053405761 L -18.002761840820312 -26.003000259399407 L -18.003000259399414 -26.003000259399407 L -18.003000259399414 -25.999999999999993 L -18.003000259399414 -15.998000144958493 L -18.003000259399414 -1.998000025749206 L -16.003000259399414 -1.998000025749206 L -16 -1.998000025749206 L -7.002999782562256 -1.998000025749206 L 21.49799919128418 -1.998000025749206 L 23.503000259399414 -1.998000025749206 L 24.99799919128418 -1.998000025749206 L 34.99800109863281 -1.998000025749206 L 45.00299835205078 -1.998000025749206 L 46.49800109863281 -1.998000025749206 L 48.50299835205078 -1.998000025749206 L 50 -1.998000025749206 L 55.00299835205078 -1.998000025749206 L 55.00299835205078 -15.998000144958493 L 55.00299835205078 -19.35190391540527 L 55.00299835205078 -20.4354133605957 L 55.00299835205078 -21.42756080627441 L 55.00299835205078 -22.360189437866207 L 55.00299835205078 -23.23919296264648 L 55.00299835205078 -24.091196060180657 L 55.00299835205078 -24.952005386352532 L 55.00299835205078 -25.999999999999993 L 55.00299835205078 -26.003000259399407 L 55.00276184082031 -26.003000259399407 L 54.87900161743164 -27.56500053405761 L 54.51300048828125 -29.090999603271477 L 53.9119987487793 -30.54100036621093 L 53.09199905395508 -31.878999710083 L 52.33329772949219 -32.76800155639648 L 52.073001861572266 -33.07300186157226 L 50.87900161743164 -34.09199905395507 L 50 -34.63069915771484 L 49.54100036621094 -34.91199874877929 L 48.090999603271484 -35.51300048828124 L 46.564998626708984 -35.87900161743163 L 46.00299835205078 -35.923530578613274 M 55.00276184082031 24.003000259399407 L 55.00299835205078 24.003000259399407 L 55.00299835205078 23.999999999999993 L 55.00299835205078 13.998000144958493 L 55.00299835205078 9.998000144958494 L 50 9.998000144958494 L 46.49800109863281 9.998000144958494 L 45.00299835205078 9.998000144958494 L 34.99800109863281 9.998000144958494 L 24.99799919128418 9.998000144958494 L 21.49799919128418 9.998000144958494 L -7.002999782562256 9.998000144958494 L -16 9.998000144958494 L -16.003000259399414 9.998000144958494 L -16.003000259399414 13.998000144958493 L -16.003000259399414 16.38400077819824 L -16.003000259399414 19.42756080627441 L -16.003000259399414 20.360189437866207 L -16.003000259399414 21.23919296264648 L -16.003000259399414 22.09119606018066 L -16.003000259399414 22.952005386352536 L -16.003000259399414 23.999999999999993 L -16.003000259399414 24.003000259399407 L -16.002761840820312 24.003000259399407 L -16 24.037862777709954 L -15.878999710083008 25.56500053405761 L -15.534106254577637 27.003000259399407 L -15.512999534606934 27.090999603271477 L -14.911999702453613 28.54100036621093 L -14.092000007629395 29.878999710083 L -13.072999954223633 31.072999954223626 L -11.878999710083008 32.09199905395507 L -10.775965690612793 32.76800155639648 L -10.541000366210938 32.91199874877929 L -9.090999603271484 33.51300048828124 L -7.565000057220459 33.87900161743163 L -7.002999782562256 33.923530578613274 L -7.002999782562256 34.002998352050774 L 34.99800109863281 34.002998352050774 L 39.99800109863281 34.002998352050774 L 42.239192962646484 34.002998352050774 L 43.0911979675293 34.002998352050774 L 43.95200729370117 34.002998352050774 L 45 34.002998352050774 L 46.00299835205078 34.002998352050774 L 46.00299835205078 33.923530578613274 L 46.564998626708984 33.87900161743163 L 48.090999603271484 33.51300048828124 L 49.54100036621094 32.91199874877929 L 49.77596664428711 32.76800155639648 L 50 32.63069915771484 L 50.87900161743164 32.09199905395507 L 52.073001861572266 31.072999954223626 L 53.09199905395508 29.878999710083 L 53.9119987487793 28.54100036621093 L 54.51300048828125 27.090999603271477 L 54.53410720825195 27.003000259399407 L 54.87900161743164 25.56500053405761 L 55.00276184082031 24.003000259399407 M -28.83673667907715 62.50299835205077 L -28.79800033569336 62.50299835205077 L -28.79800033569336 61.43999862670897 L -28.79800033569336 60.9980010986328 L -28.79800033569336 60.4980010986328 L -28.837520599365234 60.4980010986328 L -28.882999420166016 60.208000183105455 L -29.131999969482422 59.72000122070311 L -29.520000457763672 59.33200073242186 L -30 59.08708190917967 L -30.007999420166016 59.083000183105455 L -30.549999237060547 58.9980010986328 L -31.091999053955078 59.083000183105455 L -31.579999923706055 59.33200073242186 L -31.968000411987305 59.72000122070311 L -32.21699905395508 60.208000183105455 L -32.26301574707031 60.4980010986328 L -32.303001403808594 60.4980010986328 L -32.303001403808594 60.9980010986328 L -32.303001403808594 61.43999862670897 L -32.303001403808594 62.05500030517577 L -32.303001403808594 62.376544952392564 L -32.303001403808594 62.50299835205077 L -32.26380920410156 62.50299835205077 L -32.303001403808594 62.749999999999986 L -32.21699905395508 63.29199981689452 L -31.968000411987305 63.77999877929686 L -31.579999923706055 64.16799926757811 L -31.091999053955078 64.41699981689452 L -30.549999237060547 64.50299835205077 L -30.007999420166016 64.41699981689452 L -30 64.4129180908203 L -29.520000457763672 64.16799926757811 L -29.131999969482422 63.77999877929686 L -28.882999420166016 63.29199981689452 L -28.79800033569336 62.749999999999986 L -28.83673667907715 62.50299835205077 M 48.452999114990234 4.30999994277954 L 48.48751449584961 4.09600019454956 L 48.50299835205078 3.999999999999999 L 48.452999114990234 3.690000057220458 L 48.31100082397461 3.4110000133514395 L 48.0890007019043 3.188999891281127 L 47.810001373291016 3.0469999313354483 L 47.5 2.9979999065399165 L 47.189998626708984 3.0469999313354483 L 46.9109992980957 3.188999891281127 L 46.68899917602539 3.4110000133514395 L 46.547000885009766 3.690000057220458 L 46.49800109863281 3.999999999999999 L 46.51317596435547 4.09600019454956 L 46.547000885009766 4.30999994277954 L 46.68899917602539 4.589000225067138 L 46.9109992980957 4.810999870300292 L 47.189998626708984 4.95300006866455 L 47.5 5.002999782562255 L 47.810001373291016 4.95300006866455 L 48.0890007019043 4.810999870300292 L 48.31100082397461 4.589000225067138 L 48.452999114990234 4.30999994277954 M 23.487516403198242 4.09600019454956 L 23.503000259399414 3.999999999999999 L 23.452999114990234 3.690000057220458 L 23.31100082397461 3.4110000133514395 L 23.089000701904297 3.188999891281127 L 22.809999465942383 3.0469999313354483 L 22.5 2.9979999065399165 L 22.190000534057617 3.0469999313354483 L 21.910999298095703 3.188999891281127 L 21.68899917602539 3.4110000133514395 L 21.547000885009766 3.690000057220458 L 21.49799919128418 3.999999999999999 L 21.513174057006836 4.09600019454956 L 21.547000885009766 4.30999994277954 L 21.68899917602539 4.589000225067138 L 21.910999298095703 4.810999870300292 L 22.190000534057617 4.95300006866455 L 22.5 5.002999782562255 L 22.809999465942383 4.95300006866455 L 23.089000701904297 4.810999870300292 L 23.31100082397461 4.589000225067138 L 23.452999114990234 4.30999994277954 L 23.487516403198242 4.09600019454956 M 24.99799919128418 7.002999782562254 L 34.99800109863281 7.002999782562254 L 45.00299835205078 7.002999782562254 L 45.00299835205078 0.9980000257492064 L 34.99800109863281 0.9980000257492064 L 24.99799919128418 0.9980000257492064 L 24.99799919128418 5.002999782562255 L 24.99799919128418 7.002999782562254 M 54.617000579833984 -35.28400039672851 L 55.00299835205078 -35.087776184082024 L 55.0359992980957 -35.070999145507805 L 55.5 -34.998001098632805 L 55.9640007019043 -35.070999145507805 L 56.382999420166016 -35.28400039672851 L 56.715999603271484 -35.61700057983398 L 56.92900085449219 -36.035999298095696 L 57.00299835205078 -36.49999999999999 L 56.944950103759766 -36.86399841308593 L 56.92900085449219 -36.96400070190429 L 56.715999603271484 -37.38299942016601 L 56.382999420166016 -37.71599960327148 L 55.9640007019043 -37.92900085449218 L 55.5 -38.002998352050774 L 55.0359992980957 -37.92900085449218 L 55.00299835205078 -37.91222381591796 L 54.617000579833984 -37.71599960327148 L 54.284000396728516 -37.38299942016601 L 54.07099914550781 -36.96400070190429 L 54.055267333984375 -36.86399841308593 L 53.99800109863281 -36.49999999999999 L 54.07099914550781 -36.035999298095696 L 54.08777618408203 -36.002998352050774 L 54.284000396728516 -35.61700057983398 L 54.617000579833984 -35.28400039672851 M 53.57099914550781 33.96400070190429 L 53.590824127197266 34.002998352050774 L 53.784000396728516 34.38299942016601 L 54.117000579833984 34.71599960327148 L 54.5359992980957 34.92900085449218 L 55 35.002998352050774 L 55.4640007019043 34.92900085449218 L 55.882999420166016 34.71599960327148 L 56.215999603271484 34.38299942016601 L 56.409175872802734 34.002998352050774 L 56.42900085449219 33.96400070190429 L 56.50299835205078 33.49999999999999 L 56.42900085449219 33.035999298095696 L 56.292762756347656 32.76800155639648 L 56.215999603271484 32.61700057983398 L 55.882999420166016 32.28400039672851 L 55.4640007019043 32.070999145507805 L 55.00299835205078 31.99847221374511 L 55 31.997999191284173 L 54.5359992980957 32.070999145507805 L 54.117000579833984 32.28400039672851 L 53.784000396728516 32.61700057983398 L 53.707237243652344 32.76800155639648 L 53.57099914550781 33.035999298095696 L 53.5251350402832 33.32752609252929 L 53.49800109863281 33.49999999999999 L 53.57099914550781 33.96400070190429 M -26 33.481189727783196 L -26.003000259399414 33.49999999999999 L -26 33.51881027221679 L -25.929000854492188 33.96400070190429 L -25.715999603271484 34.38299942016601 L -25.382999420166016 34.71599960327148 L -24.964000701904297 34.92900085449218 L -24.5 35.002998352050774 L -24.035999298095703 34.92900085449218 L -23.617000579833984 34.71599960327148 L -23.503000259399414 34.60200119018554 L -23.284000396728516 34.38299942016601 L -23.070999145507812 33.96400070190429 L -22.99799919128418 33.49999999999999 L -23.070999145507812 33.035999298095696 L -23.207239151000977 32.76800155639648 L -23.284000396728516 32.61700057983398 L -23.503000259399414 32.397998809814446 L -23.617000579833984 32.28400039672851 L -24.035999298095703 32.070999145507805 L -24.5 31.997999191284173 L -24.964000701904297 32.070999145507805 L -25.382999420166016 32.28400039672851 L -25.715999603271484 32.61700057983398 L -25.792760848999023 32.76800155639648 L -25.929000854492188 33.035999298095696 L -26 33.481189727783196 M -29.131999969482422 41.22000122070312 L -29.392000198364258 40.95999908447265 L -29.520000457763672 40.83200073242187 L -30 40.58708190917968 L -30.007999420166016 40.58300018310546 L -30.549999237060547 40.498001098632805 L -31.091999053955078 40.58300018310546 L -31.579999923706055 40.83200073242187 L -31.70800018310547 40.95999908447265 L -31.968000411987305 41.22000122070312 L -32.21699905395508 41.70800018310546 L -32.30268096923828 42.248001098632805 L -32.303001403808594 42.248001098632805 L -32.303001403808594 44.252998352050774 L -32.30252456665039 44.252998352050774 L -32.21699905395508 44.791999816894524 L -32.08229446411133 45.05599975585937 L -31.968000411987305 45.27999877929687 L -31.579999923706055 45.66799926757812 L -31.091999053955078 45.916999816894524 L -30.549999237060547 46.002998352050774 L -30.007999420166016 45.916999816894524 L -30 45.912918090820305 L -29.520000457763672 45.66799926757812 L -29.131999969482422 45.27999877929687 L -29.017704010009766 45.05599975585937 L -28.882999420166016 44.791999816894524 L -28.79846954345703 44.252998352050774 L -28.79800033569336 44.252998352050774 L -28.79800033569336 42.248001098632805 L -28.79831314086914 42.248001098632805 L -28.882999420166016 41.70800018310546 L -29.131999969482422 41.22000122070312 M -23.429000854492188 25.035999298095696 L -23.503000259399414 25.499999999999993 L -23.429000854492188 25.96400070190429 L -23.215999603271484 26.38299942016601 L -22.882999420166016 26.715999603271477 L -22.527999877929688 26.896465301513665 L -22.464000701904297 26.92900085449218 L -22 27.003000259399407 L -21.535999298095703 26.92900085449218 L -21.117000579833984 26.715999603271477 L -20.784000396728516 26.38299942016601 L -20.570999145507812 25.96400070190429 L -20.49799919128418 25.499999999999993 L -20.570999145507812 25.035999298095696 L -20.784000396728516 24.617000579833977 L -20.825000762939453 24.57600021362304 L -21.117000579833984 24.28400039672851 L -21.535999298095703 24.070999145507805 L -22 23.997999191284176 L -22.464000701904297 24.070999145507805 L -22.882999420166016 24.28400039672851 L -23.174999237060547 24.57600021362304 L -23.215999603271484 24.617000579833977 L -23.429000854492188 25.035999298095696 M -20.570999145507812 0.03599999845027934 L -20.58930015563965 1.1102230246251565e-16 L -20.784000396728516 -0.38299998641014077 L -21.117000579833984 -0.7160000205039976 L -21.535999298095703 -0.9290000200271603 L -22 -1.0030000209808345 L -22.464000701904297 -0.9290000200271603 L -22.882999420166016 -0.7160000205039976 L -23.215999603271484 -0.38299998641014077 L -23.41069984436035 1.1102230246251565e-16 L -23.429000854492188 0.03599999845027934 L -23.503000259399414 0.5 L -23.429000854492188 0.9639999866485595 L -23.215999603271484 1.3830000162124634 L -22.882999420166016 1.7159999608993526 L -22.464000701904297 1.9290000200271602 L -22 2.0030000209808345 L -21.535999298095703 1.9290000200271602 L -21.117000579833984 1.7159999608993526 L -20.784000396728516 1.3830000162124634 L -20.570999145507812 0.9639999866485595 L -20.49799919128418 0.5 L -20.570999145507812 0.03599999845027934 M -23.070999145507812 -36.035999298095696 L -22.99799919128418 -36.49999999999999 L -23.055267333984375 -36.86399841308593 L -23.070999145507812 -36.96400070190429 L -23.284000396728516 -37.38299942016601 L -23.503000259399414 -37.60200119018554 L -23.617000579833984 -37.71599960327148 L -24.035999298095703 -37.92900085449218 L -24.5 -38.002998352050774 L -24.964000701904297 -37.92900085449218 L -25.382999420166016 -37.71599960327148 L -25.715999603271484 -37.38299942016601 L -25.929000854492188 -36.96400070190429 L -25.944948196411133 -36.86399841308593 L -26 -36.51881027221679 L -26.003000259399414 -36.49999999999999 L -26 -36.481189727783196 L -25.929000854492188 -36.035999298095696 L -25.715999603271484 -35.61700057983398 L -25.382999420166016 -35.28400039672851 L -24.964000701904297 -35.070999145507805 L -24.5 -34.998001098632805 L -24.035999298095703 -35.070999145507805 L -23.617000579833984 -35.28400039672851 L -23.503000259399414 -35.397998809814446 L -23.284000396728516 -35.61700057983398 L -23.070999145507812 -36.035999298095696 M -26 21.00300025939941 L -23.503000259399414 21.00300025939941 L -20.49799919128418 21.00300025939941 L -18.99799919128418 21.00300025939941 L -18.99799919128418 4.998000144958495 L -20.49799919128418 4.998000144958495 L -23.503000259399414 4.998000144958495 L -26 4.998000144958495 L -26.003000259399414 4.998000144958495 L -27.003000259399414 4.998000144958495 L -27.003000259399414 21.00300025939941 L -26.003000259399414 21.00300025939941 L -26 21.00300025939941 z" fill="none" stroke="rgb(255,0,0)" stroke-width="0.001mm" />
</svg>