  0
SECTION
  2
HEADER
  9
$ACADVER
  1
AC1009
  9
$FILLMODE
 70
 0
  9
$SPLFRAME
 70
 1
  9
$EXTMIN
 10
0
 20
0
 30
0.0
  9
$EXTMAX
 10
41.6667
 20
41.6667
 30
0.0
  0
ENDSEC
  0
SECTION
  2
TABLES
  0
TABLE
  2
LAYER
 70
1
  0
LAYER
  2
0
 70
     0
 62
     7
  6
CONTINUOUS
  0
ENDTAB
  0
ENDSEC
  0
SECTION
  2
ENTITIES
  0
POLYLINE
  8
0
 62
     1
 66
     1
 10
0
 20
0
 30
0.0
 70
     1
 40
0.0107136
 41
0.0107136
  0
VERTEX
  8
0
 10
3.84397
 20
0.524576
 30
0.0
 40
0.0001488
 41
0.0001488
  0
VERTEX
  8
0
 10
3.84244
 20
0.514865
 30
0.0
 40
0.0001488
 41
0.0001488
  0
VERTEX
  8
0
 10
3.84581
 20
0.493544
 30
0.0
 40
0.0001488
 41
0.0001488
  0
VERTEX
  8
0
 10
3.85558
 20
0.474338
 30
0.0
 40
0.0001488
 41
0.0001488
  0
VERTEX
  8
0
 10
3.87088
 20
0.459039
 30
0.0
 40
0.0001488
 41
0.0001488
  0
VERTEX
  8
0
 10
3.89008
 20
0.449219
 30
0.0
 40
0.0001488
 41
0.0001488
  0
VERTEX
  8
0
 10
3.9114
 20
0.445856
 30
0.0
 40
0.0001488
 41
0.0001488
  0
VERTEX
  8
0
 10
3.93278
 20
0.449219
 30
0.0
 40
0.0001488
 41
0.0001488
  0
VERTEX
  8
0
 10
3.95199
 20
0.459039
 30
0.0
 40
0.0001488
 41
0.0001488
  0
VERTEX
  8
0
 10
3.96724
 20
0.474338
 30
0.0
 40
0.0001488
 41
0.0001488
  0
VERTEX
  8
0
 10
3.97706
 20
0.493544
 30
0.0
 40
0.0001488
 41
0.0001488
  0
VERTEX
  8
0
 10
3.98042
 20
0.514865
 30
0.0
 40
0.0001488
 41
0.0001488
  0
VERTEX
  8
0
 10
3.97889
 20
0.524576
 30
0.0
 40
0.0001488
 41
0.0001488
  0
VERTEX
  8
0
 10
3.98042
 20
0.524576
 30
0.0
 40
0.0001488
 41
0.0001488
  0
VERTEX
  8
0
 10
3.98042
 20
0.603515
 30
0.0
 40
0.0001488
 41
0.0001488
  0
VERTEX
  8
0
 10
3.97885
 20
0.603515
 30
0.0
 40
0.0001488
 41
0.0001488
  0
VERTEX
  8
0
 10
3.97706
 20
0.614963
 30
0.0
 40
0.0001488
 41
0.0001488
  0
VERTEX
  8
0
 10
3.96724
 20
0.634169
 30
0.0
 40
0.0001488
 41
0.0001488
  0
VERTEX
  8
0
 10
3.95199
 20
0.649414
 30
0.0
 40
0.0001488
 41
0.0001488
  0
VERTEX
  8
0
 10
3.93278
 20
0.659233
 30
0.0
 40
0.0001488
 41
0.0001488
  0
VERTEX
  8
0
 10
3.9114
 20
0.662597
 30
0.0
 40
0.0001488
 41
0.0001488
  0
VERTEX
  8
0
 10
3.89008
 20
0.659233
 30
0.0
 40
0.0001488
 41
0.0001488
  0
VERTEX
  8
0
 10
3.87088
 20
0.649414
 30
0.0
 40
0.0001488
 41
0.0001488
  0
VERTEX
  8
0
 10
3.85558
 20
0.634169
 30
0.0
 40
0.0001488
 41
0.0001488
  0
VERTEX
  8
0
 10
3.84581
 20
0.614963
 30
0.0
 40
0.0001488
 41
0.0001488
  0
VERTEX
  8
0
 10
3.84403
 20
0.603515
 30
0.0
 40
0.0001488
 41
0.0001488
  0
VERTEX
  8
0
 10
3.84244
 20
0.603515
 30
0.0
 40
0.0001488
 41
0.0001488
  0
VERTEX
  8
0
 10
3.84244
 20
0.524576
 30
0.0
 40
0.0001488
 41
0.0001488
  0
VERTEX
  8
0
 10
3.84397
 20
0.524576
 30
0.0
 40
0.0001488
 41
0.0001488
  0
SEQEND
 8
0
  0
POLYLINE
  8
0
 62
     1
 66
     1
 10
0
 20
0
 30
0.0
 70
     1
 40
0.0107136
 41
0.0107136
  0
VERTEX
  8
0
 10
3.84244
 20
1.32205
 30
0.0
 40
0.0001488
 41
0.0001488
  0
VERTEX
  8
0
 10
3.84244
 20
1.24311
 30
0.0
 40
0.0001488
 41
0.0001488
  0
VERTEX
  8
0
 10
3.84581
 20
1.2219
 30
0.0
 40
0.0001488
 41
0.0001488
  0
VERTEX
  8
0
 10
3.85107
 20
1.21148
 30
0.0
 40
0.0001488
 41
0.0001488
  0
VERTEX
  8
0
 10
3.85558
 20
1.20269
 30
0.0
 40
0.0001488
 41
0.0001488
  0
VERTEX
  8
0
 10
3.87088
 20
1.18739
 30
0.0
 40
0.0001488
 41
0.0001488
  0
VERTEX
  8
0
 10
3.89008
 20
1.17757
 30
0.0
 40
0.0001488
 41
0.0001488
  0
VERTEX
  8
0
 10
3.9114
 20
1.17421
 30
0.0
 40
0.0001488
 41
0.0001488
  0
VERTEX
  8
0
 10
3.93278
 20
1.17757
 30
0.0
 40
0.0001488
 41
0.0001488
  0
VERTEX
  8
0
 10
3.95199
 20
1.18739
 30
0.0
 40
0.0001488
 41
0.0001488
  0
VERTEX
  8
0
 10
3.96724
 20
1.20269
 30
0.0
 40
0.0001488
 41
0.0001488
  0
VERTEX
  8
0
 10
3.97174
 20
1.21148
 30
0.0
 40
0.0001488
 41
0.0001488
  0
VERTEX
  8
0
 10
3.97706
 20
1.2219
 30
0.0
 40
0.0001488
 41
0.0001488
  0
VERTEX
  8
0
 10
3.98042
 20
1.24311
 30
0.0
 40
0.0001488
 41
0.0001488
  0
VERTEX
  8
0
 10
3.98042
 20
1.32205
 30
0.0
 40
0.0001488
 41
0.0001488
  0
VERTEX
  8
0
 10
3.97706
 20
1.34332
 30
0.0
 40
0.0001488
 41
0.0001488
  0
VERTEX
  8
0
 10
3.96724
 20
1.36252
 30
0.0
 40
0.0001488
 41
0.0001488
  0
VERTEX
  8
0
 10
3.95199
 20
1.37777
 30
0.0
 40
0.0001488
 41
0.0001488
  0
VERTEX
  8
0
 10
3.93278
 20
1.38759
 30
0.0
 40
0.0001488
 41
0.0001488
  0
VERTEX
  8
0
 10
3.9114
 20
1.39094
 30
0.0
 40
0.0001488
 41
0.0001488
  0
VERTEX
  8
0
 10
3.89008
 20
1.38759
 30
0.0
 40
0.0001488
 41
0.0001488
  0
VERTEX
  8
0
 10
3.87088
 20
1.37777
 30
0.0
 40
0.0001488
 41
0.0001488
  0
VERTEX
  8
0
 10
3.86583
 20
1.37272
 30
0.0
 40
0.0001488
 41
0.0001488
  0
VERTEX
  8
0
 10
3.85558
 20
1.36252
 30
0.0
 40
0.0001488
 41
0.0001488
  0
VERTEX
  8
0
 10
3.84581
 20
1.34332
 30
0.0
 40
0.0001488
 41
0.0001488
  0
VERTEX
  8
0
 10
3.84244
 20
1.32205
 30
0.0
 40
0.0001488
 41
0.0001488
  0
SEQEND
 8
0
  0
POLYLINE
  8
0
 62
     1
 66
     1
 10
0
 20
0
 30
0.0
 70
     1
 40
0.0107136
 41
0.0107136
  0
VERTEX
  8
0
 10
4.05512
 20
0.0523004
 30
0.0
 40
0.0001488
 41
0.0001488
  0
VERTEX
  8
0
 10
3.74018
 20
0.0523004
 30
0.0
 40
0.0001488
 41
0.0001488
  0
VERTEX
  8
0
 10
3.74018
 20
1.05545
 30
0.0
 40
0.0001488
 41
0.0001488
  0
VERTEX
  8
0
 10
3.74029
 20
1.05621
 30
0.0
 40
0.0001488
 41
0.0001488
  0
VERTEX
  8
0
 10
3.74018
 20
1.05697
 30
0.0
 40
0.0001488
 41
0.0001488
  0
VERTEX
  8
0
 10
3.72097
 20
1.1779
 30
0.0
 40
0.0001488
 41
0.0001488
  0
VERTEX
  8
0
 10
3.66504
 20
1.28765
 30
0.0
 40
0.0001488
 41
0.0001488
  0
VERTEX
  8
0
 10
3.5779
 20
1.37478
 30
0.0
 40
0.0001488
 41
0.0001488
  0
VERTEX
  8
0
 10
3.46815
 20
1.43072
 30
0.0
 40
0.0001488
 41
0.0001488
  0
VERTEX
  8
0
 10
3.34694
 20
1.44993
 30
0.0
 40
0.0001488
 41
0.0001488
  0
VERTEX
  8
0
 10
3.34646
 20
1.44997
 30
0.0
 40
0.0001488
 41
0.0001488
  0
VERTEX
  8
0
 10
3.34597
 20
1.44993
 30
0.0
 40
0.0001488
 41
0.0001488
  0
VERTEX
  8
0
 10
0.748535
 20
1.44993
 30
0.0
 40
0.0001488
 41
0.0001488
  0
VERTEX
  8
0
 10
0.748047
 20
1.44997
 30
0.0
 40
0.0001488
 41
0.0001488
  0
VERTEX
  8
0
 10
0.747939
 20
1.44997
 30
0.0
 40
0.0001488
 41
0.0001488
  0
VERTEX
  8
0
 10
0.747558
 20
1.44993
 30
0.0
 40
0.0001488
 41
0.0001488
  0
VERTEX
  8
0
 10
0.626357
 20
1.43072
 30
0.0
 40
0.0001488
 41
0.0001488
  0
VERTEX
  8
0
 10
0.516601
 20
1.37478
 30
0.0
 40
0.0001488
 41
0.0001488
  0
VERTEX
  8
0
 10
0.429471
 20
1.28765
 30
0.0
 40
0.0001488
 41
0.0001488
  0
VERTEX
  8
0
 10
0.373481
 20
1.1779
 30
0.0
 40
0.0001488
 41
0.0001488
  0
VERTEX
  8
0
 10
0.354329
 20
1.05697
 30
0.0
 40
0.0001488
 41
0.0001488
  0
VERTEX
  8
0
 10
0.354221
 20
1.05621
 30
0.0
 40
0.0001488
 41
0.0001488
  0
VERTEX
  8
0
 10
0.354329
 20
1.05545
 30
0.0
 40
0.0001488
 41
0.0001488
  0
VERTEX
  8
0
 10
0.354329
 20
0.0523004
 30
0.0
 40
0.0001488
 41
0.0001488
  0
VERTEX
  8
0
 10
0.0393881
 20
0.0523004
 30
0.0
 40
0.0001488
 41
0.0001488
  0
VERTEX
  8
0
 10
0.0393881
 20
1.60726
 30
0.0
 40
0.0001488
 41
0.0001488
  0
VERTEX
  8
0
 10
0.0880533
 20
1.61501
 30
0.0
 40
0.0001488
 41
0.0001488
  0
VERTEX
  8
0
 10
0.131999
 20
1.63737
 30
0.0
 40
0.0001488
 41
0.0001488
  0
VERTEX
  8
0
 10
0.166829
 20
1.67225
 30
0.0
 40
0.0001488
 41
0.0001488
  0
VERTEX
  8
0
 10
0.178603
 20
1.69526
 30
0.0
 40
0.0001488
 41
0.0001488
  0
VERTEX
  8
0
 10
0.189236
 20
1.71615
 30
0.0
 40
0.0001488
 41
0.0001488
  0
VERTEX
  8
0
 10
0.196832
 20
1.76438
 30
0.0
 40
0.0001488
 41
0.0001488
  0
VERTEX
  8
0
 10
0.19694
 20
1.76486
 30
0.0
 40
0.0001488
 41
0.0001488
  0
VERTEX
  8
0
 10
0.196832
 20
1.76535
 30
0.0
 40
0.0001488
 41
0.0001488
  0
VERTEX
  8
0
 10
0.196832
 20
4.5995
 30
0.0
 40
0.0001488
 41
0.0001488
  0
VERTEX
  8
0
 10
3.74018
 20
4.5995
 30
0.0
 40
0.0001488
 41
0.0001488
  0
VERTEX
  8
0
 10
3.74018
 20
2.04096
 30
0.0
 40
0.0001488
 41
0.0001488
  0
VERTEX
  8
0
 10
3.74007
 20
2.04047
 30
0.0
 40
0.0001488
 41
0.0001488
  0
VERTEX
  8
0
 10
3.74018
 20
2.03999
 30
0.0
 40
0.0001488
 41
0.0001488
  0
VERTEX
  8
0
 10
3.74018
 20
2.02078
 30
0.0
 40
0.0001488
 41
0.0001488
  0
VERTEX
  8
0
 10
3.74317
 20
2.02078
 30
0.0
 40
0.0001488
 41
0.0001488
  0
VERTEX
  8
0
 10
3.75549
 20
1.94308
 30
0.0
 40
0.0001488
 41
0.0001488
  0
VERTEX
  8
0
 10
3.80024
 20
1.85525
 30
0.0
 40
0.0001488
 41
0.0001488
  0
VERTEX
  8
0
 10
3.8699
 20
1.7856
 30
0.0
 40
0.0001488
 41
0.0001488
  0
VERTEX
  8
0
 10
3.95774
 20
1.74083
 30
0.0
 40
0.0001488
 41
0.0001488
  0
VERTEX
  8
0
 10
3.95811
 20
1.74078
 30
0.0
 40
0.0001488
 41
0.0001488
  0
VERTEX
  8
0
 10
3.98042
 20
1.73725
 30
0.0
 40
0.0001488
 41
0.0001488
  0
VERTEX
  8
0
 10
4.05512
 20
1.72542
 30
0.0
 40
0.0001488
 41
0.0001488
  0
VERTEX
  8
0
 10
4.05512
 20
0.0523004
 30
0.0
 40
0.0001488
 41
0.0001488
  0
SEQEND
 8
0
  0
POLYLINE
  8
0
 62
     1
 66
     1
 10
0
 20
0
 30
0.0
 70
     1
 40
0.0107136
 41
0.0107136
  0
VERTEX
  8
0
 10
3.18907
 20
4.39963
 30
0.0
 40
0.0001488
 41
0.0001488
  0
VERTEX
  8
0
 10
3.18907
 20
4.40278
 30
0.0
 40
0.0001488
 41
0.0001488
  0
VERTEX
  8
0
 10
1.02349
 20
4.40278
 30
0.0
 40
0.0001488
 41
0.0001488
  0
VERTEX
  8
0
 10
1.02349
 20
4.39963
 30
0.0
 40
0.0001488
 41
0.0001488
  0
VERTEX
  8
0
 10
1.00136
 20
4.39789
 30
0.0
 40
0.0001488
 41
0.0001488
  0
VERTEX
  8
0
 10
0.941297
 20
4.38351
 30
0.0
 40
0.0001488
 41
0.0001488
  0
VERTEX
  8
0
 10
0.884224
 20
4.35981
 30
0.0
 40
0.0001488
 41
0.0001488
  0
VERTEX
  8
0
 10
0.831543
 20
4.32753
 30
0.0
 40
0.0001488
 41
0.0001488
  0
VERTEX
  8
0
 10
0.784506
 20
4.28743
 30
0.0
 40
0.0001488
 41
0.0001488
  0
VERTEX
  8
0
 10
0.774306
 20
4.27544
 30
0.0
 40
0.0001488
 41
0.0001488
  0
VERTEX
  8
0
 10
0.748047
 20
4.24468
 30
0.0
 40
0.0001488
 41
0.0001488
  0
VERTEX
  8
0
 10
0.744412
 20
4.24046
 30
0.0
 40
0.0001488
 41
0.0001488
  0
VERTEX
  8
0
 10
0.73291
 20
4.22168
 30
0.0
 40
0.0001488
 41
0.0001488
  0
VERTEX
  8
0
 10
0.712131
 20
4.18778
 30
0.0
 40
0.0001488
 41
0.0001488
  0
VERTEX
  8
0
 10
0.688476
 20
4.13064
 30
0.0
 40
0.0001488
 41
0.0001488
  0
VERTEX
  8
0
 10
0.674046
 20
4.07058
 30
0.0
 40
0.0001488
 41
0.0001488
  0
VERTEX
  8
0
 10
0.669162
 20
4.00906
 30
0.0
 40
0.0001488
 41
0.0001488
  0
VERTEX
  8
0
 10
0.669162
 20
3.06401
 30
0.0
 40
0.0001488
 41
0.0001488
  0
VERTEX
  8
0
 10
3.5434
 20
3.06401
 30
0.0
 40
0.0001488
 41
0.0001488
  0
VERTEX
  8
0
 10
3.5434
 20
4.00906
 30
0.0
 40
0.0001488
 41
0.0001488
  0
VERTEX
  8
0
 10
3.53851
 20
4.07058
 30
0.0
 40
0.0001488
 41
0.0001488
  0
VERTEX
  8
0
 10
3.52414
 20
4.13064
 30
0.0
 40
0.0001488
 41
0.0001488
  0
VERTEX
  8
0
 10
3.50049
 20
4.18778
 30
0.0
 40
0.0001488
 41
0.0001488
  0
VERTEX
  8
0
 10
3.46821
 20
4.24046
 30
0.0
 40
0.0001488
 41
0.0001488
  0
VERTEX
  8
0
 10
3.43832
 20
4.27544
 30
0.0
 40
0.0001488
 41
0.0001488
  0
VERTEX
  8
0
 10
3.42806
 20
4.28743
 30
0.0
 40
0.0001488
 41
0.0001488
  0
VERTEX
  8
0
 10
3.38108
 20
4.32753
 30
0.0
 40
0.0001488
 41
0.0001488
  0
VERTEX
  8
0
 10
3.34646
 20
4.34874
 30
0.0
 40
0.0001488
 41
0.0001488
  0
VERTEX
  8
0
 10
3.3284
 20
4.35981
 30
0.0
 40
0.0001488
 41
0.0001488
  0
VERTEX
  8
0
 10
3.27132
 20
4.38351
 30
0.0
 40
0.0001488
 41
0.0001488
  0
VERTEX
  8
0
 10
3.21121
 20
4.39789
 30
0.0
 40
0.0001488
 41
0.0001488
  0
VERTEX
  8
0
 10
3.18907
 20
4.39963
 30
0.0
 40
0.0001488
 41
0.0001488
  0
SEQEND
 8
0
  0
POLYLINE
  8
0
 62
     1
 66
     1
 10
0
 20
0
 30
0.0
 70
     1
 40
0.0107136
 41
0.0107136
  0
VERTEX
  8
0
 10
3.5434
 20
2.04036
 30
0.0
 40
0.0001488
 41
0.0001488
  0
VERTEX
  8
0
 10
3.5434
 20
2.59174
 30
0.0
 40
0.0001488
 41
0.0001488
  0
VERTEX
  8
0
 10
0.747939
 20
2.59174
 30
0.0
 40
0.0001488
 41
0.0001488
  0
VERTEX
  8
0
 10
0.747939
 20
2.04036
 30
0.0
 40
0.0001488
 41
0.0001488
  0
VERTEX
  8
0
 10
0.748047
 20
2.03896
 30
0.0
 40
0.0001488
 41
0.0001488
  0
VERTEX
  8
0
 10
0.752821
 20
1.97885
 30
0.0
 40
0.0001488
 41
0.0001488
  0
VERTEX
  8
0
 10
0.766385
 20
1.92225
 30
0.0
 40
0.0001488
 41
0.0001488
  0
VERTEX
  8
0
 10
0.767199
 20
1.91878
 30
0.0
 40
0.0001488
 41
0.0001488
  0
VERTEX
  8
0
 10
0.790853
 20
1.86171
 30
0.0
 40
0.0001488
 41
0.0001488
  0
VERTEX
  8
0
 10
0.823133
 20
1.80903
 30
0.0
 40
0.0001488
 41
0.0001488
  0
VERTEX
  8
0
 10
0.863282
 20
1.76199
 30
0.0
 40
0.0001488
 41
0.0001488
  0
VERTEX
  8
0
 10
0.910265
 20
1.7219
 30
0.0
 40
0.0001488
 41
0.0001488
  0
VERTEX
  8
0
 10
0.953722
 20
1.69526
 30
0.0
 40
0.0001488
 41
0.0001488
  0
VERTEX
  8
0
 10
0.962944
 20
1.68961
 30
0.0
 40
0.0001488
 41
0.0001488
  0
VERTEX
  8
0
 10
1.02002
 20
1.66596
 30
0.0
 40
0.0001488
 41
0.0001488
  0
VERTEX
  8
0
 10
1.08013
 20
1.65153
 30
0.0
 40
0.0001488
 41
0.0001488
  0
VERTEX
  8
0
 10
1.10227
 20
1.64979
 30
0.0
 40
0.0001488
 41
0.0001488
  0
VERTEX
  8
0
 10
1.10227
 20
1.64665
 30
0.0
 40
0.0001488
 41
0.0001488
  0
VERTEX
  8
0
 10
3.18907
 20
1.64665
 30
0.0
 40
0.0001488
 41
0.0001488
  0
VERTEX
  8
0
 10
3.18907
 20
1.64979
 30
0.0
 40
0.0001488
 41
0.0001488
  0
VERTEX
  8
0
 10
3.21121
 20
1.65153
 30
0.0
 40
0.0001488
 41
0.0001488
  0
VERTEX
  8
0
 10
3.27132
 20
1.66596
 30
0.0
 40
0.0001488
 41
0.0001488
  0
VERTEX
  8
0
 10
3.3284
 20
1.68961
 30
0.0
 40
0.0001488
 41
0.0001488
  0
VERTEX
  8
0
 10
3.33763
 20
1.69526
 30
0.0
 40
0.0001488
 41
0.0001488
  0
VERTEX
  8
0
 10
3.34646
 20
1.70068
 30
0.0
 40
0.0001488
 41
0.0001488
  0
VERTEX
  8
0
 10
3.38108
 20
1.7219
 30
0.0
 40
0.0001488
 41
0.0001488
  0
VERTEX
  8
0
 10
3.42806
 20
1.76199
 30
0.0
 40
0.0001488
 41
0.0001488
  0
VERTEX
  8
0
 10
3.46821
 20
1.80903
 30
0.0
 40
0.0001488
 41
0.0001488
  0
VERTEX
  8
0
 10
3.50049
 20
1.86171
 30
0.0
 40
0.0001488
 41
0.0001488
  0
VERTEX
  8
0
 10
3.52414
 20
1.91878
 30
0.0
 40
0.0001488
 41
0.0001488
  0
VERTEX
  8
0
 10
3.52496
 20
1.92225
 30
0.0
 40
0.0001488
 41
0.0001488
  0
VERTEX
  8
0
 10
3.53851
 20
1.97885
 30
0.0
 40
0.0001488
 41
0.0001488
  0
VERTEX
  8
0
 10
3.5434
 20
2.04036
 30
0.0
 40
0.0001488
 41
0.0001488
  0
SEQEND
 8
0
  0
POLYLINE
  8
0
 62
     1
 66
     1
 10
0
 20
0
 30
0.0
 70
     1
 40
0.0107136
 41
0.0107136
  0
VERTEX
  8
0
 10
0.242622
 20
0.524576
 30
0.0
 40
0.0001488
 41
0.0001488
  0
VERTEX
  8
0
 10
0.244194
 20
0.524576
 30
0.0
 40
0.0001488
 41
0.0001488
  0
VERTEX
  8
0
 10
0.244194
 20
0.603515
 30
0.0
 40
0.0001488
 41
0.0001488
  0
VERTEX
  8
0
 10
0.242622
 20
0.603515
 30
0.0
 40
0.0001488
 41
0.0001488
  0
VERTEX
  8
0
 10
0.240831
 20
0.614963
 30
0.0
 40
0.0001488
 41
0.0001488
  0
VERTEX
  8
0
 10
0.231011
 20
0.634169
 30
0.0
 40
0.0001488
 41
0.0001488
  0
VERTEX
  8
0
 10
0.215767
 20
0.649414
 30
0.0
 40
0.0001488
 41
0.0001488
  0
VERTEX
  8
0
 10
0.196832
 20
0.659071
 30
0.0
 40
0.0001488
 41
0.0001488
  0
VERTEX
  8
0
 10
0.19656
 20
0.659233
 30
0.0
 40
0.0001488
 41
0.0001488
  0
VERTEX
  8
0
 10
0.175185
 20
0.662597
 30
0.0
 40
0.0001488
 41
0.0001488
  0
VERTEX
  8
0
 10
0.153863
 20
0.659233
 30
0.0
 40
0.0001488
 41
0.0001488
  0
VERTEX
  8
0
 10
0.134657
 20
0.649414
 30
0.0
 40
0.0001488
 41
0.0001488
  0
VERTEX
  8
0
 10
0.119358
 20
0.634169
 30
0.0
 40
0.0001488
 41
0.0001488
  0
VERTEX
  8
0
 10
0.109592
 20
0.614963
 30
0.0
 40
0.0001488
 41
0.0001488
  0
VERTEX
  8
0
 10
0.107747
 20
0.603515
 30
0.0
 40
0.0001488
 41
0.0001488
  0
VERTEX
  8
0
 10
0.106174
 20
0.603515
 30
0.0
 40
0.0001488
 41
0.0001488
  0
VERTEX
  8
0
 10
0.106174
 20
0.524576
 30
0.0
 40
0.0001488
 41
0.0001488
  0
VERTEX
  8
0
 10
0.107747
 20
0.524576
 30
0.0
 40
0.0001488
 41
0.0001488
  0
VERTEX
  8
0
 10
0.106174
 20
0.514865
 30
0.0
 40
0.0001488
 41
0.0001488
  0
VERTEX
  8
0
 10
0.109592
 20
0.493544
 30
0.0
 40
0.0001488
 41
0.0001488
  0
VERTEX
  8
0
 10
0.119358
 20
0.474338
 30
0.0
 40
0.0001488
 41
0.0001488
  0
VERTEX
  8
0
 10
0.134657
 20
0.459039
 30
0.0
 40
0.0001488
 41
0.0001488
  0
VERTEX
  8
0
 10
0.153863
 20
0.449219
 30
0.0
 40
0.0001488
 41
0.0001488
  0
VERTEX
  8
0
 10
0.175185
 20
0.445856
 30
0.0
 40
0.0001488
 41
0.0001488
  0
VERTEX
  8
0
 10
0.19656
 20
0.449219
 30
0.0
 40
0.0001488
 41
0.0001488
  0
VERTEX
  8
0
 10
0.196832
 20
0.449382
 30
0.0
 40
0.0001488
 41
0.0001488
  0
VERTEX
  8
0
 10
0.215767
 20
0.459039
 30
0.0
 40
0.0001488
 41
0.0001488
  0
VERTEX
  8
0
 10
0.231011
 20
0.474338
 30
0.0
 40
0.0001488
 41
0.0001488
  0
VERTEX
  8
0
 10
0.240831
 20
0.493544
 30
0.0
 40
0.0001488
 41
0.0001488
  0
VERTEX
  8
0
 10
0.244194
 20
0.514865
 30
0.0
 40
0.0001488
 41
0.0001488
  0
VERTEX
  8
0
 10
0.242622
 20
0.524576
 30
0.0
 40
0.0001488
 41
0.0001488
  0
SEQEND
 8
0
  0
POLYLINE
  8
0
 62
     1
 66
     1
 10
0
 20
0
 30
0.0
 70
     1
 40
0.0107136
 41
0.0107136
  0
VERTEX
  8
0
 10
3.28554
 20
2.81565
 30
0.0
 40
0.0001488
 41
0.0001488
  0
VERTEX
  8
0
 10
3.28689
 20
2.82411
 30
0.0
 40
0.0001488
 41
0.0001488
  0
VERTEX
  8
0
 10
3.28754
 20
2.82785
 30
0.0
 40
0.0001488
 41
0.0001488
  0
VERTEX
  8
0
 10
3.28554
 20
2.84006
 30
0.0
 40
0.0001488
 41
0.0001488
  0
VERTEX
  8
0
 10
3.27994
 20
2.85107
 30
0.0
 40
0.0001488
 41
0.0001488
  0
VERTEX
  8
0
 10
3.27121
 20
2.85981
 30
0.0
 40
0.0001488
 41
0.0001488
  0
VERTEX
  8
0
 10
3.26025
 20
2.8654
 30
0.0
 40
0.0001488
 41
0.0001488
  0
VERTEX
  8
0
 10
3.24804
 20
2.86729
 30
0.0
 40
0.0001488
 41
0.0001488
  0
VERTEX
  8
0
 10
3.23583
 20
2.8654
 30
0.0
 40
0.0001488
 41
0.0001488
  0
VERTEX
  8
0
 10
3.22483
 20
2.85981
 30
0.0
 40
0.0001488
 41
0.0001488
  0
VERTEX
  8
0
 10
3.2161
 20
2.85107
 30
0.0
 40
0.0001488
 41
0.0001488
  0
VERTEX
  8
0
 10
3.2105
 20
2.84006
 30
0.0
 40
0.0001488
 41
0.0001488
  0
VERTEX
  8
0
 10
3.20861
 20
2.82785
 30
0.0
 40
0.0001488
 41
0.0001488
  0
VERTEX
  8
0
 10
3.20921
 20
2.82411
 30
0.0
 40
0.0001488
 41
0.0001488
  0
VERTEX
  8
0
 10
3.2105
 20
2.81565
 30
0.0
 40
0.0001488
 41
0.0001488
  0
VERTEX
  8
0
 10
3.2161
 20
2.80469
 30
0.0
 40
0.0001488
 41
0.0001488
  0
VERTEX
  8
0
 10
3.22483
 20
2.79596
 30
0.0
 40
0.0001488
 41
0.0001488
  0
VERTEX
  8
0
 10
3.23583
 20
2.79036
 30
0.0
 40
0.0001488
 41
0.0001488
  0
VERTEX
  8
0
 10
3.24804
 20
2.78836
 30
0.0
 40
0.0001488
 41
0.0001488
  0
VERTEX
  8
0
 10
3.26025
 20
2.79036
 30
0.0
 40
0.0001488
 41
0.0001488
  0
VERTEX
  8
0
 10
3.27121
 20
2.79596
 30
0.0
 40
0.0001488
 41
0.0001488
  0
VERTEX
  8
0
 10
3.27994
 20
2.80469
 30
0.0
 40
0.0001488
 41
0.0001488
  0
VERTEX
  8
0
 10
3.28554
 20
2.81565
 30
0.0
 40
0.0001488
 41
0.0001488
  0
SEQEND
 8
0
  0
POLYLINE
  8
0
 62
     1
 66
     1
 10
0
 20
0
 30
0.0
 70
     1
 40
0.0107136
 41
0.0107136
  0
VERTEX
  8
0
 10
2.30268
 20
2.82411
 30
0.0
 40
0.0001488
 41
0.0001488
  0
VERTEX
  8
0
 10
2.30328
 20
2.82785
 30
0.0
 40
0.0001488
 41
0.0001488
  0
VERTEX
  8
0
 10
2.30132
 20
2.84006
 30
0.0
 40
0.0001488
 41
0.0001488
  0
VERTEX
  8
0
 10
2.29574
 20
2.85107
 30
0.0
 40
0.0001488
 41
0.0001488
  0
VERTEX
  8
0
 10
2.28694
 20
2.85981
 30
0.0
 40
0.0001488
 41
0.0001488
  0
VERTEX
  8
0
 10
2.27599
 20
2.8654
 30
0.0
 40
0.0001488
 41
0.0001488
  0
VERTEX
  8
0
 10
2.26378
 20
2.86729
 30
0.0
 40
0.0001488
 41
0.0001488
  0
VERTEX
  8
0
 10
2.25157
 20
2.8654
 30
0.0
 40
0.0001488
 41
0.0001488
  0
VERTEX
  8
0
 10
2.24061
 20
2.85981
 30
0.0
 40
0.0001488
 41
0.0001488
  0
VERTEX
  8
0
 10
2.23182
 20
2.85107
 30
0.0
 40
0.0001488
 41
0.0001488
  0
VERTEX
  8
0
 10
2.22624
 20
2.84006
 30
0.0
 40
0.0001488
 41
0.0001488
  0
VERTEX
  8
0
 10
2.22433
 20
2.82785
 30
0.0
 40
0.0001488
 41
0.0001488
  0
VERTEX
  8
0
 10
2.22493
 20
2.82411
 30
0.0
 40
0.0001488
 41
0.0001488
  0
VERTEX
  8
0
 10
2.22624
 20
2.81565
 30
0.0
 40
0.0001488
 41
0.0001488
  0
VERTEX
  8
0
 10
2.23182
 20
2.80469
 30
0.0
 40
0.0001488
 41
0.0001488
  0
VERTEX
  8
0
 10
2.24061
 20
2.79596
 30
0.0
 40
0.0001488
 41
0.0001488
  0
VERTEX
  8
0
 10
2.25157
 20
2.79036
 30
0.0
 40
0.0001488
 41
0.0001488
  0
VERTEX
  8
0
 10
2.26378
 20
2.78836
 30
0.0
 40
0.0001488
 41
0.0001488
  0
VERTEX
  8
0
 10
2.27599
 20
2.79036
 30
0.0
 40
0.0001488
 41
0.0001488
  0
VERTEX
  8
0
 10
2.28694
 20
2.79596
 30
0.0
 40
0.0001488
 41
0.0001488
  0
VERTEX
  8
0
 10
2.29574
 20
2.80469
 30
0.0
 40
0.0001488
 41
0.0001488
  0
VERTEX
  8
0
 10
2.30132
 20
2.81565
 30
0.0
 40
0.0001488
 41
0.0001488
  0
VERTEX
  8
0
 10
2.30268
 20
2.82411
 30
0.0
 40
0.0001488
 41
0.0001488
  0
SEQEND
 8
0
  0
POLYLINE
  8
0
 62
     1
 66
     1
 10
0
 20
0
 30
0.0
 70
     1
 40
0.0107136
 41
0.0107136
  0
VERTEX
  8
0
 10
2.36214
 20
2.70964
 30
0.0
 40
0.0001488
 41
0.0001488
  0
VERTEX
  8
0
 10
3.14974
 20
2.70964
 30
0.0
 40
0.0001488
 41
0.0001488
  0
VERTEX
  8
0
 10
3.14974
 20
2.94607
 30
0.0
 40
0.0001488
 41
0.0001488
  0
VERTEX
  8
0
 10
2.36214
 20
2.94607
 30
0.0
 40
0.0001488
 41
0.0001488
  0
VERTEX
  8
0
 10
2.36214
 20
2.70964
 30
0.0
 40
0.0001488
 41
0.0001488
  0
SEQEND
 8
0
  0
POLYLINE
  8
0
 62
     1
 66
     1
 10
0
 20
0
 30
0.0
 70
     1
 40
0.0107136
 41
0.0107136
  0
VERTEX
  8
0
 10
3.52821
 20
4.37446
 30
0.0
 40
0.0001488
 41
0.0001488
  0
VERTEX
  8
0
 10
3.5434
 20
4.36675
 30
0.0
 40
0.0001488
 41
0.0001488
  0
VERTEX
  8
0
 10
3.54471
 20
4.3661
 30
0.0
 40
0.0001488
 41
0.0001488
  0
VERTEX
  8
0
 10
3.56299
 20
4.36322
 30
0.0
 40
0.0001488
 41
0.0001488
  0
VERTEX
  8
0
 10
3.58128
 20
4.3661
 30
0.0
 40
0.0001488
 41
0.0001488
  0
VERTEX
  8
0
 10
3.59776
 20
4.37446
 30
0.0
 40
0.0001488
 41
0.0001488
  0
VERTEX
  8
0
 10
3.61083
 20
4.38758
 30
0.0
 40
0.0001488
 41
0.0001488
  0
VERTEX
  8
0
 10
3.61925
 20
4.40408
 30
0.0
 40
0.0001488
 41
0.0001488
  0
VERTEX
  8
0
 10
3.62218
 20
4.42236
 30
0.0
 40
0.0001488
 41
0.0001488
  0
VERTEX
  8
0
 10
3.6199
 20
4.43668
 30
0.0
 40
0.0001488
 41
0.0001488
  0
VERTEX
  8
0
 10
3.61925
 20
4.44065
 30
0.0
 40
0.0001488
 41
0.0001488
  0
VERTEX
  8
0
 10
3.61083
 20
4.45714
 30
0.0
 40
0.0001488
 41
0.0001488
  0
VERTEX
  8
0
 10
3.59776
 20
4.47021
 30
0.0
 40
0.0001488
 41
0.0001488
  0
VERTEX
  8
0
 10
3.58128
 20
4.47863
 30
0.0
 40
0.0001488
 41
0.0001488
  0
VERTEX
  8
0
 10
3.56299
 20
4.4815
 30
0.0
 40
0.0001488
 41
0.0001488
  0
VERTEX
  8
0
 10
3.54471
 20
4.47863
 30
0.0
 40
0.0001488
 41
0.0001488
  0
VERTEX
  8
0
 10
3.5434
 20
4.47797
 30
0.0
 40
0.0001488
 41
0.0001488
  0
VERTEX
  8
0
 10
3.52821
 20
4.47021
 30
0.0
 40
0.0001488
 41
0.0001488
  0
VERTEX
  8
0
 10
3.51514
 20
4.45714
 30
0.0
 40
0.0001488
 41
0.0001488
  0
VERTEX
  8
0
 10
3.50672
 20
4.44065
 30
0.0
 40
0.0001488
 41
0.0001488
  0
VERTEX
  8
0
 10
3.50612
 20
4.43668
 30
0.0
 40
0.0001488
 41
0.0001488
  0
VERTEX
  8
0
 10
3.50385
 20
4.42236
 30
0.0
 40
0.0001488
 41
0.0001488
  0
VERTEX
  8
0
 10
3.50672
 20
4.40408
 30
0.0
 40
0.0001488
 41
0.0001488
  0
VERTEX
  8
0
 10
3.50738
 20
4.40278
 30
0.0
 40
0.0001488
 41
0.0001488
  0
VERTEX
  8
0
 10
3.51514
 20
4.38758
 30
0.0
 40
0.0001488
 41
0.0001488
  0
VERTEX
  8
0
 10
3.52821
 20
4.37446
 30
0.0
 40
0.0001488
 41
0.0001488
  0
SEQEND
 8
0
  0
POLYLINE
  8
0
 62
     1
 66
     1
 10
0
 20
0
 30
0.0
 70
     1
 40
0.0107136
 41
0.0107136
  0
VERTEX
  8
0
 10
3.48703
 20
1.64817
 30
0.0
 40
0.0001488
 41
0.0001488
  0
VERTEX
  8
0
 10
3.48785
 20
1.64665
 30
0.0
 40
0.0001488
 41
0.0001488
  0
VERTEX
  8
0
 10
3.49544
 20
1.63167
 30
0.0
 40
0.0001488
 41
0.0001488
  0
VERTEX
  8
0
 10
3.50851
 20
1.6186
 30
0.0
 40
0.0001488
 41
0.0001488
  0
VERTEX
  8
0
 10
3.52507
 20
1.61019
 30
0.0
 40
0.0001488
 41
0.0001488
  0
VERTEX
  8
0
 10
3.54329
 20
1.60726
 30
0.0
 40
0.0001488
 41
0.0001488
  0
VERTEX
  8
0
 10
3.56158
 20
1.61019
 30
0.0
 40
0.0001488
 41
0.0001488
  0
VERTEX
  8
0
 10
3.57807
 20
1.6186
 30
0.0
 40
0.0001488
 41
0.0001488
  0
VERTEX
  8
0
 10
3.59119
 20
1.63167
 30
0.0
 40
0.0001488
 41
0.0001488
  0
VERTEX
  8
0
 10
3.59879
 20
1.64665
 30
0.0
 40
0.0001488
 41
0.0001488
  0
VERTEX
  8
0
 10
3.59956
 20
1.64817
 30
0.0
 40
0.0001488
 41
0.0001488
  0
VERTEX
  8
0
 10
3.60249
 20
1.66644
 30
0.0
 40
0.0001488
 41
0.0001488
  0
VERTEX
  8
0
 10
3.59956
 20
1.68474
 30
0.0
 40
0.0001488
 41
0.0001488
  0
VERTEX
  8
0
 10
3.59418
 20
1.69526
 30
0.0
 40
0.0001488
 41
0.0001488
  0
VERTEX
  8
0
 10
3.59119
 20
1.70122
 30
0.0
 40
0.0001488
 41
0.0001488
  0
VERTEX
  8
0
 10
3.57807
 20
1.71431
 30
0.0
 40
0.0001488
 41
0.0001488
  0
VERTEX
  8
0
 10
3.56158
 20
1.72271
 30
0.0
 40
0.0001488
 41
0.0001488
  0
VERTEX
  8
0
 10
3.5434
 20
1.72558
 30
0.0
 40
0.0001488
 41
0.0001488
  0
VERTEX
  8
0
 10
3.54329
 20
1.72558
 30
0.0
 40
0.0001488
 41
0.0001488
  0
VERTEX
  8
0
 10
3.52507
 20
1.72271
 30
0.0
 40
0.0001488
 41
0.0001488
  0
VERTEX
  8
0
 10
3.50851
 20
1.71431
 30
0.0
 40
0.0001488
 41
0.0001488
  0
VERTEX
  8
0
 10
3.49544
 20
1.70122
 30
0.0
 40
0.0001488
 41
0.0001488
  0
VERTEX
  8
0
 10
3.4924
 20
1.69526
 30
0.0
 40
0.0001488
 41
0.0001488
  0
VERTEX
  8
0
 10
3.48703
 20
1.68474
 30
0.0
 40
0.0001488
 41
0.0001488
  0
VERTEX
  8
0
 10
3.48525
 20
1.67324
 30
0.0
 40
0.0001488
 41
0.0001488
  0
VERTEX
  8
0
 10
3.48415
 20
1.66644
 30
0.0
 40
0.0001488
 41
0.0001488
  0
VERTEX
  8
0
 10
3.48703
 20
1.64817
 30
0.0
 40
0.0001488
 41
0.0001488
  0
SEQEND
 8
0
  0
POLYLINE
  8
0
 62
     1
 66
     1
 10
0
 20
0
 30
0.0
 70
     1
 40
0.0107136
 41
0.0107136
  0
VERTEX
  8
0
 10
0.354329
 20
1.66721
 30
0.0
 40
0.0001488
 41
0.0001488
  0
VERTEX
  8
0
 10
0.354221
 20
1.66644
 30
0.0
 40
0.0001488
 41
0.0001488
  0
VERTEX
  8
0
 10
0.354329
 20
1.66569
 30
0.0
 40
0.0001488
 41
0.0001488
  0
VERTEX
  8
0
 10
0.35715
 20
1.64817
 30
0.0
 40
0.0001488
 41
0.0001488
  0
VERTEX
  8
0
 10
0.365506
 20
1.63167
 30
0.0
 40
0.0001488
 41
0.0001488
  0
VERTEX
  8
0
 10
0.378635
 20
1.6186
 30
0.0
 40
0.0001488
 41
0.0001488
  0
VERTEX
  8
0
 10
0.395128
 20
1.61019
 30
0.0
 40
0.0001488
 41
0.0001488
  0
VERTEX
  8
0
 10
0.413411
 20
1.60726
 30
0.0
 40
0.0001488
 41
0.0001488
  0
VERTEX
  8
0
 10
0.43164
 20
1.61019
 30
0.0
 40
0.0001488
 41
0.0001488
  0
VERTEX
  8
0
 10
0.448133
 20
1.6186
 30
0.0
 40
0.0001488
 41
0.0001488
  0
VERTEX
  8
0
 10
0.452636
 20
1.62304
 30
0.0
 40
0.0001488
 41
0.0001488
  0
VERTEX
  8
0
 10
0.461262
 20
1.63167
 30
0.0
 40
0.0001488
 41
0.0001488
  0
VERTEX
  8
0
 10
0.469672
 20
1.64817
 30
0.0
 40
0.0001488
 41
0.0001488
  0
VERTEX
  8
0
 10
0.472493
 20
1.66644
 30
0.0
 40
0.0001488
 41
0.0001488
  0
VERTEX
  8
0
 10
0.469672
 20
1.68474
 30
0.0
 40
0.0001488
 41
0.0001488
  0
VERTEX
  8
0
 10
0.464301
 20
1.69526
 30
0.0
 40
0.0001488
 41
0.0001488
  0
VERTEX
  8
0
 10
0.461262
 20
1.70122
 30
0.0
 40
0.0001488
 41
0.0001488
  0
VERTEX
  8
0
 10
0.452636
 20
1.70985
 30
0.0
 40
0.0001488
 41
0.0001488
  0
VERTEX
  8
0
 10
0.448133
 20
1.71431
 30
0.0
 40
0.0001488
 41
0.0001488
  0
VERTEX
  8
0
 10
0.43164
 20
1.72271
 30
0.0
 40
0.0001488
 41
0.0001488
  0
VERTEX
  8
0
 10
0.413411
 20
1.72558
 30
0.0
 40
0.0001488
 41
0.0001488
  0
VERTEX
  8
0
 10
0.395128
 20
1.72271
 30
0.0
 40
0.0001488
 41
0.0001488
  0
VERTEX
  8
0
 10
0.378635
 20
1.71431
 30
0.0
 40
0.0001488
 41
0.0001488
  0
VERTEX
  8
0
 10
0.365506
 20
1.70122
 30
0.0
 40
0.0001488
 41
0.0001488
  0
VERTEX
  8
0
 10
0.362468
 20
1.69526
 30
0.0
 40
0.0001488
 41
0.0001488
  0
VERTEX
  8
0
 10
0.35715
 20
1.68474
 30
0.0
 40
0.0001488
 41
0.0001488
  0
VERTEX
  8
0
 10
0.354329
 20
1.66721
 30
0.0
 40
0.0001488
 41
0.0001488
  0
SEQEND
 8
0
  0
POLYLINE
  8
0
 62
     1
 66
     1
 10
0
 20
0
 30
0.0
 70
     1
 40
0.0107136
 41
0.0107136
  0
VERTEX
  8
0
 10
0.231011
 20
1.36252
 30
0.0
 40
0.0001488
 41
0.0001488
  0
VERTEX
  8
0
 10
0.215767
 20
1.37777
 30
0.0
 40
0.0001488
 41
0.0001488
  0
VERTEX
  8
0
 10
0.196832
 20
1.38742
 30
0.0
 40
0.0001488
 41
0.0001488
  0
VERTEX
  8
0
 10
0.19656
 20
1.38759
 30
0.0
 40
0.0001488
 41
0.0001488
  0
VERTEX
  8
0
 10
0.175185
 20
1.39094
 30
0.0
 40
0.0001488
 41
0.0001488
  0
VERTEX
  8
0
 10
0.153863
 20
1.38759
 30
0.0
 40
0.0001488
 41
0.0001488
  0
VERTEX
  8
0
 10
0.134657
 20
1.37777
 30
0.0
 40
0.0001488
 41
0.0001488
  0
VERTEX
  8
0
 10
0.129612
 20
1.37272
 30
0.0
 40
0.0001488
 41
0.0001488
  0
VERTEX
  8
0
 10
0.119358
 20
1.36252
 30
0.0
 40
0.0001488
 41
0.0001488
  0
VERTEX
  8
0
 10
0.109592
 20
1.34332
 30
0.0
 40
0.0001488
 41
0.0001488
  0
VERTEX
  8
0
 10
0.106174
 20
1.32205
 30
0.0
 40
0.0001488
 41
0.0001488
  0
VERTEX
  8
0
 10
0.106174
 20
1.24311
 30
0.0
 40
0.0001488
 41
0.0001488
  0
VERTEX
  8
0
 10
0.109592
 20
1.2219
 30
0.0
 40
0.0001488
 41
0.0001488
  0
VERTEX
  8
0
 10
0.114855
 20
1.21148
 30
0.0
 40
0.0001488
 41
0.0001488
  0
VERTEX
  8
0
 10
0.119358
 20
1.20269
 30
0.0
 40
0.0001488
 41
0.0001488
  0
VERTEX
  8
0
 10
0.134657
 20
1.18739
 30
0.0
 40
0.0001488
 41
0.0001488
  0
VERTEX
  8
0
 10
0.153863
 20
1.17757
 30
0.0
 40
0.0001488
 41
0.0001488
  0
VERTEX
  8
0
 10
0.175185
 20
1.17421
 30
0.0
 40
0.0001488
 41
0.0001488
  0
VERTEX
  8
0
 10
0.19656
 20
1.17757
 30
0.0
 40
0.0001488
 41
0.0001488
  0
VERTEX
  8
0
 10
0.196832
 20
1.17773
 30
0.0
 40
0.0001488
 41
0.0001488
  0
VERTEX
  8
0
 10
0.215767
 20
1.18739
 30
0.0
 40
0.0001488
 41
0.0001488
  0
VERTEX
  8
0
 10
0.231011
 20
1.20269
 30
0.0
 40
0.0001488
 41
0.0001488
  0
VERTEX
  8
0
 10
0.235514
 20
1.21148
 30
0.0
 40
0.0001488
 41
0.0001488
  0
VERTEX
  8
0
 10
0.240831
 20
1.2219
 30
0.0
 40
0.0001488
 41
0.0001488
  0
VERTEX
  8
0
 10
0.24414
 20
1.24311
 30
0.0
 40
0.0001488
 41
0.0001488
  0
VERTEX
  8
0
 10
0.244194
 20
1.24311
 30
0.0
 40
0.0001488
 41
0.0001488
  0
VERTEX
  8
0
 10
0.244194
 20
1.32205
 30
0.0
 40
0.0001488
 41
0.0001488
  0
VERTEX
  8
0
 10
0.24414
 20
1.32205
 30
0.0
 40
0.0001488
 41
0.0001488
  0
VERTEX
  8
0
 10
0.240831
 20
1.34332
 30
0.0
 40
0.0001488
 41
0.0001488
  0
VERTEX
  8
0
 10
0.231011
 20
1.36252
 30
0.0
 40
0.0001488
 41
0.0001488
  0
SEQEND
 8
0
  0
POLYLINE
  8
0
 62
     1
 66
     1
 10
0
 20
0
 30
0.0
 70
     1
 40
0.0107136
 41
0.0107136
  0
VERTEX
  8
0
 10
0.455567
 20
1.99968
 30
0.0
 40
0.0001488
 41
0.0001488
  0
VERTEX
  8
0
 10
0.452636
 20
1.98139
 30
0.0
 40
0.0001488
 41
0.0001488
  0
VERTEX
  8
0
 10
0.455567
 20
1.96317
 30
0.0
 40
0.0001488
 41
0.0001488
  0
VERTEX
  8
0
 10
0.463921
 20
1.94667
 30
0.0
 40
0.0001488
 41
0.0001488
  0
VERTEX
  8
0
 10
0.477051
 20
1.93354
 30
0.0
 40
0.0001488
 41
0.0001488
  0
VERTEX
  8
0
 10
0.491049
 20
1.92643
 30
0.0
 40
0.0001488
 41
0.0001488
  0
VERTEX
  8
0
 10
0.493544
 20
1.92512
 30
0.0
 40
0.0001488
 41
0.0001488
  0
VERTEX
  8
0
 10
0.511828
 20
1.92225
 30
0.0
 40
0.0001488
 41
0.0001488
  0
VERTEX
  8
0
 10
0.530057
 20
1.92512
 30
0.0
 40
0.0001488
 41
0.0001488
  0
VERTEX
  8
0
 10
0.54655
 20
1.93354
 30
0.0
 40
0.0001488
 41
0.0001488
  0
VERTEX
  8
0
 10
0.559679
 20
1.94667
 30
0.0
 40
0.0001488
 41
0.0001488
  0
VERTEX
  8
0
 10
0.568088
 20
1.96317
 30
0.0
 40
0.0001488
 41
0.0001488
  0
VERTEX
  8
0
 10
0.570964
 20
1.98139
 30
0.0
 40
0.0001488
 41
0.0001488
  0
VERTEX
  8
0
 10
0.568088
 20
1.99968
 30
0.0
 40
0.0001488
 41
0.0001488
  0
VERTEX
  8
0
 10
0.559679
 20
2.01617
 30
0.0
 40
0.0001488
 41
0.0001488
  0
VERTEX
  8
0
 10
0.54655
 20
2.02929
 30
0.0
 40
0.0001488
 41
0.0001488
  0
VERTEX
  8
0
 10
0.530057
 20
2.03765
 30
0.0
 40
0.0001488
 41
0.0001488
  0
VERTEX
  8
0
 10
0.511828
 20
2.04053
 30
0.0
 40
0.0001488
 41
0.0001488
  0
VERTEX
  8
0
 10
0.493544
 20
2.03765
 30
0.0
 40
0.0001488
 41
0.0001488
  0
VERTEX
  8
0
 10
0.477051
 20
2.02929
 30
0.0
 40
0.0001488
 41
0.0001488
  0
VERTEX
  8
0
 10
0.463921
 20
2.01617
 30
0.0
 40
0.0001488
 41
0.0001488
  0
VERTEX
  8
0
 10
0.455567
 20
1.99968
 30
0.0
 40
0.0001488
 41
0.0001488
  0
SEQEND
 8
0
  0
POLYLINE
  8
0
 62
     1
 66
     1
 10
0
 20
0
 30
0.0
 70
     1
 40
0.0107136
 41
0.0107136
  0
VERTEX
  8
0
 10
0.568088
 20
2.98394
 30
0.0
 40
0.0001488
 41
0.0001488
  0
VERTEX
  8
0
 10
0.567329
 20
2.98535
 30
0.0
 40
0.0001488
 41
0.0001488
  0
VERTEX
  8
0
 10
0.559679
 20
3.00043
 30
0.0
 40
0.0001488
 41
0.0001488
  0
VERTEX
  8
0
 10
0.54655
 20
3.01351
 30
0.0
 40
0.0001488
 41
0.0001488
  0
VERTEX
  8
0
 10
0.530057
 20
3.02192
 30
0.0
 40
0.0001488
 41
0.0001488
  0
VERTEX
  8
0
 10
0.511828
 20
3.02485
 30
0.0
 40
0.0001488
 41
0.0001488
  0
VERTEX
  8
0
 10
0.493544
 20
3.02192
 30
0.0
 40
0.0001488
 41
0.0001488
  0
VERTEX
  8
0
 10
0.477051
 20
3.01351
 30
0.0
 40
0.0001488
 41
0.0001488
  0
VERTEX
  8
0
 10
0.463921
 20
3.00043
 30
0.0
 40
0.0001488
 41
0.0001488
  0
VERTEX
  8
0
 10
0.456272
 20
2.98535
 30
0.0
 40
0.0001488
 41
0.0001488
  0
VERTEX
  8
0
 10
0.455567
 20
2.98394
 30
0.0
 40
0.0001488
 41
0.0001488
  0
VERTEX
  8
0
 10
0.452636
 20
2.96565
 30
0.0
 40
0.0001488
 41
0.0001488
  0
VERTEX
  8
0
 10
0.455567
 20
2.94738
 30
0.0
 40
0.0001488
 41
0.0001488
  0
VERTEX
  8
0
 10
0.463921
 20
2.93087
 30
0.0
 40
0.0001488
 41
0.0001488
  0
VERTEX
  8
0
 10
0.477051
 20
2.91781
 30
0.0
 40
0.0001488
 41
0.0001488
  0
VERTEX
  8
0
 10
0.493544
 20
2.9094
 30
0.0
 40
0.0001488
 41
0.0001488
  0
VERTEX
  8
0
 10
0.511828
 20
2.90647
 30
0.0
 40
0.0001488
 41
0.0001488
  0
VERTEX
  8
0
 10
0.530057
 20
2.9094
 30
0.0
 40
0.0001488
 41
0.0001488
  0
VERTEX
  8
0
 10
0.54655
 20
2.91781
 30
0.0
 40
0.0001488
 41
0.0001488
  0
VERTEX
  8
0
 10
0.559679
 20
2.93087
 30
0.0
 40
0.0001488
 41
0.0001488
  0
VERTEX
  8
0
 10
0.568088
 20
2.94738
 30
0.0
 40
0.0001488
 41
0.0001488
  0
VERTEX
  8
0
 10
0.570964
 20
2.96565
 30
0.0
 40
0.0001488
 41
0.0001488
  0
VERTEX
  8
0
 10
0.568088
 20
2.98394
 30
0.0
 40
0.0001488
 41
0.0001488
  0
SEQEND
 8
0
  0
POLYLINE
  8
0
 62
     1
 66
     1
 10
0
 20
0
 30
0.0
 70
     1
 40
0.0107136
 41
0.0107136
  0
VERTEX
  8
0
 10
0.469672
 20
4.40408
 30
0.0
 40
0.0001488
 41
0.0001488
  0
VERTEX
  8
0
 10
0.472493
 20
4.42236
 30
0.0
 40
0.0001488
 41
0.0001488
  0
VERTEX
  8
0
 10
0.470269
 20
4.43668
 30
0.0
 40
0.0001488
 41
0.0001488
  0
VERTEX
  8
0
 10
0.469672
 20
4.44065
 30
0.0
 40
0.0001488
 41
0.0001488
  0
VERTEX
  8
0
 10
0.461262
 20
4.45714
 30
0.0
 40
0.0001488
 41
0.0001488
  0
VERTEX
  8
0
 10
0.452636
 20
4.46576
 30
0.0
 40
0.0001488
 41
0.0001488
  0
VERTEX
  8
0
 10
0.448133
 20
4.47021
 30
0.0
 40
0.0001488
 41
0.0001488
  0
VERTEX
  8
0
 10
0.43164
 20
4.47863
 30
0.0
 40
0.0001488
 41
0.0001488
  0
VERTEX
  8
0
 10
0.413411
 20
4.4815
 30
0.0
 40
0.0001488
 41
0.0001488
  0
VERTEX
  8
0
 10
0.395128
 20
4.47863
 30
0.0
 40
0.0001488
 41
0.0001488
  0
VERTEX
  8
0
 10
0.378635
 20
4.47021
 30
0.0
 40
0.0001488
 41
0.0001488
  0
VERTEX
  8
0
 10
0.365506
 20
4.45714
 30
0.0
 40
0.0001488
 41
0.0001488
  0
VERTEX
  8
0
 10
0.35715
 20
4.44065
 30
0.0
 40
0.0001488
 41
0.0001488
  0
VERTEX
  8
0
 10
0.3565
 20
4.43668
 30
0.0
 40
0.0001488
 41
0.0001488
  0
VERTEX
  8
0
 10
0.354329
 20
4.42307
 30
0.0
 40
0.0001488
 41
0.0001488
  0
VERTEX
  8
0
 10
0.354221
 20
4.42236
 30
0.0
 40
0.0001488
 41
0.0001488
  0
VERTEX
  8
0
 10
0.354329
 20
4.4216
 30
0.0
 40
0.0001488
 41
0.0001488
  0
VERTEX
  8
0
 10
0.35715
 20
4.40408
 30
0.0
 40
0.0001488
 41
0.0001488
  0
VERTEX
  8
0
 10
0.365506
 20
4.38758
 30
0.0
 40
0.0001488
 41
0.0001488
  0
VERTEX
  8
0
 10
0.378635
 20
4.37446
 30
0.0
 40
0.0001488
 41
0.0001488
  0
VERTEX
  8
0
 10
0.395128
 20
4.3661
 30
0.0
 40
0.0001488
 41
0.0001488
  0
VERTEX
  8
0
 10
0.413411
 20
4.36322
 30
0.0
 40
0.0001488
 41
0.0001488
  0
VERTEX
  8
0
 10
0.43164
 20
4.3661
 30
0.0
 40
0.0001488
 41
0.0001488
  0
VERTEX
  8
0
 10
0.448133
 20
4.37446
 30
0.0
 40
0.0001488
 41
0.0001488
  0
VERTEX
  8
0
 10
0.461262
 20
4.38758
 30
0.0
 40
0.0001488
 41
0.0001488
  0
VERTEX
  8
0
 10
0.469672
 20
4.40408
 30
0.0
 40
0.0001488
 41
0.0001488
  0
SEQEND
 8
0
  0
POLYLINE
  8
0
 62
     1
 66
     1
 10
0
 20
0
 30
0.0
 70
     1
 40
0.0107136
 41
0.0107136
  0
VERTEX
  8
0
 10
0.354329
 20
2.15847
 30
0.0
 40
0.0001488
 41
0.0001488
  0
VERTEX
  8
0
 10
0.629992
 20
2.15847
 30
0.0
 40
0.0001488
 41
0.0001488
  0
VERTEX
  8
0
 10
0.629992
 20
2.78857
 30
0.0
 40
0.0001488
 41
0.0001488
  0
VERTEX
  8
0
 10
0.314833
 20
2.78857
 30
0.0
 40
0.0001488
 41
0.0001488
  0
VERTEX
  8
0
 10
0.314833
 20
2.15847
 30
0.0
 40
0.0001488
 41
0.0001488
  0
VERTEX
  8
0
 10
0.354329
 20
2.15847
 30
0.0
 40
0.0001488
 41
0.0001488
  0
SEQEND
 8
0
  0
ENDSEC
  0
EOF
