<?xml version="1.0" standalone="no"?>
<!DOCTYPE svg PUBLIC "-//W3C//DTD SVG 1.1//EN"
  "http://www.w3.org/Graphics/SVG/1.1/DTD/svg11.dtd">
<svg width="104mm" height="120.49999999999997mm" viewBox="-35 -41.99999999999999 104 120.49999999999997" xmlns="http://www.w3.org/2000/svg" version="1.1">
	<title>svgOutput</title>
	<desc>made with tinkercad</desc>
<path d="M 68 77.49999999999999 L 62.597999572753906 77.49999999999999 L 60 77.49999999999999 L 60 59.00299835205077 L 60 49.15200042724608 L 60 49.01892471313475 L 60.00299835205078 48.999999999999986 L 60 48.98107528686522 L 59.51300048828125 45.90900039672851 L 58.09199905395508 43.12099838256835 L 55.87900161743164 40.908000946044915 L 53.090999603271484 39.48699951171874 L 50.01264190673828 38.99999999999999 L 50 38.998001098632805 L 49.98735809326172 38.99999999999999 L 48.99800109863281 38.99999999999999 L 48.00299835205078 38.99999999999999 L 46.00299835205078 38.99999999999999 L 25.99799919128418 38.99999999999999 L 14.998000144958496 38.99999999999999 L 6.498000144958496 38.99999999999999 L 5.002999782562256 38.99999999999999 L -15.003000259399414 38.99999999999999 L -15.987358093261719 38.99999999999999 L -16 38.998001098632805 L -16.003000259399414 38.99847412109374 L -16.01264190673828 38.99999999999999 L -19.090999603271484 39.48699951171874 L -21.878999710083008 40.908000946044915 L -24.091999053955078 43.12099838256835 L -25.51300048828125 45.90900039672851 L -26 48.98107528686522 L -26.003000259399414 48.999999999999986 L -26 49.01892471313475 L -26 49.15200042724608 L -26 59.00299835205077 L -26 63.00299835205077 L -26 74.49999999999999 L -30 74.49999999999999 L -32.303001403808594 74.49999999999999 L -34 74.49999999999999 L -34 36.49999999999999 L -34 30.003000259399407 L -32.76300048828125 29.80699920654296 L -31.64699935913086 29.23800086975097 L -30.761999130249023 28.353000640869134 L -30.19300079345703 27.236999511718743 L -30 26.01268768310546 L -29.99799919128418 25.999999999999993 L -30 25.987312316894524 L -30 24.57600021362304 L -30 21.997999191284176 L -30 -40.99999999999999 L -29.99799919128418 -40.99999999999999 L -27.003000259399414 -40.99999999999999 L -26.503000259399414 -40.99999999999999 L -23.99799919128418 -40.99999999999999 L -23.49799919128418 -40.99999999999999 L -18.503000259399414 -40.99999999999999 L -16.49799919128418 -40.99999999999999 L -16.003000259399414 -40.99999999999999 L -15.003000259399414 -40.99999999999999 L 5.002999782562256 -40.99999999999999 L 6.498000144958496 -40.99999999999999 L 8.503000259399414 -40.99999999999999 L 14.998000144958496 -40.99999999999999 L 18.003000259399414 -40.99999999999999 L 39.00299835205078 -40.99999999999999 L 48.00299835205078 -40.99999999999999 L 48.99800109863281 -40.99999999999999 L 50.49800109863281 -40.99999999999999 L 52.99800109863281 -40.99999999999999 L 56.00299835205078 -40.99999999999999 L 57.00299835205078 -40.99999999999999 L 59.99800109863281 -40.99999999999999 L 60 -40.99999999999999 L 60 15.998000144958493 L 60 17.26286125183105 L 60 19.205762863159176 L 60 20.822000503540036 L 60 22.290288925170895 L 60 23.987350463867184 L 59.99800109863281 23.999999999999993 L 60 24.012649536132805 L 60 24.499999999999993 L 60.07705307006836 24.499999999999993 L 60.388999938964844 26.4729995727539 L 61.5260009765625 28.704000473022454 L 62.597999572753906 29.77599906921386 L 63.29600143432617 30.474000930786126 L 65.5270004272461 31.61100006103515 L 65.53600311279297 31.612422943115227 L 66.10299682617188 31.702070236206048 L 68 32.00199890136718 L 68 63.00299835205077 L 68 77.49999999999999 M 37.00299835205078 33.923530578613274 L 37.564998626708984 33.87900161743163 L 39.090999603271484 33.51300048828124 L 40.54100036621094 32.91199874877929 L 40.77596664428711 32.76800155639648 L 41.87900161743164 32.09199905395507 L 43.073001861572266 31.072999954223626 L 44.09199905395508 29.878999710083 L 44.9119987487793 28.54100036621093 L 45.51300048828125 27.090999603271477 L 45.87900161743164 25.56500053405761 L 46.00276184082031 24.003000259399407 L 46.00299835205078 24.003000259399407 L 46.00299835205078 9.998000144958494 L 39.00299835205078 9.998000144958494 L 14.998000144958496 9.998000144958494 L 6.498000144958496 9.998000144958494 L 5.002999782562256 9.998000144958494 L -15.003000259399414 9.998000144958494 L -18.503000259399414 9.998000144958494 L -23.49799919128418 9.998000144958494 L -25.003000259399414 9.998000144958494 L -25.003000259399414 24.003000259399407 L -25.002761840820312 24.003000259399407 L -24.878999710083008 25.56500053405761 L -24.51300048828125 27.090999603271477 L -23.91200065612793 28.54100036621093 L -23.49799919128418 29.216526031494134 L -23.091999053955078 29.878999710083 L -22.072999954223633 31.072999954223626 L -20.878999710083008 32.09199905395507 L -19.77596664428711 32.76800155639648 L -19.541000366210938 32.91199874877929 L -18.503000259399414 33.342231750488274 L -18.090999603271484 33.51300048828124 L -16.565000534057617 33.87900161743163 L -16.003000259399414 33.923530578613274 L -16.003000259399414 34.002998352050774 L -15.003000259399414 34.002998352050774 L 5.002999782562256 34.002998352050774 L 6.498000144958496 34.002998352050774 L 14.998000144958496 34.002998352050774 L 25.99799919128418 34.002998352050774 L 36 34.002998352050774 L 37.00299835205078 34.002998352050774 L 37.00299835205078 33.923530578613274 M -16.003000259399414 -35.923530578613274 L -16.49799919128418 -35.88430786132812 L -16.565000534057617 -35.87900161743163 L -18.090999603271484 -35.51300048828124 L -18.503000259399414 -35.342231750488274 L -19.541000366210938 -34.91199874877929 L -20.878999710083008 -34.09199905395507 L -22.072999954223633 -33.07300186157226 L -22.333297729492188 -32.76800155639648 L -23.091999053955078 -31.878999710083 L -23.49799919128418 -31.216526031494134 L -23.91200065612793 -30.54100036621093 L -24.51300048828125 -29.090999603271477 L -24.878999710083008 -27.56500053405761 L -25.002761840820312 -26.003000259399407 L -25.003000259399414 -26.003000259399407 L -25.003000259399414 -1.998000025749206 L -23.49799919128418 -1.998000025749206 L -18.503000259399414 -1.998000025749206 L -16.49799919128418 -1.998000025749206 L -16.003000259399414 -1.998000025749206 L -15.003000259399414 -1.998000025749206 L 5.002999782562256 -1.998000025749206 L 6.498000144958496 -1.998000025749206 L 8.503000259399414 -1.998000025749206 L 14.998000144958496 -1.998000025749206 L 39.00299835205078 -1.998000025749206 L 46.00299835205078 -1.998000025749206 L 48.00299835205078 -1.998000025749206 L 48.00299835205078 -23.997999191284176 L 48.00299835205078 -26.003000259399407 L 48.00276184082031 -26.003000259399407 L 47.87900161743164 -27.56500053405761 L 47.51300048828125 -29.090999603271477 L 46.9119987487793 -30.54100036621093 L 46.09199905395508 -31.878999710083 L 45.33329772949219 -32.76800155639648 L 45.073001861572266 -33.07300186157226 L 43.87900161743164 -34.09199905395507 L 42.54100036621094 -34.91199874877929 L 41.090999603271484 -35.51300048828124 L 39.564998626708984 -35.87900161743163 L 39.00299835205078 -35.923530578613274 L 39.00299835205078 -36.002998352050774 L 18.003000259399414 -36.002998352050774 L 14.998000144958496 -36.002998352050774 L 8.503000259399414 -36.002998352050774 L 6.498000144958496 -36.002998352050774 L 5.002999782562256 -36.002998352050774 L -15.003000259399414 -36.002998352050774 L -16.003000259399414 -36.002998352050774 L -16.003000259399414 -35.923530578613274 M 63.80799865722656 62.91699981689452 L 64.3499984741211 63.00299835205077 L 64.89199829101562 62.91699981689452 L 65.37999725341797 62.66799926757811 L 65.76799774169922 62.27999877929686 L 66.01699829101562 61.79199981689452 L 66.0728530883789 61.43999862670897 L 66.10299682617188 61.249999999999986 L 66.01699829101562 60.708000183105455 L 65.76799774169922 60.22000122070311 L 65.37999725341797 59.83200073242186 L 64.89199829101562 59.583000183105455 L 64.3499984741211 59.4980010986328 L 63.80799865722656 59.583000183105455 L 63.31999969482422 59.83200073242186 L 62.93199920654297 60.22000122070311 L 62.68299865722656 60.708000183105455 L 62.597999572753906 61.249999999999986 L 62.6277961730957 61.43999862670897 L 62.68299865722656 61.79199981689452 L 62.93199920654297 62.27999877929686 L 63.31999969482422 62.66799926757811 L 63.80799865722656 62.91699981689452 M 63.80799865722656 44.916999816894524 L 64.3499984741211 45.002998352050774 L 64.89199829101562 44.916999816894524 L 65.37999725341797 44.66799926757812 L 65.76799774169922 44.27999877929687 L 66.01699829101562 43.791999816894524 L 66.10299682617188 43.24999999999999 L 66.0645980834961 43.00799942016601 L 66.01699829101562 42.70800018310546 L 65.76799774169922 42.22000122070312 L 65.37999725341797 41.83200073242187 L 64.89199829101562 41.58300018310546 L 64.3499984741211 41.498001098632805 L 63.80799865722656 41.58300018310546 L 63.31999969482422 41.83200073242187 L 62.93199920654297 42.22000122070312 L 62.68299865722656 42.70800018310546 L 62.63595199584961 43.00799942016601 L 62.597999572753906 43.24999999999999 L 62.68299865722656 43.791999816894524 L 62.93199920654297 44.27999877929687 L 63.31999969482422 44.66799926757812 L 63.80799865722656 44.916999816894524 M -31.091999053955078 62.91699981689452 L -30.549999237060547 63.00299835205077 L -30.007999420166016 62.91699981689452 L -30 62.9129180908203 L -29.520000457763672 62.66799926757811 L -29.131999969482422 62.27999877929686 L -28.882999420166016 61.79199981689452 L -28.827796936035156 61.43999862670897 L -28.79800033569336 61.249999999999986 L -28.882999420166016 60.708000183105455 L -29.131999969482422 60.22000122070311 L -29.520000457763672 59.83200073242186 L -30 59.58708190917967 L -30.007999420166016 59.583000183105455 L -30.549999237060547 59.4980010986328 L -31.091999053955078 59.583000183105455 L -31.579999923706055 59.83200073242186 L -31.968000411987305 60.22000122070311 L -32.21699905395508 60.708000183105455 L -32.303001403808594 61.249999999999986 L -32.27285385131836 61.43999862670897 L -32.21699905395508 61.79199981689452 L -31.968000411987305 62.27999877929686 L -31.579999923706055 62.66799926757811 L -31.091999053955078 62.91699981689452 M -31.091999053955078 44.916999816894524 L -30.549999237060547 45.002998352050774 L -30.007999420166016 44.916999816894524 L -30 44.912918090820305 L -29.520000457763672 44.66799926757812 L -29.131999969482422 44.27999877929687 L -28.882999420166016 43.791999816894524 L -28.79800033569336 43.24999999999999 L -28.835952758789062 43.00799942016601 L -28.882999420166016 42.70800018310546 L -29.131999969482422 42.22000122070312 L -29.520000457763672 41.83200073242187 L -30 41.58708190917968 L -30.007999420166016 41.58300018310546 L -30.549999237060547 41.498001098632805 L -31.091999053955078 41.58300018310546 L -31.579999923706055 41.83200073242187 L -31.968000411987305 42.22000122070312 L -32.21699905395508 42.70800018310546 L -32.26460266113281 43.00799942016601 L -32.303001403808594 43.24999999999999 L -32.21699905395508 43.791999816894524 L -31.968000411987305 44.27999877929687 L -31.579999923706055 44.66799926757812 L -31.091999053955078 44.916999816894524 M 53.07099914550781 33.035999298095696 L 52.99800109863281 33.49999999999999 L 53.07099914550781 33.96400070190429 L 53.284000396728516 34.38299942016601 L 53.617000579833984 34.71599960327148 L 54.0359992980957 34.92900085449218 L 54.5 35.002998352050774 L 54.9640007019043 34.92900085449218 L 55.382999420166016 34.71599960327148 L 55.715999603271484 34.38299942016601 L 55.92900085449219 33.96400070190429 L 56.00299835205078 33.49999999999999 L 55.92900085449219 33.035999298095696 L 55.792762756347656 32.76800155639648 L 55.715999603271484 32.61700057983398 L 55.382999420166016 32.28400039672851 L 54.9640007019043 32.070999145507805 L 54.5 31.997999191284173 L 54.0359992980957 32.070999145507805 L 53.617000579833984 32.28400039672851 L 53.284000396728516 32.61700057983398 L 53.207237243652344 32.76800155639648 L 53.07099914550781 33.035999298095696 M 53.215999603271484 24.617000579833977 L 53.17499923706055 24.57600021362304 L 52.99800109863281 24.399000167846673 L 52.882999420166016 24.28400039672851 L 52.4640007019043 24.070999145507805 L 52 23.997999191284176 L 51.5359992980957 24.070999145507805 L 51.117000579833984 24.28400039672851 L 50.82500076293945 24.57600021362304 L 50.784000396728516 24.617000579833977 L 50.57099914550781 25.035999298095696 L 50.49800109863281 25.499999999999993 L 50.57099914550781 25.96400070190429 L 50.784000396728516 26.38299942016601 L 51.117000579833984 26.715999603271477 L 51.5359992980957 26.92900085449218 L 52 27.003000259399407 L 52.4640007019043 26.92900085449218 L 52.882999420166016 26.715999603271477 L 52.99800109863281 26.600999832153313 L 53.215999603271484 26.38299942016601 L 53.24800109863281 26.320051193237298 L 53.42900085449219 25.96400070190429 L 53.50299835205078 25.499999999999993 L 53.42900085449219 25.035999298095696 L 53.24800109863281 24.679948806762688 L 53.215999603271484 24.617000579833977 M 54.0359992980957 -35.070999145507805 L 54.5 -34.998001098632805 L 54.9640007019043 -35.070999145507805 L 55.382999420166016 -35.28400039672851 L 55.715999603271484 -35.61700057983398 L 55.92900085449219 -36.035999298095696 L 56.00299835205078 -36.49999999999999 L 55.944950103759766 -36.86399841308593 L 55.92900085449219 -36.96400070190429 L 55.715999603271484 -37.38299942016601 L 55.382999420166016 -37.71599960327148 L 54.9640007019043 -37.92900085449218 L 54.5 -38.002998352050774 L 54.0359992980957 -37.92900085449218 L 53.617000579833984 -37.71599960327148 L 53.284000396728516 -37.38299942016601 L 53.07099914550781 -36.96400070190429 L 53.055267333984375 -36.86399841308593 L 52.99800109863281 -36.49999999999999 L 53.07099914550781 -36.035999298095696 L 53.284000396728516 -35.61700057983398 L 53.617000579833984 -35.28400039672851 L 54.0359992980957 -35.070999145507805 M 53.42900085449219 0.03599999845027934 L 53.41069793701172 1.1102230246251565e-16 L 53.215999603271484 -0.38299998641014077 L 52.99800109863281 -0.6010000109672544 L 52.882999420166016 -0.7160000205039976 L 52.4640007019043 -0.9290000200271603 L 52 -1.0030000209808345 L 51.5359992980957 -0.9290000200271603 L 51.117000579833984 -0.7160000205039976 L 50.784000396728516 -0.38299998641014077 L 50.58930206298828 1.1102230246251565e-16 L 50.57099914550781 0.03599999845027934 L 50.49800109863281 0.5 L 50.57099914550781 0.9639999866485595 L 50.784000396728516 1.3830000162124634 L 51.117000579833984 1.7159999608993526 L 51.5359992980957 1.9290000200271602 L 52 2.0030000209808345 L 52.4640007019043 1.9290000200271602 L 52.882999420166016 1.7159999608993526 L 52.99800109863281 1.6009999513626094 L 53.215999603271484 1.3830000162124634 L 53.42900085449219 0.9639999866485595 L 53.50299835205078 0.5 L 53.42900085449219 0.03599999845027934 M -17.190000534057617 4.95300006866455 L -16.910999298095703 4.810999870300292 L -16.68899917602539 4.589000225067138 L -16.547000885009766 4.30999994277954 L -16.513174057006836 4.09600019454956 L -16.49799919128418 3.999999999999999 L -16.547000885009766 3.690000057220458 L -16.68899917602539 3.4110000133514395 L -16.910999298095703 3.188999891281127 L -17.190000534057617 3.0469999313354483 L -17.5 2.9979999065399165 L -17.809999465942383 3.0469999313354483 L -18.089000701904297 3.188999891281127 L -18.31100082397461 3.4110000133514395 L -18.452999114990234 3.690000057220458 L -18.503000259399414 3.999999999999999 L -18.487516403198242 4.09600019454956 L -18.452999114990234 4.30999994277954 L -18.31100082397461 4.589000225067138 L -18.089000701904297 4.810999870300292 L -17.809999465942383 4.95300006866455 L -17.5 5.002999782562255 L -17.190000534057617 4.95300006866455 M -26.429000854492188 33.035999298095696 L -26.503000259399414 33.49999999999999 L -26.429000854492188 33.96400070190429 L -26.215999603271484 34.38299942016601 L -25.882999420166016 34.71599960327148 L -25.464000701904297 34.92900085449218 L -25 35.002998352050774 L -24.535999298095703 34.92900085449218 L -24.117000579833984 34.71599960327148 L -23.784000396728516 34.38299942016601 L -23.570999145507812 33.96400070190429 L -23.49799919128418 33.49999999999999 L -23.570999145507812 33.035999298095696 L -23.707239151000977 32.76800155639648 L -23.784000396728516 32.61700057983398 L -24.117000579833984 32.28400039672851 L -24.535999298095703 32.070999145507805 L -25 31.997999191284173 L -25.464000701904297 32.070999145507805 L -25.882999420166016 32.28400039672851 L -26.215999603271484 32.61700057983398 L -26.292760848999023 32.76800155639648 L -26.429000854492188 33.035999298095696 M -25.035999298095703 -35.070999145507805 L -24.617000579833984 -35.28400039672851 L -24.284000396728516 -35.61700057983398 L -24.070999145507812 -36.035999298095696 L -23.99799919128418 -36.49999999999999 L -24.055267333984375 -36.86399841308593 L -24.070999145507812 -36.96400070190429 L -24.284000396728516 -37.38299942016601 L -24.617000579833984 -37.71599960327148 L -25.035999298095703 -37.92900085449218 L -25.5 -38.002998352050774 L -25.964000701904297 -37.92900085449218 L -26.382999420166016 -37.71599960327148 L -26.503000259399414 -37.59600067138671 L -26.715999603271484 -37.38299942016601 L -26.929000854492188 -36.96400070190429 L -26.944948196411133 -36.86399841308593 L -27.003000259399414 -36.49999999999999 L -26.929000854492188 -36.035999298095696 L -26.715999603271484 -35.61700057983398 L -26.503000259399414 -35.403999328613274 L -26.382999420166016 -35.28400039672851 L -25.964000701904297 -35.070999145507805 L -25.5 -34.998001098632805 L -25.035999298095703 -35.070999145507805 M 7.809999942779541 4.95300006866455 L 8.08899974822998 4.810999870300292 L 8.310999870300293 4.589000225067138 L 8.45300006866455 4.30999994277954 L 8.487516403198242 4.09600019454956 L 8.503000259399414 3.999999999999999 L 8.45300006866455 3.690000057220458 L 8.310999870300293 3.4110000133514395 L 8.08899974822998 3.188999891281127 L 7.809999942779541 3.0469999313354483 L 7.5 2.9979999065399165 L 7.190000057220459 3.0469999313354483 L 6.910999774932861 3.188999891281127 L 6.689000129699707 3.4110000133514395 L 6.546999931335449 3.690000057220458 L 6.498000144958496 3.999999999999999 L 6.513174057006836 4.09600019454956 L 6.546999931335449 4.30999994277954 L 6.689000129699707 4.589000225067138 L 6.910999774932861 4.810999870300292 L 7.190000057220459 4.95300006866455 L 7.5 5.002999782562255 L 7.809999942779541 4.95300006866455 M 52.99800109863281 21.00300025939941 L 53.50299835205078 21.00300025939941 L 56.00299835205078 21.00300025939941 L 57.00299835205078 21.00300025939941 L 57.00299835205078 4.998000144958495 L 52.99800109863281 4.998000144958495 L 50.49800109863281 4.998000144958495 L 48.99800109863281 4.998000144958495 L 48.99800109863281 21.00300025939941 L 50.49800109863281 21.00300025939941 L 52.99800109863281 21.00300025939941 M 5.002999782562256 7.002999782562254 L 5.002999782562256 0.9980000257492064 L -15.003000259399414 0.9980000257492064 L -15.003000259399414 5.002999782562255 L -15.003000259399414 7.002999782562254 L 5.002999782562256 7.002999782562254 z" fill="none" stroke="rgb(255,0,0)" stroke-width="0.001mm" />
</svg>