  0
SECTION
  2
HEADER
  9
$ACADVER
  1
AC1009
  9
$FILLMODE
 70
 0
  9
$SPLFRAME
 70
 1
  9
$EXTMIN
 10
0
 20
0
 30
0.0
  9
$EXTMAX
 10
41.6667
 20
41.6667
 30
0.0
  0
ENDSEC
  0
SECTION
  2
TABLES
  0
TABLE
  2
LAYER
 70
1
  0
LAYER
  2
0
 70
     0
 62
     7
  6
CONTINUOUS
  0
ENDTAB
  0
ENDSEC
  0
SECTION
  2
ENTITIES
  0
POLYLINE
  8
0
 62
     1
 66
     1
 10
0
 20
0
 30
0.0
 70
     1
 40
0.0107136
 41
0.0107136
  0
VERTEX
  8
0
 10
4.28168
 20
1.08773
 30
0.0
 40
0.0001488
 41
0.0001488
  0
VERTEX
  8
0
 10
4.29135
 20
1.02691
 30
0.0
 40
0.0001488
 41
0.0001488
  0
VERTEX
  8
0
 10
4.28168
 20
0.966092
 30
0.0
 40
0.0001488
 41
0.0001488
  0
VERTEX
  8
0
 10
4.26247
 20
0.928386
 30
0.0
 40
0.0001488
 41
0.0001488
  0
VERTEX
  8
0
 10
4.25375
 20
0.911187
 30
0.0
 40
0.0001488
 41
0.0001488
  0
VERTEX
  8
0
 10
4.22108
 20
0.878581
 30
0.0
 40
0.0001488
 41
0.0001488
  0
VERTEX
  8
0
 10
4.21018
 20
0.867676
 30
0.0
 40
0.0001488
 41
0.0001488
  0
VERTEX
  8
0
 10
4.15533
 20
0.839681
 30
0.0
 40
0.0001488
 41
0.0001488
  0
VERTEX
  8
0
 10
4.09451
 20
0.830078
 30
0.0
 40
0.0001488
 41
0.0001488
  0
VERTEX
  8
0
 10
3.89762
 20
0.830078
 30
0.0
 40
0.0001488
 41
0.0001488
  0
VERTEX
  8
0
 10
3.89762
 20
0.0426432
 30
0.0
 40
0.0001488
 41
0.0001488
  0
VERTEX
  8
0
 10
0.433051
 20
0.0426432
 30
0.0
 40
0.0001488
 41
0.0001488
  0
VERTEX
  8
0
 10
0.433051
 20
0.830078
 30
0.0
 40
0.0001488
 41
0.0001488
  0
VERTEX
  8
0
 10
0.236219
 20
0.830078
 30
0.0
 40
0.0001488
 41
0.0001488
  0
VERTEX
  8
0
 10
0.175401
 20
0.839681
 30
0.0
 40
0.0001488
 41
0.0001488
  0
VERTEX
  8
0
 10
0.120497
 20
0.867676
 30
0.0
 40
0.0001488
 41
0.0001488
  0
VERTEX
  8
0
 10
0.0769857
 20
0.911187
 30
0.0
 40
0.0001488
 41
0.0001488
  0
VERTEX
  8
0
 10
0.0489908
 20
0.966092
 30
0.0
 40
0.0001488
 41
0.0001488
  0
VERTEX
  8
0
 10
0.0393881
 20
1.02691
 30
0.0
 40
0.0001488
 41
0.0001488
  0
VERTEX
  8
0
 10
0.0489908
 20
1.08773
 30
0.0
 40
0.0001488
 41
0.0001488
  0
VERTEX
  8
0
 10
0.0769857
 20
1.14263
 30
0.0
 40
0.0001488
 41
0.0001488
  0
VERTEX
  8
0
 10
0.120497
 20
1.18614
 30
0.0
 40
0.0001488
 41
0.0001488
  0
VERTEX
  8
0
 10
0.137695
 20
1.19488
 30
0.0
 40
0.0001488
 41
0.0001488
  0
VERTEX
  8
0
 10
0.175401
 20
1.21408
 30
0.0
 40
0.0001488
 41
0.0001488
  0
VERTEX
  8
0
 10
0.236219
 20
1.22374
 30
0.0
 40
0.0001488
 41
0.0001488
  0
VERTEX
  8
0
 10
0.433051
 20
1.22374
 30
0.0
 40
0.0001488
 41
0.0001488
  0
VERTEX
  8
0
 10
0.433051
 20
2.01118
 30
0.0
 40
0.0001488
 41
0.0001488
  0
VERTEX
  8
0
 10
3.89762
 20
2.01118
 30
0.0
 40
0.0001488
 41
0.0001488
  0
VERTEX
  8
0
 10
3.89762
 20
1.22374
 30
0.0
 40
0.0001488
 41
0.0001488
  0
VERTEX
  8
0
 10
4.09451
 20
1.22374
 30
0.0
 40
0.0001488
 41
0.0001488
  0
VERTEX
  8
0
 10
4.15533
 20
1.21408
 30
0.0
 40
0.0001488
 41
0.0001488
  0
VERTEX
  8
0
 10
4.19303
 20
1.19488
 30
0.0
 40
0.0001488
 41
0.0001488
  0
VERTEX
  8
0
 10
4.21018
 20
1.18614
 30
0.0
 40
0.0001488
 41
0.0001488
  0
VERTEX
  8
0
 10
4.25375
 20
1.14263
 30
0.0
 40
0.0001488
 41
0.0001488
  0
VERTEX
  8
0
 10
4.28168
 20
1.08773
 30
0.0
 40
0.0001488
 41
0.0001488
  0
SEQEND
 8
0
  0
POLYLINE
  8
0
 62
     1
 66
     1
 10
0
 20
0
 30
0.0
 70
     1
 40
0.0107136
 41
0.0107136
  0
VERTEX
  8
0
 10
2.46169
 20
2.83219
 30
0.0
 40
0.0001488
 41
0.0001488
  0
VERTEX
  8
0
 10
2.51394
 20
2.77994
 30
0.0
 40
0.0001488
 41
0.0001488
  0
VERTEX
  8
0
 10
2.54747
 20
2.71408
 30
0.0
 40
0.0001488
 41
0.0001488
  0
VERTEX
  8
0
 10
2.55908
 20
2.64106
 30
0.0
 40
0.0001488
 41
0.0001488
  0
VERTEX
  8
0
 10
2.55908
 20
2.40483
 30
0.0
 40
0.0001488
 41
0.0001488
  0
VERTEX
  8
0
 10
2.91342
 20
2.40483
 30
0.0
 40
0.0001488
 41
0.0001488
  0
VERTEX
  8
0
 10
2.91342
 20
2.0899
 30
0.0
 40
0.0001488
 41
0.0001488
  0
VERTEX
  8
0
 10
1.73226
 20
2.0899
 30
0.0
 40
0.0001488
 41
0.0001488
  0
VERTEX
  8
0
 10
1.73226
 20
2.40483
 30
0.0
 40
0.0001488
 41
0.0001488
  0
VERTEX
  8
0
 10
2.08658
 20
2.40483
 30
0.0
 40
0.0001488
 41
0.0001488
  0
VERTEX
  8
0
 10
2.08658
 20
2.64106
 30
0.0
 40
0.0001488
 41
0.0001488
  0
VERTEX
  8
0
 10
2.09819
 20
2.71408
 30
0.0
 40
0.0001488
 41
0.0001488
  0
VERTEX
  8
0
 10
2.13172
 20
2.77994
 30
0.0
 40
0.0001488
 41
0.0001488
  0
VERTEX
  8
0
 10
2.18397
 20
2.83219
 30
0.0
 40
0.0001488
 41
0.0001488
  0
VERTEX
  8
0
 10
2.24983
 20
2.86572
 30
0.0
 40
0.0001488
 41
0.0001488
  0
VERTEX
  8
0
 10
2.32281
 20
2.87728
 30
0.0
 40
0.0001488
 41
0.0001488
  0
VERTEX
  8
0
 10
2.39583
 20
2.86572
 30
0.0
 40
0.0001488
 41
0.0001488
  0
VERTEX
  8
0
 10
2.46169
 20
2.83219
 30
0.0
 40
0.0001488
 41
0.0001488
  0
SEQEND
 8
0
  0
POLYLINE
  8
0
 62
     1
 66
     1
 10
0
 20
0
 30
0.0
 70
     1
 40
0.0107136
 41
0.0107136
  0
VERTEX
  8
0
 10
1.16249
 20
2.83219
 30
0.0
 40
0.0001488
 41
0.0001488
  0
VERTEX
  8
0
 10
1.21473
 20
2.77994
 30
0.0
 40
0.0001488
 41
0.0001488
  0
VERTEX
  8
0
 10
1.24826
 20
2.71408
 30
0.0
 40
0.0001488
 41
0.0001488
  0
VERTEX
  8
0
 10
1.25982
 20
2.64106
 30
0.0
 40
0.0001488
 41
0.0001488
  0
VERTEX
  8
0
 10
1.25982
 20
2.40483
 30
0.0
 40
0.0001488
 41
0.0001488
  0
VERTEX
  8
0
 10
1.61415
 20
2.40483
 30
0.0
 40
0.0001488
 41
0.0001488
  0
VERTEX
  8
0
 10
1.61415
 20
2.0899
 30
0.0
 40
0.0001488
 41
0.0001488
  0
VERTEX
  8
0
 10
0.433051
 20
2.0899
 30
0.0
 40
0.0001488
 41
0.0001488
  0
VERTEX
  8
0
 10
0.433051
 20
2.40483
 30
0.0
 40
0.0001488
 41
0.0001488
  0
VERTEX
  8
0
 10
0.787381
 20
2.40483
 30
0.0
 40
0.0001488
 41
0.0001488
  0
VERTEX
  8
0
 10
0.787381
 20
2.64106
 30
0.0
 40
0.0001488
 41
0.0001488
  0
VERTEX
  8
0
 10
0.79899
 20
2.71408
 30
0.0
 40
0.0001488
 41
0.0001488
  0
VERTEX
  8
0
 10
0.832519
 20
2.77994
 30
0.0
 40
0.0001488
 41
0.0001488
  0
VERTEX
  8
0
 10
0.884765
 20
2.83219
 30
0.0
 40
0.0001488
 41
0.0001488
  0
VERTEX
  8
0
 10
0.950629
 20
2.86572
 30
0.0
 40
0.0001488
 41
0.0001488
  0
VERTEX
  8
0
 10
1.0236
 20
2.87728
 30
0.0
 40
0.0001488
 41
0.0001488
  0
VERTEX
  8
0
 10
1.09663
 20
2.86572
 30
0.0
 40
0.0001488
 41
0.0001488
  0
VERTEX
  8
0
 10
1.16249
 20
2.83219
 30
0.0
 40
0.0001488
 41
0.0001488
  0
SEQEND
 8
0
  0
POLYLINE
  8
0
 62
     1
 66
     1
 10
0
 20
0
 30
0.0
 70
     1
 40
0.0107136
 41
0.0107136
  0
VERTEX
  8
0
 10
4.18821
 20
0.996474
 30
0.0
 40
0.0001488
 41
0.0001488
  0
VERTEX
  8
0
 10
4.19303
 20
1.02691
 30
0.0
 40
0.0001488
 41
0.0001488
  0
VERTEX
  8
0
 10
4.19097
 20
1.03982
 30
0.0
 40
0.0001488
 41
0.0001488
  0
VERTEX
  8
0
 10
4.18821
 20
1.05735
 30
0.0
 40
0.0001488
 41
0.0001488
  0
VERTEX
  8
0
 10
4.17421
 20
1.0848
 30
0.0
 40
0.0001488
 41
0.0001488
  0
VERTEX
  8
0
 10
4.1524
 20
1.10661
 30
0.0
 40
0.0001488
 41
0.0001488
  0
VERTEX
  8
0
 10
4.12494
 20
1.12061
 30
0.0
 40
0.0001488
 41
0.0001488
  0
VERTEX
  8
0
 10
4.09451
 20
1.12543
 30
0.0
 40
0.0001488
 41
0.0001488
  0
VERTEX
  8
0
 10
4.06407
 20
1.12061
 30
0.0
 40
0.0001488
 41
0.0001488
  0
VERTEX
  8
0
 10
4.03657
 20
1.10661
 30
0.0
 40
0.0001488
 41
0.0001488
  0
VERTEX
  8
0
 10
4.01476
 20
1.0848
 30
0.0
 40
0.0001488
 41
0.0001488
  0
VERTEX
  8
0
 10
4.00082
 20
1.05735
 30
0.0
 40
0.0001488
 41
0.0001488
  0
VERTEX
  8
0
 10
3.99804
 20
1.03982
 30
0.0
 40
0.0001488
 41
0.0001488
  0
VERTEX
  8
0
 10
3.99599
 20
1.02691
 30
0.0
 40
0.0001488
 41
0.0001488
  0
VERTEX
  8
0
 10
4.00082
 20
0.996474
 30
0.0
 40
0.0001488
 41
0.0001488
  0
VERTEX
  8
0
 10
4.01476
 20
0.968967
 30
0.0
 40
0.0001488
 41
0.0001488
  0
VERTEX
  8
0
 10
4.03657
 20
0.947157
 30
0.0
 40
0.0001488
 41
0.0001488
  0
VERTEX
  8
0
 10
4.06407
 20
0.933214
 30
0.0
 40
0.0001488
 41
0.0001488
  0
VERTEX
  8
0
 10
4.09451
 20
0.928386
 30
0.0
 40
0.0001488
 41
0.0001488
  0
VERTEX
  8
0
 10
4.12494
 20
0.933214
 30
0.0
 40
0.0001488
 41
0.0001488
  0
VERTEX
  8
0
 10
4.1524
 20
0.947157
 30
0.0
 40
0.0001488
 41
0.0001488
  0
VERTEX
  8
0
 10
4.17421
 20
0.968967
 30
0.0
 40
0.0001488
 41
0.0001488
  0
VERTEX
  8
0
 10
4.18821
 20
0.996474
 30
0.0
 40
0.0001488
 41
0.0001488
  0
SEQEND
 8
0
  0
POLYLINE
  8
0
 62
     1
 66
     1
 10
0
 20
0
 30
0.0
 70
     1
 40
0.0107136
 41
0.0107136
  0
VERTEX
  8
0
 10
0.205783
 20
0.933214
 30
0.0
 40
0.0001488
 41
0.0001488
  0
VERTEX
  8
0
 10
0.236219
 20
0.928386
 30
0.0
 40
0.0001488
 41
0.0001488
  0
VERTEX
  8
0
 10
0.266656
 20
0.933214
 30
0.0
 40
0.0001488
 41
0.0001488
  0
VERTEX
  8
0
 10
0.294108
 20
0.947157
 30
0.0
 40
0.0001488
 41
0.0001488
  0
VERTEX
  8
0
 10
0.315918
 20
0.968967
 30
0.0
 40
0.0001488
 41
0.0001488
  0
VERTEX
  8
0
 10
0.329915
 20
0.996474
 30
0.0
 40
0.0001488
 41
0.0001488
  0
VERTEX
  8
0
 10
0.334744
 20
1.02691
 30
0.0
 40
0.0001488
 41
0.0001488
  0
VERTEX
  8
0
 10
0.332682
 20
1.03982
 30
0.0
 40
0.0001488
 41
0.0001488
  0
VERTEX
  8
0
 10
0.329915
 20
1.05735
 30
0.0
 40
0.0001488
 41
0.0001488
  0
VERTEX
  8
0
 10
0.315918
 20
1.0848
 30
0.0
 40
0.0001488
 41
0.0001488
  0
VERTEX
  8
0
 10
0.294108
 20
1.10661
 30
0.0
 40
0.0001488
 41
0.0001488
  0
VERTEX
  8
0
 10
0.266656
 20
1.12061
 30
0.0
 40
0.0001488
 41
0.0001488
  0
VERTEX
  8
0
 10
0.236219
 20
1.12543
 30
0.0
 40
0.0001488
 41
0.0001488
  0
VERTEX
  8
0
 10
0.205783
 20
1.12061
 30
0.0
 40
0.0001488
 41
0.0001488
  0
VERTEX
  8
0
 10
0.178331
 20
1.10661
 30
0.0
 40
0.0001488
 41
0.0001488
  0
VERTEX
  8
0
 10
0.156521
 20
1.0848
 30
0.0
 40
0.0001488
 41
0.0001488
  0
VERTEX
  8
0
 10
0.142524
 20
1.05735
 30
0.0
 40
0.0001488
 41
0.0001488
  0
VERTEX
  8
0
 10
0.139757
 20
1.03982
 30
0.0
 40
0.0001488
 41
0.0001488
  0
VERTEX
  8
0
 10
0.137695
 20
1.02691
 30
0.0
 40
0.0001488
 41
0.0001488
  0
VERTEX
  8
0
 10
0.142524
 20
0.996474
 30
0.0
 40
0.0001488
 41
0.0001488
  0
VERTEX
  8
0
 10
0.156521
 20
0.968967
 30
0.0
 40
0.0001488
 41
0.0001488
  0
VERTEX
  8
0
 10
0.178331
 20
0.947157
 30
0.0
 40
0.0001488
 41
0.0001488
  0
VERTEX
  8
0
 10
0.205783
 20
0.933214
 30
0.0
 40
0.0001488
 41
0.0001488
  0
SEQEND
 8
0
  0
POLYLINE
  8
0
 62
     1
 66
     1
 10
0
 20
0
 30
0.0
 70
     1
 40
0.0107136
 41
0.0107136
  0
VERTEX
  8
0
 10
2.28901
 20
2.52881
 30
0.0
 40
0.0001488
 41
0.0001488
  0
VERTEX
  8
0
 10
2.32676
 20
2.52289
 30
0.0
 40
0.0001488
 41
0.0001488
  0
VERTEX
  8
0
 10
2.36453
 20
2.52881
 30
0.0
 40
0.0001488
 41
0.0001488
  0
VERTEX
  8
0
 10
2.3986
 20
2.54617
 30
0.0
 40
0.0001488
 41
0.0001488
  0
VERTEX
  8
0
 10
2.42557
 20
2.57319
 30
0.0
 40
0.0001488
 41
0.0001488
  0
VERTEX
  8
0
 10
2.44299
 20
2.60726
 30
0.0
 40
0.0001488
 41
0.0001488
  0
VERTEX
  8
0
 10
2.44889
 20
2.64501
 30
0.0
 40
0.0001488
 41
0.0001488
  0
VERTEX
  8
0
 10
2.44775
 20
2.6524
 30
0.0
 40
0.0001488
 41
0.0001488
  0
VERTEX
  8
0
 10
2.44299
 20
2.68278
 30
0.0
 40
0.0001488
 41
0.0001488
  0
VERTEX
  8
0
 10
2.42557
 20
2.71685
 30
0.0
 40
0.0001488
 41
0.0001488
  0
VERTEX
  8
0
 10
2.3986
 20
2.74382
 30
0.0
 40
0.0001488
 41
0.0001488
  0
VERTEX
  8
0
 10
2.36453
 20
2.76118
 30
0.0
 40
0.0001488
 41
0.0001488
  0
VERTEX
  8
0
 10
2.32676
 20
2.76719
 30
0.0
 40
0.0001488
 41
0.0001488
  0
VERTEX
  8
0
 10
2.28901
 20
2.76118
 30
0.0
 40
0.0001488
 41
0.0001488
  0
VERTEX
  8
0
 10
2.25493
 20
2.74382
 30
0.0
 40
0.0001488
 41
0.0001488
  0
VERTEX
  8
0
 10
2.22797
 20
2.71685
 30
0.0
 40
0.0001488
 41
0.0001488
  0
VERTEX
  8
0
 10
2.21061
 20
2.68278
 30
0.0
 40
0.0001488
 41
0.0001488
  0
VERTEX
  8
0
 10
2.20578
 20
2.6524
 30
0.0
 40
0.0001488
 41
0.0001488
  0
VERTEX
  8
0
 10
2.20458
 20
2.64501
 30
0.0
 40
0.0001488
 41
0.0001488
  0
VERTEX
  8
0
 10
2.21061
 20
2.60726
 30
0.0
 40
0.0001488
 41
0.0001488
  0
VERTEX
  8
0
 10
2.22797
 20
2.57319
 30
0.0
 40
0.0001488
 41
0.0001488
  0
VERTEX
  8
0
 10
2.25493
 20
2.54617
 30
0.0
 40
0.0001488
 41
0.0001488
  0
VERTEX
  8
0
 10
2.28901
 20
2.52881
 30
0.0
 40
0.0001488
 41
0.0001488
  0
SEQEND
 8
0
  0
POLYLINE
  8
0
 62
     1
 66
     1
 10
0
 20
0
 30
0.0
 70
     1
 40
0.0107136
 41
0.0107136
  0
VERTEX
  8
0
 10
2.646
 20
2.18175
 30
0.0
 40
0.0001488
 41
0.0001488
  0
VERTEX
  8
0
 10
2.66732
 20
2.17839
 30
0.0
 40
0.0001488
 41
0.0001488
  0
VERTEX
  8
0
 10
2.68864
 20
2.18175
 30
0.0
 40
0.0001488
 41
0.0001488
  0
VERTEX
  8
0
 10
2.7079
 20
2.19157
 30
0.0
 40
0.0001488
 41
0.0001488
  0
VERTEX
  8
0
 10
2.72314
 20
2.20682
 30
0.0
 40
0.0001488
 41
0.0001488
  0
VERTEX
  8
0
 10
2.73296
 20
2.22601
 30
0.0
 40
0.0001488
 41
0.0001488
  0
VERTEX
  8
0
 10
2.73628
 20
2.2474
 30
0.0
 40
0.0001488
 41
0.0001488
  0
VERTEX
  8
0
 10
2.736
 20
2.24924
 30
0.0
 40
0.0001488
 41
0.0001488
  0
VERTEX
  8
0
 10
2.73296
 20
2.26872
 30
0.0
 40
0.0001488
 41
0.0001488
  0
VERTEX
  8
0
 10
2.72314
 20
2.28792
 30
0.0
 40
0.0001488
 41
0.0001488
  0
VERTEX
  8
0
 10
2.7079
 20
2.30322
 30
0.0
 40
0.0001488
 41
0.0001488
  0
VERTEX
  8
0
 10
2.68864
 20
2.31299
 30
0.0
 40
0.0001488
 41
0.0001488
  0
VERTEX
  8
0
 10
2.66732
 20
2.3164
 30
0.0
 40
0.0001488
 41
0.0001488
  0
VERTEX
  8
0
 10
2.646
 20
2.31299
 30
0.0
 40
0.0001488
 41
0.0001488
  0
VERTEX
  8
0
 10
2.62679
 20
2.30322
 30
0.0
 40
0.0001488
 41
0.0001488
  0
VERTEX
  8
0
 10
2.61149
 20
2.28792
 30
0.0
 40
0.0001488
 41
0.0001488
  0
VERTEX
  8
0
 10
2.60167
 20
2.26872
 30
0.0
 40
0.0001488
 41
0.0001488
  0
VERTEX
  8
0
 10
2.59864
 20
2.24924
 30
0.0
 40
0.0001488
 41
0.0001488
  0
VERTEX
  8
0
 10
2.59831
 20
2.2474
 30
0.0
 40
0.0001488
 41
0.0001488
  0
VERTEX
  8
0
 10
2.60167
 20
2.22601
 30
0.0
 40
0.0001488
 41
0.0001488
  0
VERTEX
  8
0
 10
2.61149
 20
2.20682
 30
0.0
 40
0.0001488
 41
0.0001488
  0
VERTEX
  8
0
 10
2.62679
 20
2.19157
 30
0.0
 40
0.0001488
 41
0.0001488
  0
VERTEX
  8
0
 10
2.646
 20
2.18175
 30
0.0
 40
0.0001488
 41
0.0001488
  0
SEQEND
 8
0
  0
POLYLINE
  8
0
 62
     1
 66
     1
 10
0
 20
0
 30
0.0
 70
     1
 40
0.0107136
 41
0.0107136
  0
VERTEX
  8
0
 10
1.95703
 20
2.18175
 30
0.0
 40
0.0001488
 41
0.0001488
  0
VERTEX
  8
0
 10
1.97835
 20
2.17839
 30
0.0
 40
0.0001488
 41
0.0001488
  0
VERTEX
  8
0
 10
1.99968
 20
2.18175
 30
0.0
 40
0.0001488
 41
0.0001488
  0
VERTEX
  8
0
 10
2.01887
 20
2.19157
 30
0.0
 40
0.0001488
 41
0.0001488
  0
VERTEX
  8
0
 10
2.03418
 20
2.20682
 30
0.0
 40
0.0001488
 41
0.0001488
  0
VERTEX
  8
0
 10
2.044
 20
2.22601
 30
0.0
 40
0.0001488
 41
0.0001488
  0
VERTEX
  8
0
 10
2.04731
 20
2.2474
 30
0.0
 40
0.0001488
 41
0.0001488
  0
VERTEX
  8
0
 10
2.04704
 20
2.24924
 30
0.0
 40
0.0001488
 41
0.0001488
  0
VERTEX
  8
0
 10
2.044
 20
2.26872
 30
0.0
 40
0.0001488
 41
0.0001488
  0
VERTEX
  8
0
 10
2.03418
 20
2.28792
 30
0.0
 40
0.0001488
 41
0.0001488
  0
VERTEX
  8
0
 10
2.01887
 20
2.30322
 30
0.0
 40
0.0001488
 41
0.0001488
  0
VERTEX
  8
0
 10
1.99968
 20
2.31299
 30
0.0
 40
0.0001488
 41
0.0001488
  0
VERTEX
  8
0
 10
1.97835
 20
2.3164
 30
0.0
 40
0.0001488
 41
0.0001488
  0
VERTEX
  8
0
 10
1.95703
 20
2.31299
 30
0.0
 40
0.0001488
 41
0.0001488
  0
VERTEX
  8
0
 10
1.93778
 20
2.30322
 30
0.0
 40
0.0001488
 41
0.0001488
  0
VERTEX
  8
0
 10
1.92253
 20
2.28792
 30
0.0
 40
0.0001488
 41
0.0001488
  0
VERTEX
  8
0
 10
1.91271
 20
2.26872
 30
0.0
 40
0.0001488
 41
0.0001488
  0
VERTEX
  8
0
 10
1.90961
 20
2.24924
 30
0.0
 40
0.0001488
 41
0.0001488
  0
VERTEX
  8
0
 10
1.90935
 20
2.2474
 30
0.0
 40
0.0001488
 41
0.0001488
  0
VERTEX
  8
0
 10
1.91271
 20
2.22601
 30
0.0
 40
0.0001488
 41
0.0001488
  0
VERTEX
  8
0
 10
1.92253
 20
2.20682
 30
0.0
 40
0.0001488
 41
0.0001488
  0
VERTEX
  8
0
 10
1.93778
 20
2.19157
 30
0.0
 40
0.0001488
 41
0.0001488
  0
VERTEX
  8
0
 10
1.95703
 20
2.18175
 30
0.0
 40
0.0001488
 41
0.0001488
  0
SEQEND
 8
0
  0
POLYLINE
  8
0
 62
     1
 66
     1
 10
0
 20
0
 30
0.0
 70
     1
 40
0.0107136
 41
0.0107136
  0
VERTEX
  8
0
 10
0.9898
 20
2.52881
 30
0.0
 40
0.0001488
 41
0.0001488
  0
VERTEX
  8
0
 10
1.02756
 20
2.52289
 30
0.0
 40
0.0001488
 41
0.0001488
  0
VERTEX
  8
0
 10
1.06532
 20
2.52881
 30
0.0
 40
0.0001488
 41
0.0001488
  0
VERTEX
  8
0
 10
1.09939
 20
2.54617
 30
0.0
 40
0.0001488
 41
0.0001488
  0
VERTEX
  8
0
 10
1.12636
 20
2.57319
 30
0.0
 40
0.0001488
 41
0.0001488
  0
VERTEX
  8
0
 10
1.14372
 20
2.60726
 30
0.0
 40
0.0001488
 41
0.0001488
  0
VERTEX
  8
0
 10
1.14968
 20
2.64501
 30
0.0
 40
0.0001488
 41
0.0001488
  0
VERTEX
  8
0
 10
1.14855
 20
2.6524
 30
0.0
 40
0.0001488
 41
0.0001488
  0
VERTEX
  8
0
 10
1.14372
 20
2.68278
 30
0.0
 40
0.0001488
 41
0.0001488
  0
VERTEX
  8
0
 10
1.12636
 20
2.71685
 30
0.0
 40
0.0001488
 41
0.0001488
  0
VERTEX
  8
0
 10
1.09939
 20
2.74382
 30
0.0
 40
0.0001488
 41
0.0001488
  0
VERTEX
  8
0
 10
1.06532
 20
2.76118
 30
0.0
 40
0.0001488
 41
0.0001488
  0
VERTEX
  8
0
 10
1.02756
 20
2.76719
 30
0.0
 40
0.0001488
 41
0.0001488
  0
VERTEX
  8
0
 10
0.9898
 20
2.76118
 30
0.0
 40
0.0001488
 41
0.0001488
  0
VERTEX
  8
0
 10
0.955729
 20
2.74382
 30
0.0
 40
0.0001488
 41
0.0001488
  0
VERTEX
  8
0
 10
0.928765
 20
2.71685
 30
0.0
 40
0.0001488
 41
0.0001488
  0
VERTEX
  8
0
 10
0.911404
 20
2.68278
 30
0.0
 40
0.0001488
 41
0.0001488
  0
VERTEX
  8
0
 10
0.906575
 20
2.6524
 30
0.0
 40
0.0001488
 41
0.0001488
  0
VERTEX
  8
0
 10
0.905382
 20
2.64501
 30
0.0
 40
0.0001488
 41
0.0001488
  0
VERTEX
  8
0
 10
0.911404
 20
2.60726
 30
0.0
 40
0.0001488
 41
0.0001488
  0
VERTEX
  8
0
 10
0.928765
 20
2.57319
 30
0.0
 40
0.0001488
 41
0.0001488
  0
VERTEX
  8
0
 10
0.955729
 20
2.54617
 30
0.0
 40
0.0001488
 41
0.0001488
  0
VERTEX
  8
0
 10
0.9898
 20
2.52881
 30
0.0
 40
0.0001488
 41
0.0001488
  0
SEQEND
 8
0
  0
POLYLINE
  8
0
 62
     1
 66
     1
 10
0
 20
0
 30
0.0
 70
     1
 40
0.0107136
 41
0.0107136
  0
VERTEX
  8
0
 10
1.34679
 20
2.18175
 30
0.0
 40
0.0001488
 41
0.0001488
  0
VERTEX
  8
0
 10
1.36811
 20
2.17839
 30
0.0
 40
0.0001488
 41
0.0001488
  0
VERTEX
  8
0
 10
1.38943
 20
2.18175
 30
0.0
 40
0.0001488
 41
0.0001488
  0
VERTEX
  8
0
 10
1.40864
 20
2.19157
 30
0.0
 40
0.0001488
 41
0.0001488
  0
VERTEX
  8
0
 10
1.42393
 20
2.20682
 30
0.0
 40
0.0001488
 41
0.0001488
  0
VERTEX
  8
0
 10
1.43375
 20
2.22601
 30
0.0
 40
0.0001488
 41
0.0001488
  0
VERTEX
  8
0
 10
1.43707
 20
2.2474
 30
0.0
 40
0.0001488
 41
0.0001488
  0
VERTEX
  8
0
 10
1.43679
 20
2.24924
 30
0.0
 40
0.0001488
 41
0.0001488
  0
VERTEX
  8
0
 10
1.43375
 20
2.26872
 30
0.0
 40
0.0001488
 41
0.0001488
  0
VERTEX
  8
0
 10
1.42393
 20
2.28792
 30
0.0
 40
0.0001488
 41
0.0001488
  0
VERTEX
  8
0
 10
1.40864
 20
2.30322
 30
0.0
 40
0.0001488
 41
0.0001488
  0
VERTEX
  8
0
 10
1.38943
 20
2.31299
 30
0.0
 40
0.0001488
 41
0.0001488
  0
VERTEX
  8
0
 10
1.36811
 20
2.3164
 30
0.0
 40
0.0001488
 41
0.0001488
  0
VERTEX
  8
0
 10
1.34679
 20
2.31299
 30
0.0
 40
0.0001488
 41
0.0001488
  0
VERTEX
  8
0
 10
1.32758
 20
2.30322
 30
0.0
 40
0.0001488
 41
0.0001488
  0
VERTEX
  8
0
 10
1.31228
 20
2.28792
 30
0.0
 40
0.0001488
 41
0.0001488
  0
VERTEX
  8
0
 10
1.30246
 20
2.26872
 30
0.0
 40
0.0001488
 41
0.0001488
  0
VERTEX
  8
0
 10
1.29937
 20
2.24924
 30
0.0
 40
0.0001488
 41
0.0001488
  0
VERTEX
  8
0
 10
1.2991
 20
2.2474
 30
0.0
 40
0.0001488
 41
0.0001488
  0
VERTEX
  8
0
 10
1.30246
 20
2.22601
 30
0.0
 40
0.0001488
 41
0.0001488
  0
VERTEX
  8
0
 10
1.31228
 20
2.20682
 30
0.0
 40
0.0001488
 41
0.0001488
  0
VERTEX
  8
0
 10
1.32758
 20
2.19157
 30
0.0
 40
0.0001488
 41
0.0001488
  0
VERTEX
  8
0
 10
1.34679
 20
2.18175
 30
0.0
 40
0.0001488
 41
0.0001488
  0
SEQEND
 8
0
  0
POLYLINE
  8
0
 62
     1
 66
     1
 10
0
 20
0
 30
0.0
 70
     1
 40
0.0107136
 41
0.0107136
  0
VERTEX
  8
0
 10
0.657769
 20
2.18175
 30
0.0
 40
0.0001488
 41
0.0001488
  0
VERTEX
  8
0
 10
0.679144
 20
2.17839
 30
0.0
 40
0.0001488
 41
0.0001488
  0
VERTEX
  8
0
 10
0.700467
 20
2.18175
 30
0.0
 40
0.0001488
 41
0.0001488
  0
VERTEX
  8
0
 10
0.719672
 20
2.19157
 30
0.0
 40
0.0001488
 41
0.0001488
  0
VERTEX
  8
0
 10
0.734972
 20
2.20682
 30
0.0
 40
0.0001488
 41
0.0001488
  0
VERTEX
  8
0
 10
0.744738
 20
2.22601
 30
0.0
 40
0.0001488
 41
0.0001488
  0
VERTEX
  8
0
 10
0.748101
 20
2.2474
 30
0.0
 40
0.0001488
 41
0.0001488
  0
VERTEX
  8
0
 10
0.747831
 20
2.24924
 30
0.0
 40
0.0001488
 41
0.0001488
  0
VERTEX
  8
0
 10
0.744738
 20
2.26872
 30
0.0
 40
0.0001488
 41
0.0001488
  0
VERTEX
  8
0
 10
0.734972
 20
2.28792
 30
0.0
 40
0.0001488
 41
0.0001488
  0
VERTEX
  8
0
 10
0.719672
 20
2.30322
 30
0.0
 40
0.0001488
 41
0.0001488
  0
VERTEX
  8
0
 10
0.700467
 20
2.31299
 30
0.0
 40
0.0001488
 41
0.0001488
  0
VERTEX
  8
0
 10
0.679144
 20
2.3164
 30
0.0
 40
0.0001488
 41
0.0001488
  0
VERTEX
  8
0
 10
0.657769
 20
2.31299
 30
0.0
 40
0.0001488
 41
0.0001488
  0
VERTEX
  8
0
 10
0.638564
 20
2.30322
 30
0.0
 40
0.0001488
 41
0.0001488
  0
VERTEX
  8
0
 10
0.623318
 20
2.28792
 30
0.0
 40
0.0001488
 41
0.0001488
  0
VERTEX
  8
0
 10
0.613499
 20
2.26872
 30
0.0
 40
0.0001488
 41
0.0001488
  0
VERTEX
  8
0
 10
0.610406
 20
2.24924
 30
0.0
 40
0.0001488
 41
0.0001488
  0
VERTEX
  8
0
 10
0.610135
 20
2.2474
 30
0.0
 40
0.0001488
 41
0.0001488
  0
VERTEX
  8
0
 10
0.613499
 20
2.22601
 30
0.0
 40
0.0001488
 41
0.0001488
  0
VERTEX
  8
0
 10
0.623318
 20
2.20682
 30
0.0
 40
0.0001488
 41
0.0001488
  0
VERTEX
  8
0
 10
0.638564
 20
2.19157
 30
0.0
 40
0.0001488
 41
0.0001488
  0
VERTEX
  8
0
 10
0.657769
 20
2.18175
 30
0.0
 40
0.0001488
 41
0.0001488
  0
SEQEND
 8
0
  0
POLYLINE
  8
0
 62
     1
 66
     1
 10
0
 20
0
 30
0.0
 70
     1
 40
0.0107136
 41
0.0107136
  0
VERTEX
  8
0
 10
3.7009
 20
1.8144
 30
0.0
 40
0.0001488
 41
0.0001488
  0
VERTEX
  8
0
 10
0.629829
 20
1.8144
 30
0.0
 40
0.0001488
 41
0.0001488
  0
VERTEX
  8
0
 10
0.629829
 20
0.239367
 30
0.0
 40
0.0001488
 41
0.0001488
  0
VERTEX
  8
0
 10
3.7009
 20
0.239367
 30
0.0
 40
0.0001488
 41
0.0001488
  0
VERTEX
  8
0
 10
3.7009
 20
1.8144
 30
0.0
 40
0.0001488
 41
0.0001488
  0
SEQEND
 8
0
  0
ENDSEC
  0
EOF
