<?xml version="1.0" standalone="no"?>
<!DOCTYPE svg PUBLIC "-//W3C//DTD SVG 1.1//EN"
  "http://www.w3.org/Graphics/SVG/1.1/DTD/svg11.dtd">
<svg width="110mm" height="73.99999999999999mm" viewBox="-76 -18.999999999999996 110 73.99999999999999" xmlns="http://www.w3.org/2000/svg" version="1.1">
	<title>svgOutput</title>
	<desc>made with tinkercad</desc>
<path d="M 32.755001068115234 27.454999923706048 L 33 28.999999999999993 L 32.755001068115234 30.545000076293938 L 32.267066955566406 31.503000259399407 L 32.04499816894531 31.938999176025384 L 31.215999603271484 32.76800155639648 L 30.93899917602539 33.044998168945305 L 29.545000076293945 33.75500106811523 L 28 33.99999999999999 L 27.987346649169922 33.99999999999999 L 26.450000762939453 34.24300003051757 L 25.052000045776367 34.95500183105468 L 23.94300079345703 36.06499862670898 L 23.229999542236328 37.463001251220696 L 23 38.91810226440429 L 23 39.01300048828124 L 23 53.999999999999986 L 18.003000259399414 53.999999999999986 L -2 53.999999999999986 L -32 53.999999999999986 L -35 53.999999999999986 L -60.00299835205078 53.999999999999986 L -65 53.999999999999986 L -65 39.01300048828124 L -65 38.99409866333007 L -65.24299621582031 37.463001251220696 L -65.53600311279297 36.88769912719726 L -65.95500183105469 36.06499862670898 L -67.06500244140625 34.95500183105468 L -68.46299743652344 34.24300003051757 L -70 34.00005340576171 L -70.0003433227539 33.99999999999999 L -70 33.99999999999999 L -71.54499816894531 33.75500106811523 L -72.93900299072266 33.044998168945305 L -73.21600341796875 32.76800155639648 L -74.04499816894531 31.938999176025384 L -74.75499725341797 30.545000076293938 L -75 28.999999999999993 L -74.75499725341797 27.454999923706048 L -74.04499816894531 26.061000823974602 L -72.93900299072266 24.954999923706048 L -72.50299835205078 24.73293495178222 L -71.54499816894531 24.24500083923339 L -70 23.999999999999993 L -69.99409484863281 23.999999999999993 L -68.46299743652344 23.75699996948242 L -67.06500244140625 23.04500007629394 L -65.95500183105469 21.93499946594238 L -65.24299621582031 20.537000656127926 L -65 19.00590324401855 L -65 18.986999511718746 L -65 3.999999999999999 L -60.00299835205078 3.999999999999999 L -35 3.999999999999999 L -32 3.999999999999999 L -2 3.999999999999999 L 18.003000259399414 3.999999999999999 L 23 3.999999999999999 L 23 18.999999999999996 L 23 19.012672424316403 L 23.242000579833984 20.545999526977536 L 23.952999114990234 21.940000534057614 L 25.059999465942383 23.047000885009762 L 26.45400047302246 23.757999420166012 L 27.981069564819336 23.999999999999993 L 28 23.999999999999993 L 29.545000076293945 24.24500083923339 L 30.503000259399414 24.73293495178222 L 30.93899917602539 24.954999923706048 L 32.04499816894531 26.061000823974602 L 32.755001068115234 27.454999923706048 M 16.5 26.499999999999993 L 18.003000259399414 26.499999999999993 L 18.003000259399414 8.998000144958494 L 16.5 8.998000144958494 L 16 8.998000144958494 L 16 10.499999999999998 L -2 10.499999999999998 L -32 10.499999999999998 L -35 10.499999999999998 L -58 10.499999999999998 L -58 8.998000144958494 L -60.00299835205078 8.998000144958494 L -60.00299835205078 26.499999999999993 L -58 26.499999999999993 L -58 31.499999999999993 L -60.00299835205078 31.499999999999993 L -60.00299835205078 49.00299835205077 L -58 49.00299835205077 L -58 47.49999999999999 L -35 47.49999999999999 L -32 47.49999999999999 L -2 47.49999999999999 L 16 47.49999999999999 L 16 49.00299835205077 L 16.5 49.00299835205077 L 18.003000259399414 49.00299835205077 L 18.003000259399414 31.499999999999993 L 16.5 31.499999999999993 L 16.5 26.499999999999993 M -13.472999572753906 -16.85400009155273 L -13.003000259399414 -16.38400077819824 L -12.145999908447266 -15.52700042724609 L -11.293999671936035 -13.85400009155273 L -11 -11.999999999999996 L -11 -10.723302841186522 L -11 -9.619000434875487 L -11 -8.405411720275877 L -11 -6.9514565467834455 L -11 -5.999999999999998 L -10.003000259399414 -5.999999999999998 L -6.498000144958496 -5.999999999999998 L -2 -5.999999999999998 L -2 -0.247999995946884 L -2 1.9999999999999996 L -10.003000259399414 1.9999999999999996 L -27.503000259399414 1.9999999999999996 L -32 1.9999999999999996 L -32 -5.999999999999998 L -27.503000259399414 -5.999999999999998 L -23.99799919128418 -5.999999999999998 L -23 -5.999999999999998 L -23 -11.999999999999996 L -22.70599937438965 -13.85400009155273 L -21.854000091552734 -15.52700042724609 L -20.996999740600586 -16.38400077819824 L -20.527000427246094 -16.85400009155273 L -18.854000091552734 -17.705999374389645 L -17 -17.999999999999996 L -15.145999908447266 -17.705999374389645 L -13.472999572753906 -16.85400009155273 M -46.472999572753906 -16.85400009155273 L -46.00299835205078 -16.38400077819824 L -45.145999908447266 -15.52700042724609 L -44.29399871826172 -13.85400009155273 L -44 -11.999999999999996 L -44 -10.723302841186522 L -44 -9.619000434875487 L -44 -8.405411720275877 L -44 -6.9514565467834455 L -44 -5.999999999999998 L -43.00299835205078 -5.999999999999998 L -39.49800109863281 -5.999999999999998 L -35 -5.999999999999998 L -35 -0.247999995946884 L -35 1.9999999999999996 L -43.00299835205078 1.9999999999999996 L -60.50299835205078 1.9999999999999996 L -65 1.9999999999999996 L -65 -5.999999999999998 L -60.50299835205078 -5.999999999999998 L -56.99800109863281 -5.999999999999998 L -56 -5.999999999999998 L -56 -11.999999999999996 L -55.70600128173828 -13.85400009155273 L -54.854000091552734 -15.52700042724609 L -53.99700164794922 -16.38400077819824 L -53.527000427246094 -16.85400009155273 L -51.854000091552734 -17.705999374389645 L -50 -17.999999999999996 L -48.145999908447266 -17.705999374389645 L -46.472999572753906 -16.85400009155273 M 30.3799991607666 29.77300071716308 L 30.503000259399414 28.999999999999993 L 30.450809478759766 28.67200088500976 L 30.3799991607666 28.226999282836907 L 30.024999618530273 27.528999328613274 L 29.47100067138672 26.97500038146972 L 28.773000717163086 26.62000083923339 L 28 26.497999191284173 L 27.226999282836914 26.62000083923339 L 26.52899932861328 26.97500038146972 L 25.975000381469727 27.528999328613274 L 25.6200008392334 28.226999282836907 L 25.549766540527344 28.67200088500976 L 25.49799919128418 28.999999999999993 L 25.6200008392334 29.77300071716308 L 25.975000381469727 30.47100067138671 L 26.52899932861328 31.024999618530266 L 27.226999282836914 31.379999160766594 L 28 31.503000259399407 L 28.773000717163086 31.379999160766594 L 29.47100067138672 31.024999618530266 L 30.024999618530273 30.47100067138671 L 30.3799991607666 29.77300071716308 M -17.858999252319336 -9.149000167846678 L -16.899999618530273 -8.998000144958494 L -15.940999984741211 -9.149000167846678 L -15.076000213623047 -9.590000152587889 L -14.390000343322754 -10.276000022888182 L -13.949000358581543 -11.140999794006346 L -13.79800033569336 -12.100000381469723 L -13.827601432800293 -12.28800010681152 L -13.949000358581543 -13.059000015258786 L -14.390000343322754 -13.92399978637695 L -15.076000213623047 -14.609999656677243 L -15.940999984741211 -15.050999641418453 L -16.899999618530273 -15.203000068664547 L -17.858999252319336 -15.050999641418453 L -18.724000930786133 -14.609999656677243 L -19.40999984741211 -13.92399978637695 L -19.85099983215332 -13.059000015258786 L -19.973201751708984 -12.28800010681152 L -20.003000259399414 -12.100000381469723 L -19.85099983215332 -11.140999794006346 L -19.40999984741211 -10.276000022888182 L -18.724000930786133 -9.590000152587889 L -17.858999252319336 -9.149000167846678 M -8.791999816894531 -0.33300000429153426 L -8.25 -0.247999995946884 L -7.708000183105469 -0.33300000429153426 L -7.21999979019165 -0.5820000171661375 L -6.831999778747559 -0.9700000286102292 L -6.583000183105469 -1.4579999446868892 L -6.498000144958496 -1.9999999999999996 L -6.505527496337891 -2.04800009727478 L -6.583000183105469 -2.54200005531311 L -6.831999778747559 -3.0299999713897696 L -7.21999979019165 -3.4179999828338614 L -7.708000183105469 -3.6670000553131095 L -8.25 -3.753000020980834 L -8.791999816894531 -3.6670000553131095 L -9.279999732971191 -3.4179999828338614 L -9.668000221252441 -3.0299999713897696 L -9.916999816894531 -2.54200005531311 L -9.995384216308594 -2.04800009727478 L -10.003000259399414 -1.9999999999999996 L -9.916999816894531 -1.4579999446868892 L -9.668000221252441 -0.9700000286102292 L -9.279999732971191 -0.5820000171661375 L -8.791999816894531 -0.33300000429153426 M -26.29199981689453 -0.33300000429153426 L -25.75 -0.247999995946884 L -25.20800018310547 -0.33300000429153426 L -24.719999313354492 -0.5820000171661375 L -24.332000732421875 -0.9700000286102292 L -24.08300018310547 -1.4579999446868892 L -23.99799919128418 -1.9999999999999996 L -24.00552749633789 -2.04800009727478 L -24.08300018310547 -2.54200005531311 L -24.332000732421875 -3.0299999713897696 L -24.719999313354492 -3.4179999828338614 L -25.20800018310547 -3.6670000553131095 L -25.75 -3.753000020980834 L -26.29199981689453 -3.6670000553131095 L -26.780000686645508 -3.4179999828338614 L -27.167999267578125 -3.0299999713897696 L -27.41699981689453 -2.54200005531311 L -27.495384216308594 -2.04800009727478 L -27.503000259399414 -1.9999999999999996 L -27.41699981689453 -1.4579999446868892 L -27.167999267578125 -0.9700000286102292 L -26.780000686645508 -0.5820000171661375 L -26.29199981689453 -0.33300000429153426 M -70.77300262451172 31.379999160766594 L -70 31.503000259399407 L -69.22699737548828 31.379999160766594 L -68.52899932861328 31.024999618530266 L -67.9749984741211 30.47100067138671 L -67.62000274658203 29.77300071716308 L -67.49800109863281 28.999999999999993 L -67.54976654052734 28.67200088500976 L -67.62000274658203 28.226999282836907 L -67.9749984741211 27.528999328613274 L -68.52899932861328 26.97500038146972 L -69.22699737548828 26.62000083923339 L -70 26.497999191284173 L -70.77300262451172 26.62000083923339 L -71.47100067138672 26.97500038146972 L -72.0250015258789 27.528999328613274 L -72.37999725341797 28.226999282836907 L -72.4508056640625 28.67200088500976 L -72.50299835205078 28.999999999999993 L -72.37999725341797 29.77300071716308 L -72.0250015258789 30.47100067138671 L -71.47100067138672 31.024999618530266 L -70.77300262451172 31.379999160766594 M -50.85900115966797 -9.149000167846678 L -49.900001525878906 -8.998000144958494 L -48.941001892089844 -9.149000167846678 L -48.07600021362305 -9.590000152587889 L -47.38999938964844 -10.276000022888182 L -46.94900131225586 -11.140999794006346 L -46.79800033569336 -12.100000381469723 L -46.82760238647461 -12.28800010681152 L -46.94900131225586 -13.059000015258786 L -47.38999938964844 -13.92399978637695 L -48.07600021362305 -14.609999656677243 L -48.941001892089844 -15.050999641418453 L -49.900001525878906 -15.203000068664547 L -50.85900115966797 -15.050999641418453 L -51.7239990234375 -14.609999656677243 L -52.40999984741211 -13.92399978637695 L -52.85100173950195 -13.059000015258786 L -52.973201751708984 -12.28800010681152 L -53.00299835205078 -12.100000381469723 L -52.85100173950195 -11.140999794006346 L -52.40999984741211 -10.276000022888182 L -51.7239990234375 -9.590000152587889 L -50.85900115966797 -9.149000167846678 M -41.79199981689453 -0.33300000429153426 L -41.25 -0.247999995946884 L -40.70800018310547 -0.33300000429153426 L -40.220001220703125 -0.5820000171661375 L -39.832000732421875 -0.9700000286102292 L -39.58300018310547 -1.4579999446868892 L -39.49800109863281 -1.9999999999999996 L -39.50552749633789 -2.04800009727478 L -39.58300018310547 -2.54200005531311 L -39.832000732421875 -3.0299999713897696 L -40.220001220703125 -3.4179999828338614 L -40.70800018310547 -3.6670000553131095 L -41.25 -3.753000020980834 L -41.79199981689453 -3.6670000553131095 L -42.279998779296875 -3.4179999828338614 L -42.667999267578125 -3.0299999713897696 L -42.91699981689453 -2.54200005531311 L -42.995384216308594 -2.04800009727478 L -43.00299835205078 -1.9999999999999996 L -42.91699981689453 -1.4579999446868892 L -42.667999267578125 -0.9700000286102292 L -42.279998779296875 -0.5820000171661375 L -41.79199981689453 -0.33300000429153426 M -59.29199981689453 -0.33300000429153426 L -59.779998779296875 -0.5820000171661375 L -60.167999267578125 -0.9700000286102292 L -60.41699981689453 -1.4579999446868892 L -60.50299835205078 -1.9999999999999996 L -60.495384216308594 -2.04800009727478 L -60.41699981689453 -2.54200005531311 L -60.167999267578125 -3.0299999713897696 L -59.779998779296875 -3.4179999828338614 L -59.29199981689453 -3.6670000553131095 L -58.75 -3.753000020980834 L -58.20800018310547 -3.6670000553131095 L -57.720001220703125 -3.4179999828338614 L -57.332000732421875 -3.0299999713897696 L -57.08300018310547 -2.54200005531311 L -57.00552749633789 -2.04800009727478 L -56.99800109863281 -1.9999999999999996 L -57.08300018310547 -1.4579999446868892 L -57.332000732421875 -0.9700000286102292 L -57.720001220703125 -0.5820000171661375 L -58.20800018310547 -0.33300000429153426 L -58.75 -0.247999995946884 L -59.29199981689453 -0.33300000429153426 M -58.75 -0.247999995946884 L -56.99800109863281 -0.247999995946884 L -56.99800109863281 -1.9999999999999996 L -56.99800109863281 -3.753000020980834 L -58.75 -3.753000020980834 L -60.50299835205078 -3.753000020980834 L -60.50299835205078 -1.9999999999999996 L -60.50299835205078 -0.247999995946884 L -60.225006103515625 -0.247999995946884 z" fill="none" stroke="rgb(255,0,0)" stroke-width="0.001mm" />
</svg>